<svg width="56" height="36" viewBox="0 0 56 36" fill="none" xmlns="http://www.w3.org/2000/svg">
<path d="M5.29452 0H16.5732C16.5913 0 16.6095 0 16.6276 0C16.6457 0 16.6639 0 16.682 0H50.4635C51.9198 0 53.2401 0.594329 54.1974 1.55161C55.1546 2.50888 55.749 3.83365 55.749 5.28544V30.6964C55.749 32.1527 55.1546 33.473 54.1974 34.4302C53.2401 35.3875 51.9153 35.9819 50.4635 35.9819H16.8499C16.7773 35.9955 16.7002 36 16.6276 36C16.5505 36 16.4779 35.9909 16.4053 35.9819H5.29452C3.83819 35.9819 2.51796 35.3875 1.56068 34.4302C0.603403 33.473 0.00907372 32.1482 0.00907372 30.6964V17.9297C0 17.8934 0 17.8526 0 17.8117C0 17.7709 0 17.7301 0.00453686 17.6938V5.28998C0.00453686 3.83365 0.598866 2.51342 1.55614 1.55614C2.51342 0.594329 3.83819 0 5.29452 0ZM33.3006 29.662C32.7471 29.662 32.2979 29.2129 32.2979 28.6594C32.2979 28.1059 32.7471 27.6567 33.3006 27.6567H48.9391C49.4926 27.6567 49.9418 28.1059 49.9418 28.6594C49.9418 29.2129 49.4926 29.662 48.9391 29.662H33.3006ZM33.3006 24.862C32.7471 24.862 32.2979 24.4129 32.2979 23.8594C32.2979 23.3059 32.7471 22.8567 33.3006 22.8567H41.2446C41.7981 22.8567 42.2473 23.3059 42.2473 23.8594C42.2473 24.4129 41.7981 24.862 41.2446 24.862H33.3006ZM19.5766 14.0597C19.4949 14.2503 19.3951 14.4862 19.2771 14.7675L18.9868 15.4707C18.9051 15.6749 18.8144 15.8972 18.7191 16.1376C22.6798 15.2892 24.7713 13.9962 25.656 12.6851C25.9781 12.2087 26.1142 11.7414 26.1096 11.3149C26.1051 10.8975 25.969 10.4983 25.7422 10.149C25.2612 9.40945 24.4083 8.9104 23.5236 8.91493C21.6907 8.91947 20.6609 11.4147 19.876 13.3248C19.7535 13.6242 19.6355 13.9146 19.5766 14.0597ZM17.8798 11.2378C18.9187 8.84688 20.3977 6.27448 23.5282 6.26541C25.3157 6.26087 27.0261 7.24991 27.9743 8.70624C28.4643 9.46389 28.7592 10.3486 28.7682 11.2968C28.7773 12.2359 28.5051 13.2159 27.8654 14.1641C27.3028 14.9989 26.4408 15.82 25.2023 16.5595H53.2492V5.28998C53.2492 4.52325 52.9361 3.82911 52.428 3.32552C51.9198 2.82193 51.2257 2.50435 50.4635 2.50435H17.8798V11.2378ZM8.00302 16.5595C6.78261 15.82 5.92514 15.0079 5.36711 14.1777C4.73195 13.2295 4.45974 12.2495 4.46427 11.3104C4.47335 10.3622 4.76824 9.4775 5.25822 8.71985C6.20643 7.25898 7.91682 6.27448 9.70435 6.27902C12.8575 6.28809 14.3319 8.89225 15.3709 11.2968V2.50435H5.29452C4.52779 2.50435 3.83365 2.81739 3.33006 3.32552C2.82647 3.82911 2.50888 4.52779 2.50888 5.28998V16.5595H8.00302ZM13.9554 14.7811C13.8374 14.4998 13.7422 14.2639 13.656 14.0733C13.5924 13.9282 13.4745 13.6378 13.352 13.3429C12.5671 11.4329 11.5372 8.93762 9.70435 8.92854C8.81966 8.92401 7.96219 9.4276 7.48582 10.1626C7.25898 10.5119 7.12287 10.9112 7.11834 11.3285C7.1138 11.755 7.24991 12.2223 7.57202 12.6987C8.45217 14.0098 10.5482 15.3028 14.5089 16.1512L14.2412 15.4798L13.9554 14.7811ZM5.9569 22.1807C7.95766 22.2034 9.77694 21.845 11.3739 21.0329C12.3357 20.5474 13.225 19.8941 14.0416 19.0639H2.50888V30.6964C2.50888 31.4631 2.82193 32.1573 3.33006 32.6609C3.83365 33.1645 4.53233 33.482 5.29452 33.482H15.3754V21.4684C14.5089 22.2578 13.5743 22.8975 12.5716 23.4057C10.58 24.4129 8.35236 24.862 5.92514 24.8302L5.9569 22.1807ZM19.5539 19.0639C20.3433 19.7716 21.1871 20.3841 22.09 20.8877C23.7369 21.8087 25.5788 22.3849 27.6386 22.5709L27.4117 25.2113C24.9482 24.989 22.7524 24.304 20.7924 23.2061C19.7535 22.6253 18.7871 21.9312 17.8798 21.1236V33.482H50.4635C51.2302 33.482 51.9244 33.169 52.428 32.6609C52.9316 32.1527 53.2492 31.4586 53.2492 30.6964V19.0639H19.5539Z" fill="#315B12"/>
</svg>
