<svg width="12" height="12" viewBox="0 0 12 12" fill="none" xmlns="http://www.w3.org/2000/svg">
<path d="M5.5 1.50621C5.49915 1.23007 5.7223 1.00551 5.99845 1.00464C6.2746 1.00378 6.49915 1.22693 6.5 1.50307L5.5 1.50621Z" fill="black"/>
<path d="M7.15804 5.14759L6.51359 5.79604L6.50013 1.50317L5.50013 1.50631L5.51359 5.79919L4.86515 5.15479C4.66927 4.96013 4.35268 4.96111 4.15803 5.15699C3.96338 5.35284 3.96438 5.66944 4.16025 5.86409L4.16151 5.86534L4.162 5.86584L6.01963 7.71184L7.86044 5.85939L7.86324 5.85659L7.86364 5.85619L7.86404 5.85579L7.86699 5.85284L7.15804 5.14759Z" fill="black"/>
<path d="M7.8675 5.85247C8.06215 5.65657 8.06115 5.33997 7.8653 5.14532C7.6694 4.95069 7.3528 4.95169 7.1582 5.14757L7.8675 5.85247Z" fill="black"/>
<path d="M2 6C2 5.4477 2.44771 5 3 5C3.27614 5 3.5 4.77614 3.5 4.5C3.5 4.22385 3.27614 4 3 4C1.89543 4 1 4.89543 1 6V9C1 10.1045 1.89543 11 3 11H8.5C9.8807 11 11 9.8807 11 8.5V6C11 4.89543 10.1045 4 9 4C8.72385 4 8.5 4.22385 8.5 4.5C8.5 4.77614 8.72385 5 9 5C9.5523 5 10 5.4477 10 6V8.5C10 9.32845 9.32845 10 8.5 10H3C2.44771 10 2 9.5523 2 9V6Z" fill="black"/>
</svg>
