<svg width="25" height="25" viewBox="0 0 25 25" fill="none" xmlns="http://www.w3.org/2000/svg">
<g clip-path="url(#clip0_2420_5296)">
<path fill-rule="evenodd" clip-rule="evenodd" d="M0.53772 5.68604C0.53772 5.38767 0.656246 5.10152 0.867225 4.89054C1.0782 4.67956 1.36435 4.56104 1.66272 4.56104H23.4127C23.7111 4.56104 23.9972 4.67956 24.2082 4.89054C24.4192 5.10152 24.5377 5.38767 24.5377 5.68604C24.5377 5.9844 24.4192 6.27055 24.2082 6.48153C23.9972 6.69251 23.7111 6.81104 23.4127 6.81104H1.66272C1.36435 6.81104 1.0782 6.69251 0.867225 6.48153C0.656246 6.27055 0.53772 5.9844 0.53772 5.68604ZM0.53772 12.061C0.53772 11.7627 0.656246 11.4765 0.867225 11.2655C1.0782 11.0546 1.36435 10.936 1.66272 10.936H23.4127C23.7111 10.936 23.9972 11.0546 24.2082 11.2655C24.4192 11.4765 24.5377 11.7627 24.5377 12.061C24.5377 12.3594 24.4192 12.6456 24.2082 12.8565C23.9972 13.0675 23.7111 13.186 23.4127 13.186H1.66272C1.36435 13.186 1.0782 13.0675 0.867225 12.8565C0.656246 12.6456 0.53772 12.3594 0.53772 12.061ZM1.66272 17.311C1.36435 17.311 1.0782 17.4296 0.867225 17.6405C0.656246 17.8515 0.53772 18.1377 0.53772 18.436C0.53772 18.7344 0.656246 19.0206 0.867225 19.2315C1.0782 19.4425 1.36435 19.561 1.66272 19.561H23.4127C23.7111 19.561 23.9972 19.4425 24.2082 19.2315C24.4192 19.0206 24.5377 18.7344 24.5377 18.436C24.5377 18.1377 24.4192 17.8515 24.2082 17.6405C23.9972 17.4296 23.7111 17.311 23.4127 17.311H1.66272Z" fill="white"/>
</g>
<defs>
<clipPath id="clip0_2420_5296">
<rect width="24" height="24" fill="white" transform="translate(0.53772 0.0610352)"/>
</clipPath>
</defs>
</svg>
