<svg width="19" height="18" viewBox="0 0 19 18" fill="none" xmlns="http://www.w3.org/2000/svg">
<path d="M8.62742 9.27053L8.62627 9.00496C8.62627 7.90123 8.69091 6.89499 8.78827 6.23903L8.87357 5.83112C8.92102 5.61509 8.98341 5.3691 9.04845 5.24353C9.28654 4.78419 9.75208 4.5 10.2503 4.5H10.2937C10.6185 4.51074 11.3009 4.79576 11.3009 4.80567C12.3989 5.26637 14.5172 6.65679 15.4955 7.64804L15.7798 7.94564C15.8543 8.0263 15.9379 8.12176 15.9898 8.19616C16.1633 8.42583 16.25 8.71002 16.25 8.99422C16.25 9.31146 16.1526 9.60639 15.9685 9.84762L15.6765 10.1629L15.611 10.2301C14.7233 11.1926 12.4054 12.7664 11.1929 13.248L11.0098 13.3182C10.7895 13.3971 10.4809 13.4913 10.2937 13.5C10.0556 13.5 9.82817 13.4446 9.61135 13.3356C9.34054 13.1828 9.12454 12.9415 9.00509 12.6573C8.929 12.4607 8.80955 11.87 8.80955 11.8593C8.70004 11.2637 8.63654 10.3239 8.62742 9.27053ZM2.75 8.99967C2.75 8.37097 3.25481 7.86124 3.87744 7.86124L6.65186 8.10661C7.14031 8.10661 7.53631 8.50646 7.53631 8.99967C7.53631 9.4937 7.14031 9.89273 6.65186 9.89273L3.87744 10.1381C3.25481 10.1381 2.75 9.62836 2.75 8.99967Z" fill="#3F622E"/>
</svg>
