<svg width="25" height="24" viewBox="0 0 25 24" fill="none" xmlns="http://www.w3.org/2000/svg">
<g clip-path="url(#clip0_1070_2364)">
<path d="M13.17 2.21704L21.67 6.96704C21.9195 7.09161 22.1294 7.28328 22.276 7.52051C22.4226 7.75775 22.5002 8.03116 22.5 8.31004V9.75004C22.5 10.44 21.94 11 21.25 11H20.5V19H21.5C21.7652 19 22.0196 19.1054 22.2071 19.2929C22.3946 19.4805 22.5 19.7348 22.5 20C22.5 20.2653 22.3946 20.5196 22.2071 20.7071C22.0196 20.8947 21.7652 21 21.5 21H3.5C3.23478 21 2.98043 20.8947 2.79289 20.7071C2.60536 20.5196 2.5 20.2653 2.5 20C2.5 19.7348 2.60536 19.4805 2.79289 19.2929C2.98043 19.1054 3.23478 19 3.5 19H4.5V11H3.75C3.06 11 2.5 10.44 2.5 9.75004V8.31004C2.5 7.78804 2.77 7.30804 3.206 7.03604L11.829 2.21704C12.0373 2.11284 12.2671 2.05859 12.5 2.05859C12.7329 2.05859 12.9617 2.11284 13.17 2.21704ZM18.5 11H6.5V19H9.5V13H11.5V19H13.5V13H15.5V19H18.5V11ZM12.5 4.11804L4.5 8.61804V9.00004H20.5V8.61804L12.5 4.11804ZM12.5 6.00004C12.7652 6.00004 13.0196 6.1054 13.2071 6.29294C13.3946 6.48047 13.5 6.73483 13.5 7.00004C13.5 7.26526 13.3946 7.51961 13.2071 7.70715C13.0196 7.89469 12.7652 8.00004 12.5 8.00004C12.2348 8.00004 11.9804 7.89469 11.7929 7.70715C11.6054 7.51961 11.5 7.26526 11.5 7.00004C11.5 6.73483 11.6054 6.48047 11.7929 6.29294C11.9804 6.1054 12.2348 6.00004 12.5 6.00004Z" fill="#3F622E"/>
</g>
<defs>
<clipPath id="clip0_1070_2364">
<rect width="24" height="24" fill="white" transform="translate(0.5)"/>
</clipPath>
</defs>
</svg>
