<svg width="27" height="26" viewBox="0 0 27 26" fill="none" xmlns="http://www.w3.org/2000/svg">
<path d="M23.25 8.66675C23.25 6.87166 19.8548 5.41675 15.6667 5.41675C11.4785 5.41675 8.08334 6.87166 8.08334 8.66675M23.25 8.66675V13.0001C23.25 14.1051 21.9652 15.0801 20 15.6672C18.7715 16.0356 17.2776 16.2501 15.6667 16.2501C14.0558 16.2501 12.5618 16.0345 11.3333 15.6672C9.36926 15.0801 8.08334 14.1051 8.08334 13.0001V8.66675M23.25 8.66675C23.25 9.77175 21.9652 10.7467 20 11.3339C18.7715 11.7022 17.2776 11.9167 15.6667 11.9167C14.0558 11.9167 12.5618 11.7012 11.3333 11.3339C9.36926 10.7467 8.08334 9.77175 8.08334 8.66675" stroke="#3F622E" stroke-width="2" stroke-linecap="round" stroke-linejoin="round"/>
<path d="M3.75 13.0001V17.3335C3.75 18.4385 5.03592 19.4135 7 20.0006C8.2285 20.369 9.72242 20.5835 11.3333 20.5835C12.9443 20.5835 14.4382 20.3679 15.6667 20.0006C17.6308 19.4135 18.9167 18.4385 18.9167 17.3335V16.2501M3.75 13.0001C3.75 11.7034 5.52125 10.5843 8.08333 10.0632M3.75 13.0001C3.75 14.1051 5.03592 15.0801 7 15.6673C8.2285 16.0356 9.72242 16.2501 11.3333 16.2501C12.0863 16.2501 12.8132 16.2036 13.5 16.1158" stroke="#3F622E" stroke-width="2" stroke-linecap="round" stroke-linejoin="round"/>
</svg>
