<svg width="48" height="49" viewBox="0 0 48 49" fill="none" xmlns="http://www.w3.org/2000/svg">
<circle cx="24" cy="24.5771" r="24" fill="#3F622E"/>
<path d="M17.163 36.571C16.3229 36.4068 15.5849 36.0455 14.9955 35.4027C14.355 34.6989 13.9976 33.873 13.9976 32.9065C13.9976 28.6226 13.9976 24.3387 13.9976 20.0549C13.9976 18.0513 15.6638 16.3763 17.6504 16.3716C20.6441 16.3716 23.6378 16.3716 26.6362 16.3716C28.632 16.3716 30.289 18.0513 30.289 20.0783C30.289 24.3153 30.2705 28.5522 30.2983 32.7892C30.3076 34.4877 29.1194 36.1769 27.2582 36.5381C27.2118 36.5475 27.17 36.5616 27.1236 36.5757C23.8049 36.571 20.4863 36.571 17.163 36.571ZM15.882 26.4596C15.882 28.4959 15.882 30.5323 15.882 32.5686C15.882 32.8126 15.9006 33.0519 15.9609 33.2865C16.1698 34.1311 16.8938 34.6801 17.8453 34.6801C20.7091 34.6895 23.5729 34.6848 26.4366 34.6801C26.6269 34.6801 26.8219 34.6566 27.0075 34.6097C27.8708 34.4033 28.4046 33.6431 28.4046 32.625C28.4046 28.5288 28.4046 24.4326 28.4046 20.3364C28.4046 20.1159 28.3814 19.9 28.3304 19.6889C28.1261 18.8396 27.4021 18.286 26.4552 18.286C23.5775 18.2766 20.6952 18.2766 17.8175 18.286C16.8799 18.2906 16.1651 18.8396 15.9562 19.6795C15.8959 19.9141 15.8773 20.1534 15.8773 20.3974C15.882 22.415 15.882 24.4373 15.882 26.4596Z" fill="#F2F2F2"/>
<path d="M33.9976 23.2643C33.9976 25.676 33.9976 28.0877 33.9976 30.4995C33.9976 30.9687 33.6494 31.3769 33.2178 31.4332C32.7119 31.4989 32.2756 31.222 32.141 30.7528C32.1038 30.6215 32.1131 30.4901 32.1131 30.3587C32.1131 25.7652 32.1131 21.1669 32.1131 16.5734C32.1131 16.0385 32.0017 15.5364 31.6351 15.1235C31.2127 14.6402 30.665 14.4901 30.0523 14.4901C26.7198 14.4901 23.3826 14.4901 20.05 14.4948C19.7344 14.4948 19.4745 14.4056 19.2702 14.1663C19.0103 13.8613 18.9778 13.5094 19.1217 13.1575C19.2702 12.8009 19.5534 12.5898 19.9525 12.5898C23.4893 12.5898 27.0215 12.5569 30.5582 12.6039C32.1363 12.6226 33.5148 13.852 33.9001 15.4426C33.9697 15.7241 34.0022 16.0056 34.0022 16.3012C33.9929 18.6144 33.9976 20.9417 33.9976 23.2643Z" fill="#F2F2F2"/>
</svg>
