<svg width="23" height="20" viewBox="0 0 23 20" fill="none" xmlns="http://www.w3.org/2000/svg">
<path d="M22.1401 6.55542C22.1418 7.45629 21.9564 8.34769 21.5957 9.1732C21.2099 10.0587 20.6345 10.8488 19.91 11.4876C18.8409 12.4287 17.4926 12.993 16.0718 13.094H13.1169L8.98546 17.2255L7.8308 18.3818H10.3289C10.5032 18.4018 10.6665 18.4773 10.7946 18.5972C10.9227 18.7171 11.0088 18.875 11.0402 19.0476C11.0582 19.1463 11.0582 19.2473 11.0402 19.346C11.0103 19.5062 10.9334 19.6539 10.8194 19.7703C10.7053 19.8868 10.5593 19.9667 10.3997 20H5.87884C5.69803 19.983 5.52814 19.9059 5.39641 19.7809C5.26468 19.6559 5.17873 19.4903 5.15234 19.3106V14.7594C5.18299 14.5998 5.26068 14.453 5.37544 14.338C5.49019 14.2229 5.63675 14.1448 5.79625 14.1138L5.86199 14.1037C5.92136 14.0969 5.9813 14.0969 6.04067 14.1037C6.06426 14.1037 6.08618 14.1037 6.10809 14.1138C6.27973 14.1477 6.43587 14.2361 6.55336 14.3657C6.67086 14.4954 6.74347 14.6594 6.76043 14.8335V17.1833L7.37906 16.5647L8.98546 14.9583L10.8397 13.1041L11.0352 12.9086L11.2509 12.6928L11.9252 12.0185L12.441 11.5027H15.583C16.5322 11.5043 17.4617 11.2318 18.2598 10.718C19.058 10.2042 19.6908 9.47093 20.0824 8.60625C20.474 7.74157 20.6076 6.78224 20.4673 5.84345C20.327 4.90467 19.9187 4.02635 19.2914 3.31395C19.1432 3.14718 18.9844 2.99009 18.8161 2.84366C18.3968 2.48025 17.9193 2.19018 17.4035 1.98567C17.3142 1.95027 17.2248 1.91825 17.1355 1.88791C16.6361 1.72354 16.1138 1.63989 15.5881 1.64012H15.5274V1.60641H2.10641V3.29204H8.31964C8.48905 3.32418 8.64454 3.40751 8.76511 3.53079C8.88567 3.65407 8.96553 3.81137 8.99389 3.98146V10.3818L14.4621 4.90687H11.8224C11.6486 4.84735 11.4994 4.73218 11.3978 4.57921C11.2962 4.42624 11.2478 4.24402 11.2603 4.0608C11.2728 3.87758 11.3454 3.70359 11.4668 3.56582C11.5883 3.42804 11.7517 3.33418 11.9319 3.29878H16.4039C16.584 3.31549 16.7533 3.39192 16.885 3.51592C17.0166 3.63993 17.103 3.80439 17.1304 3.98314V8.55457C17.0817 8.73037 16.9767 8.88535 16.8314 8.99578C16.6862 9.1062 16.5088 9.166 16.3264 9.166C16.1439 9.166 15.9665 9.1062 15.8213 8.99578C15.6761 8.88535 15.5711 8.73037 15.5223 8.55457V6.11715L12.468 9.1732L11.2577 10.3852L11.0419 10.6009L10.7048 10.9381L10.1536 11.4909L8.98546 12.6574L8.78319 12.8614C8.65428 12.9892 8.48756 13.0719 8.30784 13.0973H8.08533C7.91605 13.0738 7.75812 12.9987 7.63298 12.8823C7.50783 12.7659 7.42153 12.6138 7.3858 12.4467V4.90687H1.15234C0.968897 4.87162 0.80345 4.77361 0.684411 4.62966C0.565372 4.4857 0.500169 4.30479 0.5 4.11799L0.5 0.802361C0.5 0.589562 0.584534 0.385479 0.735006 0.235007C0.885477 0.0845353 1.08956 1.24409e-06 1.30236 1.24409e-06H15.583C16.1043 -0.000319443 16.6237 0.0613583 17.1304 0.183735C18.1487 0.431978 19.093 0.919721 19.8847 1.60641L19.9657 1.6772C20.4856 2.14473 20.9277 2.69212 21.2754 3.29878C21.5653 3.80286 21.7859 4.34377 21.9311 4.90687C22.0702 5.44533 22.1405 5.99927 22.1401 6.55542Z" fill="#315B12"/>
</svg>
