<svg width="15" height="15" viewBox="0 0 15 15" fill="none" xmlns="http://www.w3.org/2000/svg">
<path d="M7.50008 0C3.36452 0 0 3.36447 0 7.49998C0 11.6355 3.36452 15 7.50008 15C11.6356 15 15.0001 11.6355 15.0001 7.49998C15.0001 3.36447 11.6356 0 7.50008 0Z" fill="#60AE1E"/>
<path d="M10.7445 4.62188L6.29146 9.075L4.2555 7.03904C4.0154 6.79899 3.62619 6.79899 3.38609 7.03904C3.14604 7.27913 3.14604 7.66835 3.38609 7.90844L5.85676 10.3791C5.97681 10.4991 6.13413 10.5592 6.29146 10.5592C6.44879 10.5592 6.60612 10.4991 6.72616 10.3791L11.6139 5.49134C11.854 5.25124 11.854 4.86203 11.6139 4.62193C11.3738 4.38183 10.9846 4.38183 10.7445 4.62188Z" fill="#FDFFFC"/>
</svg>
