<svg width="31" height="28" viewBox="0 0 31 28" fill="none" xmlns="http://www.w3.org/2000/svg">
<path d="M0.664038 23.0326C0.84383 23.8915 1.12701 24.7071 1.65018 25.4244C2.68881 26.849 4.07699 27.673 5.8425 27.6792C12.3984 27.704 18.9545 27.7061 25.5109 27.6854C27.8698 27.6854 30.0712 25.8074 30.5404 23.4868C30.8274 22.0669 30.5952 20.7484 29.8799 19.5057C26.7146 14.0087 23.5493 8.51171 20.384 3.01472C19.6448 1.72946 18.6132 0.81561 17.1856 0.391573C15.0073 -0.25454 12.5697 0.478238 11.2617 2.4808C10.23 4.06011 9.3527 5.73072 8.40666 7.36651C6.11335 11.335 3.82415 15.3071 1.53907 19.2829C1.1197 19.9894 0.822527 20.7619 0.660158 21.5679L0.664038 23.0326ZM15.6863 25.1923H6.23371C5.8926 25.2039 5.55156 25.1674 5.22056 25.0839C3.52295 24.6003 2.51982 22.5475 3.58082 20.7198C6.75381 15.2517 9.91007 9.77273 13.0496 4.28296C13.2958 3.85505 13.5844 3.46429 13.9933 3.17799C15.4324 2.17206 17.2975 2.64098 18.2072 4.2226C20.7115 8.57645 23.2188 12.9293 25.7292 17.2811C26.4507 18.5346 27.1799 19.7835 27.8767 21.051C28.2409 21.7141 28.2679 22.4384 28.0495 23.158C27.6745 24.396 26.6282 25.1838 25.3442 25.1869C22.1249 25.1985 18.9056 25.1923 15.6863 25.1923Z" fill="#3F622E"/>
<path d="M17.2498 10.6141C17.2621 9.51529 16.7914 8.81811 16.0151 8.63085C15.8036 8.58207 15.5842 8.57782 15.3709 8.61837C15.1576 8.65891 14.955 8.74336 14.7759 8.86639C14.5968 8.98942 14.4451 9.14837 14.3303 9.33318C14.2156 9.51798 14.1402 9.72464 14.1092 9.94011C14.0498 10.3433 14.1022 10.7402 14.1246 11.1364C14.2234 12.9385 14.3461 14.7399 14.4557 16.5413C14.4703 16.7734 14.4603 17.0102 14.4649 17.2447C14.4788 17.9581 14.9695 18.4688 15.6463 18.475C16.323 18.4812 16.8038 17.9891 16.8447 17.2679C16.9372 15.484 17.0365 13.701 17.1425 11.9187C17.1703 11.4289 17.222 10.9437 17.2498 10.6141Z" fill="#3F622E"/>
<path d="M15.657 19.4819C14.7835 19.4819 14.1191 20.1551 14.1137 21.052C14.1091 21.9186 14.8182 22.6405 15.6631 22.632C16.5081 22.6235 17.2412 21.8745 17.2304 21.0465C17.2243 20.6312 17.0562 20.2348 16.7621 19.9423C16.4679 19.6498 16.0712 19.4845 15.657 19.4819Z" fill="#3F622E"/>
</svg>
