<svg width="25" height="31" viewBox="0 0 25 31" fill="none" xmlns="http://www.w3.org/2000/svg">
<path d="M12.627 30.7784C15.301 30.7784 17.9758 30.7784 20.6514 30.7784C21.6945 30.773 22.6933 30.355 23.4308 29.6153C24.1682 28.8755 24.5848 27.8738 24.5898 26.8278C24.5898 22.9811 24.5898 19.1347 24.5898 15.2888C24.5819 14.2425 24.1637 13.2414 23.4256 12.5019C22.6874 11.7624 21.6887 11.3439 20.6453 11.3369C20.0663 11.3369 20.1062 11.4036 20.1062 10.8048C20.1062 9.92107 20.1062 9.03737 20.1062 8.15366C20.0748 4.49641 17.2678 1.33253 13.6473 0.851282C11.757 0.588421 9.83805 1.0612 8.28443 2.17257C6.73081 3.28394 5.66037 4.94957 5.29294 6.82749C5.19711 7.29581 5.14811 7.77255 5.14668 8.25063C5.14668 9.11373 5.14668 9.97682 5.14668 10.8399C5.14668 11.3357 5.14668 11.3357 4.66314 11.3369C3.76897 11.3311 2.8988 11.6267 2.19226 12.1763C1.48571 12.7259 0.98377 13.4975 0.767017 14.3675C0.697338 14.6285 0.661167 14.8973 0.659414 15.1675C0.659414 19.0975 0.659414 23.0275 0.659414 26.9563C0.659414 28.9565 2.47877 30.7724 4.47579 30.7772C7.19449 30.7833 9.91074 30.7784 12.627 30.7784ZM12.621 13.4147H20.3927C20.7034 13.4147 21.0128 13.4147 21.309 13.5359C22.1745 13.9153 22.5481 14.6123 22.5505 15.5179C22.5586 19.2078 22.5586 22.8978 22.5505 26.5878C22.5505 27.9018 21.7139 28.7298 20.3987 28.7322C15.216 28.7379 10.0333 28.7379 4.85054 28.7322C3.52081 28.7322 2.69515 27.8994 2.69274 26.5636C2.68548 22.8938 2.68548 19.2244 2.69274 15.5554C2.68743 15.2535 2.73569 14.9531 2.83534 14.6681C3.06744 14.039 3.70696 13.3953 4.75262 13.4038C7.37703 13.428 9.99659 13.4147 12.621 13.4147ZM12.627 11.3357C10.9346 11.3357 9.24954 11.3357 7.56077 11.3357C7.30329 11.3357 7.21863 11.2545 7.22226 10.9975C7.23556 10.2387 7.2283 9.47982 7.22226 8.72219C7.20389 8.21356 7.23589 7.70436 7.31776 7.20206C7.58059 5.90231 8.30874 4.74398 9.36478 3.94561C10.4208 3.14725 11.7317 2.76407 13.0501 2.86839C15.7966 3.08538 17.998 5.39829 18.0149 8.15608C18.0209 9.0919 18.0077 10.0265 18.0222 10.9611C18.0222 11.2412 17.9508 11.3394 17.6595 11.3369C15.9828 11.3285 14.3049 11.3357 12.627 11.3357Z" fill="#3F622E"/>
<path d="M11.2379 22.3357C11.2379 22.6678 11.2379 23 11.2379 23.3321C11.2379 23.948 11.5836 24.3613 12.1856 24.4462C12.5139 24.4982 12.8488 24.4908 13.1745 24.4244C13.4113 24.3803 13.6249 24.2537 13.7776 24.0669C13.9302 23.8801 14.0121 23.6451 14.0086 23.4037C14.0171 22.7297 14.0158 22.0545 14.0086 21.3805C14.0005 21.1945 14.0607 21.0121 14.1778 20.8677C14.4394 20.5351 14.5871 20.1268 14.5988 19.7033C14.6106 19.2799 14.4859 18.8639 14.2431 18.5172C14.0078 18.1789 13.6725 17.9232 13.2845 17.7862C12.8964 17.6491 12.4753 17.6377 12.0805 17.7535C11.6727 17.8661 11.3126 18.1088 11.0548 18.4451C10.7969 18.7813 10.6554 19.1926 10.6516 19.6167C10.628 20.0471 10.7621 20.4714 11.0288 20.8095C11.1055 20.8992 11.1637 21.0032 11.2 21.1155C11.2363 21.2279 11.25 21.3464 11.2403 21.4641C11.2258 21.7538 11.2367 22.0448 11.2379 22.3357Z" fill="#3F622E"/>
</svg>
