<svg width="31" height="31" viewBox="0 0 31 31" fill="none" xmlns="http://www.w3.org/2000/svg">
<g clip-path="url(#clip0_2770_3765)">
<path d="M14.7133 0.971191H16.5906C16.6269 0.984716 16.6643 0.994927 16.7024 1.0017C18.077 1.15151 19.3897 1.65372 20.5132 2.45969C22.8269 4.1281 24.0683 6.38471 24.17 9.25377C24.1973 10.0242 24.1864 10.7947 24.1919 11.5651C24.1919 11.7904 24.2521 11.9234 24.5047 11.9617C25.1105 12.0435 25.6656 12.3437 26.0655 12.8059C26.4655 13.2681 26.6829 13.8605 26.6769 14.4717C26.6816 15.3321 26.6878 16.1926 26.6769 17.0467C26.6722 17.3345 26.777 17.4198 27.0523 17.4135C27.7156 17.3995 28.382 17.4089 29.043 17.4135C30.1115 17.4135 30.6957 18.2544 30.677 19.0561C30.6379 20.694 30.6676 22.3335 30.6637 23.9722C30.6716 24.3469 30.5367 24.7107 30.2863 24.9896C30.0358 25.2685 29.6886 25.4417 29.3152 25.474C28.5557 25.5522 27.7946 25.499 27.0343 25.5053C26.7684 25.5053 26.6745 25.5999 26.6777 25.8666C26.6902 26.727 26.6855 27.5875 26.6777 28.4424C26.6698 29.8777 25.5669 30.9759 24.1301 30.9759C18.4816 30.9759 12.8332 30.9759 7.18478 30.9759C5.72913 30.9759 4.63014 29.8808 4.62389 28.426C4.62389 27.5773 4.61372 26.7286 4.62389 25.8799C4.62858 25.5968 4.52847 25.4998 4.25079 25.5053C3.61722 25.5178 2.98312 25.5178 2.34851 25.5053C1.43961 25.4896 0.984375 25.1689 0.658203 24.3375V18.536C0.9789 17.7241 1.589 17.3807 2.4455 17.4057C3.03996 17.4229 3.63521 17.4096 4.22967 17.4057C4.60903 17.4057 4.62076 17.3948 4.62076 17.0052C4.62076 16.1378 4.61451 15.2696 4.62076 14.4021C4.63359 13.8215 4.84525 13.2629 5.22037 12.8196C5.59549 12.3763 6.11137 12.0751 6.68183 11.9664C7.10342 11.8882 7.10186 11.8882 7.10656 11.4681C7.11673 10.4357 7.05023 9.39847 7.19494 8.37303C7.60011 5.49145 9.10191 3.35295 11.6338 1.93719C12.5928 1.40452 13.6339 1.12137 14.7133 0.971191ZM15.6793 18.4977H2.38918C1.84165 18.4977 1.71025 18.622 1.70868 19.1649C1.70556 20.687 1.70556 22.2091 1.70868 23.7313C1.70868 24.2835 1.85574 24.4266 2.40327 24.4266H28.8959C29.4435 24.4266 29.5905 24.2835 29.5921 23.732C29.5952 22.2198 29.5952 20.7076 29.5921 19.1954C29.5921 18.615 29.4693 18.4977 28.8819 18.4977H15.6793ZM15.6402 25.5037C12.4708 25.5037 9.30111 25.5037 6.13116 25.5037C5.90511 25.5037 5.70175 25.4935 5.70644 25.8244C5.71896 26.7317 5.70644 27.6391 5.71661 28.5456C5.72521 29.1557 6.19531 29.7322 6.78351 29.8542C7.024 29.8948 7.268 29.9108 7.51172 29.9019C12.9349 29.9019 18.3581 29.9019 23.7812 29.9019C23.9275 29.9019 24.0738 29.9019 24.22 29.8918C25.039 29.8339 25.5826 29.2613 25.5896 28.4361C25.5975 27.6266 25.5896 26.817 25.5896 26.0074C25.5896 25.5037 25.5896 25.5029 25.089 25.5029L15.6402 25.5037ZM15.6402 17.4088H25.1829C25.574 17.4088 25.5857 17.3963 25.5865 17.0178C25.5865 16.1785 25.5912 15.3392 25.5865 14.4999C25.5802 13.6066 24.9686 12.9957 24.0714 12.995C18.4506 12.995 12.8298 12.995 7.20902 12.995C6.33062 12.995 5.7166 13.6105 5.70956 14.4858C5.70331 15.2852 5.70956 16.0854 5.70956 16.8856C5.70956 17.4057 5.70956 17.4065 6.2172 17.4065L15.6402 17.4088ZM15.6473 11.9109C16.9937 11.9109 18.3398 11.9109 19.6857 11.9109C20.0682 11.9109 20.0885 11.8897 20.0909 11.5198C20.0909 11.1881 20.0956 10.8565 20.0909 10.5248C20.0823 9.94053 20.1307 9.35154 20.0471 8.77272C19.7436 6.68037 17.8272 4.91732 15.4267 5.01823C13.2061 5.11131 11.2748 6.98543 11.2138 9.2084C11.1919 9.97807 11.2036 10.7493 11.2036 11.5198C11.2036 11.8905 11.2263 11.9109 11.6096 11.9109C12.9581 11.9119 14.305 11.9119 15.6504 11.9109H15.6473ZM21.1765 10.0977C21.1765 10.7532 21.1765 11.1928 21.1765 11.6308C21.1765 11.8076 21.2344 11.9101 21.4268 11.9093C21.9149 11.9093 22.4022 11.9093 22.8903 11.9093C23.0467 11.9093 23.125 11.8311 23.125 11.6746C23.1179 10.5053 23.1969 9.32807 22.9959 8.17044C22.3068 4.20006 18.575 1.47961 14.5717 2.11006C11.443 2.60205 9.41557 4.45662 8.47694 7.47195C8.04987 8.84547 8.20005 10.2761 8.1844 11.6864C8.1844 11.871 8.30251 11.9109 8.45739 11.9109C8.75931 11.9109 9.06203 11.9109 9.36473 11.9109C10.2494 11.903 10.1109 12.011 10.1305 11.1514C10.15 10.2651 10.0523 9.37422 10.2048 8.49192C10.6256 6.05853 12.6249 4.21961 15.1326 3.94741C17.4791 3.69164 19.8359 5.11209 20.7643 7.32646C21.1625 8.29011 21.2203 9.29288 21.1765 10.0977Z" fill="#315B12"/>
<path d="M23.164 20.4545C23.1749 20.6751 23.0537 20.8229 22.8878 20.9402C22.7048 21.0701 22.5187 21.1945 22.3294 21.3149C22.1729 21.4143 22.1823 21.5003 22.3294 21.5957C22.5179 21.7177 22.7064 21.8398 22.8878 21.9712C23.178 22.1816 23.2508 22.507 23.0732 22.7588C22.8957 23.0107 22.6039 23.0529 22.2965 22.8676C22.1714 22.7893 22.0486 22.7111 21.9304 22.6251C21.774 22.5101 21.688 22.5156 21.6958 22.7401C21.6998 22.8471 21.6896 22.9541 21.6653 23.0584C21.6418 23.1848 21.5715 23.2977 21.4684 23.3746C21.3653 23.4514 21.237 23.4866 21.1091 23.473C20.8424 23.4581 20.6547 23.268 20.6117 22.9872C20.589 22.8402 20.6899 22.6235 20.5335 22.5617C20.4036 22.5101 20.2738 22.701 20.1424 22.7745C20.0915 22.8026 20.0454 22.8394 19.9953 22.8691C19.677 23.0576 19.3696 23.0052 19.2022 22.7362C19.0348 22.4671 19.113 22.1839 19.4032 21.9774C19.5941 21.8421 19.7896 21.7138 19.9859 21.5863C20.1228 21.4972 20.1275 21.4174 19.9859 21.3259C19.781 21.1937 19.5745 21.0631 19.3789 20.9184C19.0981 20.7111 19.0387 20.406 19.2155 20.1526C19.3922 19.8992 19.6754 19.8577 19.9679 20.0282C20.1189 20.1166 20.2644 20.2159 20.4083 20.3161C20.5522 20.4162 20.614 20.3693 20.6078 20.2019C20.6078 20.1236 20.6078 20.0454 20.6078 19.9672C20.632 19.6543 20.8362 19.4408 21.1193 19.4259C21.3829 19.4126 21.5972 19.6066 21.6794 19.8906C21.7255 20.047 21.5816 20.3004 21.7811 20.3466C21.9023 20.3739 22.0744 20.1854 22.2214 20.0916C22.5452 19.8835 22.7901 19.8726 22.995 20.065C23.0509 20.1128 23.0952 20.1727 23.1245 20.2402C23.1537 20.3077 23.1672 20.381 23.164 20.4545Z" fill="#315B12"/>
<path d="M17.6617 20.4775C17.6766 20.6598 17.5702 20.8068 17.413 20.9203C17.2307 21.0509 17.0469 21.1799 16.8561 21.2965C16.6793 21.4036 16.6621 21.4936 16.8467 21.6094C17.0313 21.7251 17.2245 21.8518 17.4052 21.9833C17.6813 22.1851 17.7509 22.5026 17.5843 22.7506C17.4177 22.9985 17.115 23.0541 16.8115 22.8742C16.6849 22.8007 16.5627 22.72 16.4454 22.6325C16.2366 22.476 16.1787 22.5542 16.1928 22.778C16.1963 22.8266 16.1963 22.8755 16.1928 22.9242C16.163 23.2723 15.9511 23.4811 15.6351 23.4718C15.3363 23.4655 15.1376 23.2566 15.1094 22.9195C15.0727 22.487 15.0735 22.4878 14.7074 22.7295C14.612 22.7972 14.5127 22.8593 14.4102 22.9156C14.2942 22.98 14.1582 22.9985 14.0293 22.9673C13.9003 22.9362 13.7878 22.8577 13.714 22.7474C13.6415 22.6361 13.6129 22.5017 13.6339 22.3705C13.6548 22.2392 13.7238 22.1205 13.8274 22.0372C14.0285 21.8834 14.2373 21.74 14.4532 21.6078C14.637 21.4913 14.6221 21.4021 14.4454 21.2949C14.2467 21.1721 14.0543 21.0423 13.8642 20.9038C13.7459 20.8235 13.6641 20.6996 13.6369 20.5592C13.6096 20.4188 13.639 20.2733 13.7187 20.1545C13.8806 19.9198 14.1661 19.8573 14.4438 20.0114C14.5713 20.0818 14.6863 20.1741 14.813 20.246C14.8912 20.2922 14.964 20.4087 15.0641 20.3532C15.1423 20.3078 15.0961 20.192 15.1055 20.1076C15.111 20.0497 15.1055 19.9902 15.1134 19.9324C15.1564 19.6289 15.3832 19.4185 15.6609 19.4239C15.9386 19.4294 16.1302 19.6336 16.1928 19.9206C16.2256 20.07 16.0887 20.2976 16.2858 20.3493C16.3891 20.3766 16.544 20.2038 16.6769 20.1232C16.7651 20.0632 16.8583 20.0108 16.9554 19.9668C17.3089 19.826 17.6617 20.0708 17.6617 20.4775Z" fill="#315B12"/>
<path d="M8.13738 22.4469C8.1337 22.3636 8.15147 22.2807 8.189 22.2062C8.22653 22.1317 8.28254 22.0681 8.3517 22.0214C8.4526 21.9432 8.55976 21.8759 8.66458 21.8047C9.23557 21.4223 9.23636 21.4919 8.67709 21.118C8.5801 21.0523 8.48077 20.9905 8.38769 20.9193C8.11471 20.7089 8.05213 20.3992 8.22655 20.1504C8.40098 19.9017 8.6857 19.8563 8.97902 20.0292C9.12138 20.1137 9.25904 20.2059 9.39358 20.3029C9.56175 20.4242 9.61103 20.364 9.60712 20.1817C9.60284 20.0749 9.61203 19.9679 9.63449 19.8634C9.65851 19.7371 9.72692 19.6236 9.82734 19.5434C9.92777 19.4632 10.0536 19.4216 10.182 19.4261C10.455 19.4402 10.6592 19.6451 10.692 19.9384C10.7468 20.4156 10.7468 20.4156 11.1652 20.1387C11.5837 19.8618 11.8895 19.8634 12.0882 20.1535C12.2869 20.4437 12.1727 20.7558 11.7519 21.039C11.1316 21.4551 11.1324 21.4551 11.7425 21.865C11.8422 21.9266 11.9362 21.997 12.0233 22.0754C12.1131 22.1625 12.1691 22.2788 12.1812 22.4034C12.1932 22.5279 12.1607 22.6528 12.0893 22.7555C12.0178 22.8583 11.9122 22.9324 11.7913 22.9646C11.6703 22.9967 11.5419 22.9849 11.4288 22.9311C11.257 22.8384 11.0918 22.7338 10.9345 22.6182C10.778 22.5111 10.6842 22.5032 10.6998 22.7332C10.7045 22.8014 10.7045 22.8699 10.6998 22.9381C10.6764 23.2557 10.4792 23.4606 10.1898 23.4716C9.90043 23.4825 9.69393 23.2964 9.62119 22.9905C9.58521 22.8427 9.72522 22.6104 9.51716 22.565C9.40766 22.5416 9.25748 22.7113 9.12607 22.7919C9.04552 22.8465 8.96108 22.8951 8.87342 22.9374C8.79295 22.9756 8.70395 22.9923 8.6151 22.9859C8.52624 22.9794 8.44056 22.9501 8.36642 22.9007C8.29229 22.8513 8.23222 22.7835 8.19207 22.704C8.15193 22.6245 8.13309 22.5359 8.13738 22.4469Z" fill="#315B12"/>
<path d="M3.16428 19.9223C3.44978 19.9466 3.64454 20.1382 3.86043 20.2822C4.03407 20.3987 4.12245 20.4026 4.10681 20.1601C4.10448 20.1116 4.10605 20.0629 4.11151 20.0147C4.14592 19.6486 4.36962 19.4147 4.67468 19.4257C4.97973 19.4366 5.18154 19.6713 5.19014 20.0514C5.19014 20.1101 5.19014 20.1687 5.19014 20.2266C5.19014 20.3831 5.24489 20.423 5.38099 20.3307C5.54212 20.2211 5.70091 20.1069 5.87064 20.0115C6.13346 19.8629 6.41035 19.92 6.57461 20.1421C6.61788 20.1956 6.64987 20.2573 6.66866 20.3235C6.68745 20.3897 6.69266 20.459 6.68397 20.5273C6.67527 20.5955 6.65285 20.6613 6.61807 20.7207C6.58328 20.7801 6.53683 20.8318 6.48153 20.8727C6.27415 21.0346 6.05766 21.1846 5.8331 21.3217C5.68292 21.4195 5.67666 21.4985 5.8331 21.5978C6.03881 21.7284 6.24375 21.8606 6.43929 22.0061C6.7068 22.2056 6.76312 22.4973 6.59573 22.7492C6.42834 23.001 6.13659 23.062 5.85031 22.8947C5.69387 22.8024 5.53744 22.6944 5.38569 22.592C5.25115 22.5028 5.18936 22.5388 5.19014 22.6976C5.19014 22.7953 5.19014 22.8931 5.18466 22.9901C5.17582 23.1146 5.12317 23.2319 5.03606 23.3212C4.94894 23.4106 4.833 23.4662 4.70878 23.4782C4.58457 23.4902 4.46012 23.4578 4.35751 23.3868C4.25491 23.3158 4.18077 23.2107 4.14827 23.0902C4.14257 23.0615 4.13473 23.0333 4.1248 23.0057C4.0544 22.8642 4.20302 22.6146 4.01452 22.5771C3.89719 22.5521 3.73761 22.7281 3.59682 22.8117C3.44038 22.9087 3.28395 23.0222 3.08449 22.9838C2.98182 22.9701 2.8856 22.926 2.80823 22.8572C2.73085 22.7883 2.67587 22.6978 2.65038 22.5974C2.61762 22.4937 2.61918 22.3823 2.65484 22.2795C2.69049 22.1768 2.75832 22.0883 2.84827 22.0272C3.05946 21.8708 3.27925 21.7245 3.5014 21.5837C3.64454 21.493 3.64375 21.4218 3.5014 21.3303C3.27378 21.1809 3.04147 21.0354 2.82637 20.8688C2.73399 20.802 2.66746 20.7054 2.63797 20.5953C2.60848 20.4851 2.61783 20.3682 2.66446 20.2642C2.75363 20.0405 2.93353 19.9364 3.16428 19.9223Z" fill="#315B12"/>
<path d="M26.6259 23.473C26.1496 23.473 25.6724 23.473 25.1961 23.473C24.8504 23.473 24.6102 23.2563 24.6055 22.9599C24.6009 22.6775 24.8167 22.4444 25.1531 22.4304C26.1551 22.3897 27.157 22.3834 28.1582 22.4304C28.4946 22.4476 28.6846 22.6783 28.6659 22.9841C28.6487 23.2736 28.4414 23.4644 28.1183 23.4683C27.6193 23.4801 27.125 23.473 26.6259 23.473Z" fill="#315B12"/>
<path d="M6.61711 15.1913C6.61711 14.9566 6.6085 14.722 6.61711 14.4873C6.63197 14.1666 6.79466 13.9703 7.11144 13.9398C7.64352 13.8807 8.1805 13.8807 8.71258 13.9398C9.03171 13.9781 9.19285 14.2003 9.16938 14.5069C9.14748 14.7885 8.95193 14.9676 8.63984 14.9762C8.4263 14.984 8.21198 14.9864 7.99844 14.9762C7.7849 14.966 7.69261 15.0505 7.70043 15.2656C7.71021 15.4796 7.70864 15.694 7.69573 15.9078C7.67383 16.2559 7.45169 16.4866 7.15681 16.4874C6.86192 16.4882 6.6304 16.241 6.61397 15.8828C6.61397 15.864 6.61397 15.8444 6.61397 15.8249V15.1827L6.61711 15.1913Z" fill="#315B12"/>
</g>
<defs>
<clipPath id="clip0_2770_3765">
<rect width="30.0117" height="30" fill="white" transform="translate(0.660156 0.97168)"/>
</clipPath>
</defs>
</svg>
