<svg width="31" height="31" viewBox="0 0 31 31" fill="none" xmlns="http://www.w3.org/2000/svg">
<g clip-path="url(#clip0_2770_3741)">
<path d="M30.6602 15.3395C30.6602 7.06699 23.9402 0.354492 15.6602 0.354492C7.38016 0.354492 0.660156 7.06699 0.660156 15.3395C0.660156 19.8957 2.73016 24.002 5.97016 26.7582C6.00016 26.7882 6.03016 26.7882 6.03016 26.8182C6.30016 27.0282 6.57016 27.2382 6.87016 27.4482C7.02016 27.5382 7.14016 27.6564 7.29016 27.7764C9.76903 29.4571 12.6952 30.3552 15.6902 30.3545C18.6851 30.3552 21.6113 29.4571 24.0902 27.7764C24.2402 27.6864 24.3602 27.5682 24.5102 27.4764C24.7802 27.2682 25.0802 27.0582 25.3502 26.8482C25.3802 26.8182 25.4102 26.8182 25.4102 26.7882C28.5902 24.0001 30.6602 19.8957 30.6602 15.3395ZM15.6602 28.4664C12.8402 28.4664 10.2602 27.5664 8.13016 26.0682C8.16016 25.8282 8.22016 25.5901 8.28016 25.3501C8.45892 24.6997 8.72109 24.0751 9.06016 23.492C9.39016 22.922 9.78016 22.412 10.2602 21.962C10.7102 21.512 11.2502 21.0939 11.7902 20.7639C12.3602 20.4339 12.9602 20.1939 13.6202 20.0139C14.2853 19.8346 14.9713 19.7444 15.6602 19.7457C17.7051 19.7313 19.675 20.5157 21.1502 21.932C21.8402 22.622 22.3802 23.432 22.7702 24.3601C22.9802 24.9001 23.1302 25.4701 23.2202 26.0682C21.0061 27.6248 18.3666 28.4621 15.6602 28.4664ZM11.0702 14.5914C10.8058 13.9862 10.6729 13.3317 10.6802 12.6714C10.6802 12.0132 10.8002 11.3532 11.0702 10.7532C11.3402 10.1532 11.7002 9.61512 12.1502 9.16512C12.6002 8.71512 13.1402 8.35699 13.7402 8.08699C14.3402 7.81699 15.0002 7.69699 15.6602 7.69699C16.3502 7.69699 16.9802 7.81699 17.5802 8.08699C18.1802 8.35699 18.7202 8.71699 19.1702 9.16512C19.6202 9.61512 19.9802 10.1551 20.2502 10.7532C20.5202 11.3532 20.6402 12.0132 20.6402 12.6714C20.6402 13.3614 20.5202 13.9914 20.2502 14.5895C19.9896 15.1806 19.6236 15.7194 19.1702 16.1795C18.7099 16.6323 18.1711 16.9976 17.5802 17.2576C16.3405 17.7671 14.9499 17.7671 13.7102 17.2576C13.1192 16.9976 12.5804 16.6323 12.1202 16.1795C11.6661 15.7261 11.3088 15.187 11.0702 14.5914ZM24.9902 24.5401C24.9902 24.4801 24.9602 24.4501 24.9602 24.3901C24.6651 23.4515 24.2302 22.5628 23.6702 21.7539C23.1096 20.939 22.4206 20.2203 21.6302 19.6257C21.0265 19.1716 20.3721 18.789 19.6802 18.4857C19.9949 18.2781 20.2866 18.0373 20.5502 17.7676C20.9974 17.3261 21.3902 16.8326 21.7202 16.2976C22.3846 15.206 22.7277 13.9492 22.7102 12.6714C22.7194 11.7255 22.5357 10.7876 22.1702 9.91512C21.8093 9.07444 21.2898 8.31116 20.6402 7.66699C19.9915 7.02955 19.2281 6.5206 18.3902 6.16699C17.5162 5.8021 16.5771 5.61901 15.6302 5.62887C14.683 5.6196 13.7439 5.80334 12.8702 6.16887C12.025 6.52172 11.2597 7.04146 10.6202 7.69699C9.98273 8.34497 9.47377 9.10778 9.12016 9.94512C8.75462 10.8176 8.57088 11.7555 8.58016 12.7014C8.58016 13.3614 8.67016 13.9914 8.85016 14.5895C9.03016 15.2195 9.27016 15.7895 9.60016 16.3276C9.90016 16.8676 10.3202 17.3476 10.7702 17.7976C11.0402 18.0676 11.3402 18.3057 11.6702 18.5157C10.9761 18.8271 10.3215 19.2199 9.72016 19.6857C8.94016 20.2857 8.25016 21.0039 7.68016 21.7839C7.11439 22.5894 6.67906 23.4791 6.39016 24.4201C6.36016 24.4801 6.36016 24.5401 6.36016 24.5701C3.99016 22.172 2.52016 18.9357 2.52016 15.3395C2.52016 8.11699 8.43016 2.21262 15.6602 2.21262C22.8902 2.21262 28.8002 8.11699 28.8002 15.3395C28.7962 18.7894 27.4264 22.0974 24.9902 24.5401Z" fill="#3F622E"/>
</g>
<defs>
<clipPath id="clip0_2770_3741">
<rect width="30" height="30" fill="white" transform="translate(0.660156 0.354492)"/>
</clipPath>
</defs>
</svg>
