<svg width="147" height="54" viewBox="0 0 147 54" fill="none" xmlns="http://www.w3.org/2000/svg">
<g clip-path="url(#clip0_464_1679)">
<path d="M140.854 0H6.05155C2.79984 0 0.163818 2.6187 0.163818 5.84904V47.5343C0.163818 50.7647 2.79984 53.3834 6.05155 53.3834H140.854C144.106 53.3834 146.742 50.7647 146.742 47.5343V5.84904C146.742 2.6187 144.106 0 140.854 0Z" fill="white"/>
<path d="M3.21021 8.96996C3.50931 8.11862 3.93111 7.31486 4.46245 6.58379C5.06303 5.83073 5.82958 5.22464 6.70306 4.81221C7.57655 4.39978 8.53366 4.19201 9.5007 4.20489H137.405C138.235 4.18506 139.06 4.33242 139.831 4.63808C140.601 4.94373 141.302 5.40134 141.89 5.9833C142.478 6.56526 142.941 7.2595 143.251 8.02413C143.561 8.78877 143.713 9.60794 143.695 10.4322V43.4458C143.695 46.5813 142.231 48.6401 139.302 49.7459C139.17 49.7968 139.038 49.8696 138.906 49.9278H7.94822C6.82408 49.6017 5.80074 48.9995 4.97266 48.1769C4.14459 47.3543 3.53845 46.3377 3.21021 45.2209V8.96996ZM73.3943 48.32C94.5725 48.32 115.751 48.32 136.929 48.32C140.144 48.32 142.004 46.4795 142.011 43.3003V11.0579C142.011 7.70413 140.18 5.87812 136.819 5.87812H9.95473C6.7033 5.87812 4.8286 7.7405 4.8286 10.9706V43.1257C4.8286 46.5522 6.62274 48.3418 10.0646 48.3418C31.1794 48.337 52.2892 48.3297 73.3943 48.32Z" fill="#030303"/>
<path d="M12.7668 29.2597C12.7302 24.451 14.1655 21.3737 17.7025 19.4676C18.5002 19.0346 19.3776 18.7657 20.2822 18.6769C21.1869 18.5882 22.1002 18.6814 22.9678 18.9511C23.5829 19.1257 24.1981 19.3294 24.7986 19.5549C25.4978 19.8362 26.2463 19.9766 27.0006 19.9678C27.7549 19.9591 28.5 19.8014 29.1924 19.504C31.155 18.6965 33.1542 18.3037 35.2485 19.0311C36.6255 19.5342 37.8628 20.3544 38.8588 21.4246C39.203 21.7811 39.1957 22.0211 38.749 22.3049C34.0988 25.2585 34.941 31.9296 39.5252 34.0902C39.8547 34.243 40.1916 34.3958 39.9719 34.8614C38.727 37.5094 37.277 40.0193 34.9703 41.9181C34.3812 42.4432 33.6447 42.7769 32.8594 42.8744C32.074 42.9719 31.2775 42.8286 30.5764 42.4637C29.4946 41.9116 28.2959 41.6236 27.0797 41.6236C25.8635 41.6236 24.6648 41.9116 23.5829 42.4637C21.5764 43.3876 19.6431 42.8929 18.0614 41.1105C14.7513 37.4512 12.84 33.2536 12.7668 29.2597Z" fill="#030303"/>
<path d="M62.6148 28.0157C63.0689 27.7029 63.4057 27.4337 63.7719 27.2154C64.3139 26.893 64.9147 26.6801 65.5397 26.589C66.1648 26.4978 66.8018 26.5302 67.4142 26.6844C68.0266 26.8385 68.6023 27.1113 69.1083 27.4871C69.6143 27.8628 70.0405 28.3342 70.3626 28.8741C71.0218 29.9761 71.3661 31.2358 71.3583 32.5177C71.3506 33.7995 70.9911 35.055 70.3187 36.149C70.0006 36.7073 69.5738 37.1971 69.0632 37.5897C68.5526 37.9824 67.9683 38.27 67.3446 38.436C66.7208 38.6019 66.0701 38.6427 65.4303 38.5561C64.7904 38.4695 64.1744 38.2571 63.6181 37.9314C62.9883 37.5895 62.8858 37.7568 62.8858 38.3679C62.8858 39.561 62.8858 40.7468 62.8858 41.9399C62.8858 42.5583 62.6808 42.8202 62.0144 42.8056C60.0298 42.762 60.2495 42.9656 60.2422 41.1033C60.2422 36.6292 60.2422 32.1624 60.1982 27.6956C60.1982 26.9681 60.3886 26.7644 61.077 26.808C61.7654 26.8517 62.7393 26.648 62.6148 28.0157ZM62.8785 32.6498C62.8785 32.9699 62.8785 33.2827 62.8785 33.6028C62.8556 34.2954 63.0961 34.9711 63.552 35.4955C64.008 36.0199 64.646 36.3545 65.339 36.4328C66.0123 36.497 66.6872 36.3278 67.2492 35.9538C67.8112 35.5799 68.2256 35.0242 68.422 34.3812C68.7864 33.238 68.7864 32.0107 68.422 30.8675C68.2575 30.276 67.9089 29.7515 67.4263 29.3686C66.9436 28.9858 66.3514 28.7643 65.7345 28.7359C65.1189 28.7624 64.5268 28.9783 64.0401 29.3536C63.5534 29.7289 63.1961 30.2452 63.0176 30.8311C62.8835 31.4275 62.8366 32.0401 62.8785 32.6498Z" fill="#030303"/>
<path d="M75.0784 37.4951C75.0784 39.0955 75.0784 40.5142 75.0784 41.9328C75.0784 42.5366 74.932 42.8276 74.2509 42.8349C72.4861 42.8349 72.5007 42.8931 72.4861 41.118C72.4861 36.5857 72.5886 32.0534 72.4055 27.5284C72.4055 27.0337 72.5739 26.8009 73.0573 26.8518C73.2035 26.8628 73.3504 26.8628 73.4966 26.8518C74.661 26.8518 74.661 26.8518 74.9613 27.9795C75.4486 27.5456 75.9992 27.1875 76.5943 26.9173C77.1813 26.6717 77.8116 26.5444 78.4485 26.543C79.0855 26.5416 79.7164 26.666 80.3045 26.909C80.8926 27.1521 81.4262 27.5088 81.8742 27.9586C82.3222 28.4084 82.6757 28.9422 82.9141 29.529C83.3925 30.5816 83.6095 31.7329 83.5471 32.8862C83.4847 34.0394 83.1445 35.1609 82.5553 36.1565C82.2238 36.7369 81.7753 37.2431 81.2377 37.6432C80.7001 38.0434 80.0852 38.3289 79.4313 38.4819C78.7775 38.6349 78.0989 38.652 77.438 38.5323C76.7772 38.4126 76.1484 38.1585 75.591 37.7861L75.0784 37.4951ZM75.0784 32.6354C75.0784 33.0937 75.0784 33.5666 75.1517 34.0176C75.2306 34.6109 75.4974 35.1638 75.9133 35.5966C76.3292 36.0295 76.8729 36.3198 77.4657 36.4256C78.0575 36.5123 78.6616 36.4078 79.189 36.1275C79.7164 35.8472 80.1392 35.406 80.395 34.8688C80.7368 34.1591 80.9143 33.3822 80.9143 32.5954C80.9143 31.8086 80.7368 31.0317 80.395 30.322C80.1931 29.848 79.8529 29.4449 79.4182 29.1648C78.9836 28.8847 78.4744 28.7405 77.9564 28.7506C77.4411 28.7448 76.9348 28.8846 76.4966 29.1538C76.0583 29.4231 75.7062 29.8105 75.4812 30.2711C75.1358 31.0092 74.9918 31.8246 75.0638 32.6354H75.0784Z" fill="#030303"/>
<path d="M52.6774 22.5522C54.098 22.5522 54.098 22.5522 54.5594 23.8836C56.1021 28.394 57.6497 32.8996 59.2022 37.4004C59.5171 38.3243 59.4805 38.4116 58.4699 38.3898C56.4634 38.3388 56.8735 38.6662 56.273 36.8256C55.9727 35.9454 55.6505 35.0724 55.3722 34.1848C55.3382 33.9992 55.2328 33.8339 55.0784 33.724C54.924 33.614 54.7327 33.568 54.5447 33.5956C53.2852 33.5956 52.0329 33.5956 50.7734 33.5956C50.5867 33.5722 50.3981 33.6212 50.2468 33.7322C50.0954 33.8433 49.9929 34.008 49.9605 34.1921C49.6529 35.167 49.3234 36.1273 49.0012 37.1021C48.5545 38.4407 48.5545 38.4407 47.1704 38.4116C45.9109 38.4116 45.9035 38.3752 46.299 37.1967C47.8124 32.7444 49.3332 28.2922 50.8612 23.8399C51.2787 22.5522 51.2787 22.5522 52.6774 22.5522ZM52.6334 25.8914C52.0476 27.6447 51.5203 29.2379 50.9784 30.8311C50.8027 31.3258 50.9784 31.4568 51.4617 31.4495C52.2526 31.4495 53.0435 31.4495 53.8271 31.4495C54.2811 31.4495 54.4862 31.304 54.3104 30.8093C53.7539 29.2015 53.2266 27.6447 52.6334 25.8696V25.8914Z" fill="#030303"/>
<path d="M93.8988 22.3559C94.8626 22.2975 95.8271 22.4592 96.7182 22.8287C97.2601 23.047 97.4505 23.3525 97.2162 23.8982C97.1129 24.1341 97.0272 24.3772 96.9599 24.6256C96.828 25.1422 96.5791 25.2731 96.0738 25.0185C95.2024 24.5925 94.2279 24.4185 93.2617 24.5165C92.7732 24.5096 92.2962 24.6646 91.9063 24.9571C91.5164 25.2496 91.2357 25.6628 91.1087 26.1316C90.8891 26.9973 91.2845 27.8048 92.339 28.3941C93.0713 28.7942 93.8842 29.0779 94.6458 29.4489C96.1104 30.1764 97.4285 30.9548 97.8459 32.6717C98.0105 33.2402 98.0607 33.8352 97.9937 34.4229C97.9267 35.0106 97.7438 35.5795 97.4554 36.097C97.1671 36.6145 96.779 37.0704 96.3132 37.4389C95.8475 37.8073 95.3132 38.081 94.741 38.2443C92.766 38.823 90.6473 38.6758 88.7727 37.8296C88.2967 37.6332 88.0404 37.3349 88.304 36.8111C88.393 36.5954 88.4592 36.3711 88.5017 36.1419C88.6409 35.4144 88.9192 35.2179 89.6295 35.6253C90.7171 36.2172 91.9671 36.4467 93.1958 36.2801C93.6813 36.2647 94.1494 36.0964 94.5324 35.7996C94.9154 35.5028 95.1936 35.0927 95.3268 34.6287C95.4779 34.1342 95.4474 33.6026 95.2409 33.1283C95.0344 32.6541 94.6652 32.268 94.1991 32.0388C93.6105 31.7167 93.0041 31.4277 92.383 31.1731C91.9582 30.9767 91.5188 30.8166 91.1087 30.5984C89.0876 29.5144 88.1795 27.8339 88.5457 25.906C88.7623 24.9328 89.2944 24.057 90.0603 23.4131C90.8263 22.7692 91.7837 22.3926 92.7857 22.3413C93.1665 22.3195 93.5327 22.3559 93.8988 22.3559Z" fill="#030303"/>
<path d="M105.169 32.6644C105.169 28.3504 108.787 25.615 112.851 26.8445C115.048 27.521 116.329 29.3761 116.549 32.1261C116.667 33.1045 116.53 34.0966 116.153 35.008C115.776 35.9194 115.17 36.7197 114.394 37.3329C113.617 37.9461 112.696 38.3518 111.717 38.5113C110.738 38.6708 109.734 38.5789 108.801 38.2443C106.568 37.5095 105.176 35.3634 105.169 32.6644ZM110.859 28.685C110.428 28.6664 109.999 28.7584 109.615 28.9521C109.23 29.1457 108.902 29.4346 108.662 29.7908C108.146 30.6003 107.863 31.5347 107.843 32.4928C107.824 33.4508 108.069 34.3958 108.552 35.2252C108.784 35.6048 109.108 35.9208 109.495 36.1442C109.881 36.3677 110.318 36.4916 110.765 36.5046C111.211 36.5176 111.655 36.4193 112.053 36.2187C112.452 36.0182 112.794 35.7216 113.049 35.3561C113.591 34.5293 113.879 33.5638 113.879 32.5771C113.879 31.5904 113.591 30.6249 113.049 29.7981C112.808 29.4441 112.481 29.1564 112.098 28.9618C111.715 28.7671 111.289 28.6719 110.859 28.685Z" fill="#030303"/>
<path d="M129.994 33.2246C128.94 33.2246 127.892 33.2246 126.838 33.2246C126.289 33.2246 126.106 33.3846 126.237 33.9521C126.384 34.6724 126.784 35.3177 127.364 35.7732C127.945 36.2288 128.669 36.4651 129.408 36.4401C130.315 36.4749 131.22 36.3467 132.081 36.0618C132.455 35.9381 132.887 35.7563 132.945 36.3528C133.004 36.9494 133.722 37.5895 132.85 37.946C130.155 39.03 126.318 39.0227 124.531 36.2437C122.744 33.4647 123.484 29.318 125.996 27.5138C126.721 26.97 127.582 26.6343 128.486 26.5432C129.39 26.4522 130.302 26.6092 131.122 26.9973C132.879 27.7684 133.604 29.3107 133.81 31.1003C134.051 33.2319 134.015 33.2391 131.891 33.2391H129.965L129.994 33.2246ZM128.779 31.2167C129.394 31.2167 130.009 31.2167 130.624 31.2167C131.239 31.2167 131.356 30.9694 131.232 30.4092C131.118 29.8775 130.821 29.4021 130.391 29.0648C129.962 28.7275 129.428 28.5494 128.881 28.5614C128.293 28.595 127.731 28.8132 127.275 29.1844C126.82 29.5557 126.495 30.061 126.347 30.6274C126.259 31.0712 126.45 31.2167 126.853 31.2167H128.779Z" fill="#030303"/>
<path d="M99.7572 32.4316C99.7572 31.4568 99.7572 30.5838 99.7572 29.7181C99.7572 29.1215 99.5815 28.8233 98.959 28.9033C98.1096 29.0197 98.029 28.525 98.0143 27.8557C97.9997 27.1864 98.2194 26.7426 99.0103 26.8518C99.5961 26.9318 99.7426 26.6335 99.7426 26.1243C99.7426 25.7096 99.5302 25.1494 99.9989 24.9239C100.633 24.6336 101.299 24.4187 101.983 24.2837C102.32 24.211 102.262 24.5602 102.291 24.7784C102.379 25.455 101.961 26.3061 102.533 26.7645C103.104 27.2228 103.836 26.8954 104.503 26.8736C105.169 26.8518 105.235 27.3174 105.198 27.7975C105.162 28.2777 105.411 28.9324 104.539 28.9324H104.276C102.291 28.9833 102.291 28.9833 102.291 30.9257C102.291 32.1406 102.291 33.3628 102.291 34.5632C102.335 36.0909 102.694 36.3892 104.21 36.3164C104.554 36.3164 104.993 36.1855 104.942 36.7166C104.891 37.2476 105.403 38.0988 104.525 38.3898C102.569 39.03 100.065 38.5135 99.7939 35.8217C99.7133 34.6432 99.7572 33.4647 99.7572 32.4316Z" fill="#030303"/>
<path d="M120.262 27.9648C120.588 27.5671 120.992 27.2385 121.448 26.9986C121.905 26.7587 122.405 26.6122 122.92 26.568C123.557 26.568 123.938 26.7426 123.879 27.4555C123.861 27.7171 123.861 27.9796 123.879 28.2412C123.923 28.8087 123.74 29.0706 123.089 29.0633C122.465 29.0148 121.848 29.2119 121.369 29.6122C120.891 30.0124 120.591 30.5835 120.533 31.2021C120.196 33.13 120.467 35.0869 120.372 37.0221C120.372 37.4586 120.628 38.0696 120.093 38.2806C119.448 38.488 118.754 38.488 118.109 38.2806C117.691 38.1715 117.831 37.7568 117.831 37.4513C117.831 34.8129 117.831 32.1697 117.831 29.5216C117.831 29.1142 117.831 28.7068 117.831 28.3067C117.713 26.8517 117.435 26.8081 119.295 26.8517C119.947 26.859 119.947 26.8663 120.262 27.9648Z" fill="#030303"/>
<path d="M32.5537 12.3673C32.4776 13.9499 31.8735 15.4623 30.8366 16.6662C29.7998 17.8701 28.3892 18.697 26.8271 19.0166C26.0948 19.133 25.8092 18.9439 25.7945 18.1873C25.736 15.1682 28.7238 11.7199 31.7702 11.3561C32.7441 11.2543 32.5025 11.9308 32.5537 12.3673Z" fill="#030303"/>
<path d="M45.8816 15.532C45.8816 14.579 45.8816 13.6187 45.8816 12.6657C45.8816 12.1492 46.0427 11.8291 46.6139 11.7855C47.9459 11.6027 49.3015 11.6918 50.5976 12.0474C51.2413 12.2309 51.8109 12.6104 52.226 13.1324C52.6412 13.6545 52.881 14.2927 52.9117 14.9573C53.0582 16.536 52.6261 17.9255 51.1615 18.7548C49.6969 19.5842 48.0785 19.5551 46.4601 19.4241C45.9402 19.3878 45.8962 19.0095 45.8962 18.6093C45.8816 17.569 45.8816 16.5505 45.8816 15.532ZM47.251 15.532C47.251 16.2595 47.251 16.987 47.251 17.7145C47.251 18.0128 47.3023 18.2674 47.6611 18.3838C48.4262 18.5995 49.2456 18.5123 49.9474 18.1407C50.6493 17.769 51.1789 17.1417 51.4251 16.3905C52.1574 13.5605 50.107 12.513 47.7636 12.7021C47.3096 12.7385 47.2144 13.0658 47.2144 13.4296L47.251 15.532Z" fill="#030303"/>
<path d="M62.5855 17.8017C63.0102 16.6086 63.3691 15.6192 63.7206 14.6007C63.8597 14.2152 63.9842 13.8369 64.5334 13.8732C65.0827 13.9096 65.2145 14.237 65.3463 14.6007C65.6905 15.5828 66.02 16.5722 66.4374 17.7944C66.8182 16.5868 67.1258 15.6119 67.448 14.5935C67.5578 14.2661 67.6164 13.866 68.0778 13.866C68.5391 13.866 68.9932 13.866 68.7442 14.5935C68.2096 16.0484 67.6823 17.5034 67.1697 18.9584C67.1201 19.1103 67.0215 19.2418 66.8891 19.3325C66.7568 19.4233 66.598 19.4682 66.4374 19.4604C66.262 19.4733 66.0878 19.4231 65.9466 19.3189C65.8054 19.2147 65.7067 19.0635 65.6685 18.8929C65.3097 17.889 64.9362 16.8778 64.4968 15.6483C64.0867 16.7468 63.7645 17.6489 63.4057 18.5583C63.2446 18.973 63.1713 19.4677 62.5196 19.4749C61.8678 19.4822 61.7873 18.973 61.6042 18.5146C61.1868 17.2706 60.7694 16.0412 60.3666 14.7972C60.2714 14.5062 59.9419 14.0697 60.5131 13.946C60.9598 13.8296 61.3845 13.8805 61.5456 14.4552C61.8019 15.3792 62.0875 16.2885 62.3658 17.2124C62.4097 17.2925 62.4756 17.4598 62.5855 17.8017Z" fill="#030303"/>
<path d="M96.1981 14.1861C96.1981 13.415 96.1981 12.7311 96.1981 12.04C96.1981 11.5672 96.3885 11.3562 96.8792 11.3635C97.3698 11.3707 97.4943 11.6035 97.4943 12.0182C97.4943 14.288 97.4943 16.5529 97.4943 18.813C97.4943 19.0603 97.4504 19.2931 97.1574 19.3513C96.8645 19.4095 96.535 19.4677 96.3812 19.1476C96.2274 18.8275 96.0956 18.9221 95.8539 19.0385C94.4479 19.766 93.1884 19.5768 92.3462 18.602C91.9251 18.057 91.6926 17.3914 91.6834 16.7044C91.6742 16.0175 91.8887 15.3459 92.2949 14.79C93.0272 13.7496 94.3454 13.4732 95.7661 14.0625L96.1981 14.1861ZM96.1981 16.5941C96.1981 15.3647 95.6635 14.7172 94.653 14.739C94.1832 14.7726 93.7461 14.9897 93.4372 15.3429C93.1284 15.6961 92.9731 16.1565 93.0053 16.6232C92.9859 16.8622 93.0169 17.1026 93.0964 17.329C93.1758 17.5554 93.3019 17.7629 93.4666 17.9382C93.6313 18.1134 93.831 18.2526 94.0529 18.3469C94.2749 18.4412 94.5141 18.4884 94.7555 18.4856C95.6562 18.4711 96.1908 17.7727 96.1908 16.5941H96.1981Z" fill="#030303"/>
<path d="M123.147 14.3753C123.484 14.1861 123.674 14.0624 123.879 13.9679C124.187 13.7964 124.533 13.7033 124.885 13.6967C125.238 13.6902 125.587 13.7704 125.901 13.9303C126.215 14.0902 126.484 14.3248 126.685 14.6131C126.885 14.9015 127.011 15.2346 127.05 15.5829C127.168 16.6481 127.195 17.7214 127.131 18.7911C127.131 19.2422 126.867 19.3949 126.457 19.3877C126.047 19.3804 125.835 19.1622 125.842 18.7402C125.842 17.9545 125.842 17.1761 125.842 16.3904C125.842 15.2992 125.359 14.7536 124.553 14.7681C123.748 14.7826 123.169 15.4083 123.154 16.4195C123.154 17.1979 123.154 17.9836 123.154 18.7693C123.154 19.2058 122.949 19.3949 122.517 19.3877C122.085 19.3804 121.851 19.2276 121.851 18.7766C121.851 16.5165 121.851 14.254 121.851 11.9891C121.851 11.5599 122.049 11.3707 122.488 11.3634C122.927 11.3562 123.162 11.6035 123.154 12.0909C123.14 12.782 123.147 13.5023 123.147 14.3753Z" fill="#030303"/>
<path d="M56.683 19.475C56.2968 19.5056 55.9084 19.4539 55.5439 19.3231C55.1795 19.1924 54.8474 18.9858 54.57 18.717C54.2925 18.4483 54.0762 18.1238 53.9354 17.7651C53.7946 17.4065 53.7327 17.0221 53.7538 16.6378C53.746 15.8448 54.0557 15.0812 54.6146 14.515C55.1736 13.9488 55.936 13.6264 56.7343 13.6187C57.5325 13.611 58.3011 13.9186 58.8711 14.4738C59.441 15.0291 59.7656 15.7866 59.7733 16.5796C59.7806 16.9768 59.7043 17.3712 59.5492 17.7374C59.3941 18.1037 59.1637 18.4336 58.8728 18.7063C58.5818 18.9789 58.2367 19.1881 57.8596 19.3204C57.4825 19.4528 57.0818 19.5055 56.683 19.475ZM58.3453 16.6014C58.3453 15.452 57.7229 14.7317 56.7269 14.7245C55.731 14.7172 55.0426 15.452 55.0353 16.6232C55.0083 16.8627 55.0329 17.1052 55.1073 17.3346C55.1817 17.564 55.3043 17.7751 55.467 17.9539C55.6297 18.1327 55.8287 18.2752 56.051 18.3719C56.2732 18.4685 56.5136 18.5172 56.7562 18.5147C57.7229 18.5001 58.3453 17.7436 58.3453 16.6014Z" fill="#030303"/>
<path d="M85.0598 16.5359C85.0804 16.9272 85.0172 17.3183 84.8744 17.6836C84.7317 18.0488 84.5126 18.3798 84.2317 18.6548C83.9507 18.9298 83.6143 19.1425 83.2445 19.2788C82.8748 19.4152 82.4802 19.4721 82.0867 19.4459C81.6995 19.4748 81.3104 19.4243 80.9437 19.2977C80.5769 19.1711 80.2403 18.9709 79.9547 18.7096C79.669 18.4484 79.4404 18.1316 79.2832 17.7789C79.1259 17.4263 79.0432 17.0453 79.0403 16.6596C79.0331 16.2657 79.1066 15.8745 79.2562 15.5097C79.4057 15.1448 79.6283 14.814 79.9104 14.5371C80.1925 14.2603 80.5283 14.0432 80.8973 13.8991C81.2663 13.755 81.661 13.6868 82.0574 13.6987C82.4481 13.6631 82.842 13.7109 83.2126 13.8389C83.5833 13.9668 83.9221 14.172 84.2064 14.4407C84.4907 14.7094 84.714 15.0353 84.8611 15.3966C85.0083 15.758 85.0761 16.1464 85.0598 16.5359ZM83.727 16.6305C83.7543 16.3991 83.734 16.1647 83.6672 15.9415C83.6005 15.7182 83.4887 15.5107 83.3386 15.3318C83.1886 15.1528 83.0035 15.006 82.7946 14.9003C82.5856 14.7947 82.3572 14.7324 82.1233 14.7172C81.8816 14.7175 81.6425 14.7673 81.4211 14.8636C81.1996 14.9599 81.0006 15.1005 80.8363 15.2766C80.672 15.4528 80.5461 15.6607 80.4664 15.8874C80.3867 16.1141 80.3549 16.3547 80.3731 16.5941C80.3509 16.8264 80.3753 17.0608 80.4448 17.2837C80.5143 17.5067 80.6276 17.7137 80.778 17.8929C80.9285 18.0722 81.1132 18.22 81.3214 18.328C81.5297 18.4359 81.7574 18.5019 81.9915 18.5219C82.2336 18.5209 82.4729 18.4699 82.6942 18.3722C82.9154 18.2746 83.1139 18.1323 83.2771 17.9546C83.4402 17.7768 83.5644 17.5673 83.6418 17.3394C83.7193 17.1115 83.7483 16.8701 83.727 16.6305Z" fill="#030303"/>
<path d="M104.151 19.4749C103.769 19.5001 103.387 19.4447 103.028 19.3123C102.669 19.1799 102.343 18.9736 102.071 18.707C101.798 18.4404 101.585 18.1194 101.447 17.7653C101.308 17.4111 101.246 17.0318 101.266 16.6523C101.266 15.8612 101.582 15.1025 102.145 14.5432C102.708 13.9838 103.472 13.6696 104.268 13.6696C105.064 13.6696 105.828 13.9838 106.391 14.5432C106.954 15.1025 107.271 15.8612 107.271 16.6523C107.268 17.0461 107.183 17.4351 107.022 17.7948C106.861 18.1545 106.626 18.4771 106.333 18.7423C106.04 19.0074 105.695 19.2094 105.319 19.3355C104.944 19.4616 104.546 19.5091 104.151 19.4749ZM102.584 16.6523C102.584 17.7944 103.214 18.5147 104.188 18.5147C104.429 18.5142 104.668 18.4631 104.888 18.3646C105.108 18.2661 105.305 18.1226 105.465 17.9433C105.626 17.764 105.746 17.5531 105.819 17.3243C105.891 17.0956 105.914 16.8542 105.887 16.6159C105.887 15.4592 105.235 14.7099 104.217 14.7171C103.199 14.7244 102.569 15.4446 102.577 16.6523H102.584Z" fill="#030303"/>
<path d="M108.354 16.5287C108.354 15.8594 108.354 15.1974 108.354 14.5281C108.354 13.8588 108.816 13.5896 109.336 13.9679C109.856 14.3462 110.002 14.1134 110.346 13.9679C112.097 13.2404 113.59 14.1862 113.656 16.0486C113.656 16.9143 113.656 17.7873 113.656 18.653C113.656 19.0895 113.568 19.3805 113.041 19.3805C112.514 19.3805 112.309 19.1186 112.309 18.653C112.309 17.8382 112.309 17.0234 112.309 16.2159C112.309 15.2556 111.826 14.7609 111.035 14.7609C110.844 14.7618 110.656 14.8025 110.482 14.8803C110.308 14.9581 110.153 15.0713 110.026 15.2126C109.899 15.3539 109.803 15.52 109.745 15.7004C109.686 15.8807 109.667 16.0712 109.687 16.2595C109.687 17.0743 109.687 17.8891 109.687 18.6966C109.687 19.1477 109.504 19.4241 109.006 19.4241C108.508 19.4241 108.318 19.1913 108.318 18.733C108.318 18.0055 108.318 17.278 108.318 16.5505L108.354 16.5287Z" fill="#030303"/>
<path d="M90.6548 17.3725C90.6548 17.809 90.6548 18.2455 90.6548 18.682C90.6548 19.3367 90.2448 19.6423 89.7248 19.264C89.2049 18.8857 89.0511 19.1257 88.7216 19.264C88.3431 19.4246 87.9305 19.4896 87.5206 19.4531C87.1293 19.4748 86.7426 19.3603 86.4271 19.1292C86.1116 18.8982 85.8872 18.5651 85.7923 18.1873C85.7233 17.7968 85.7902 17.3946 85.9818 17.0469C86.1735 16.6992 86.4785 16.4266 86.8469 16.274C87.414 16.0477 88.0107 15.9031 88.619 15.8447C88.8461 15.8084 89.2268 15.9029 89.2415 15.5247C89.246 15.3575 89.1924 15.1939 89.0897 15.0614C88.987 14.9289 88.8415 14.8356 88.6776 14.7972C88.1366 14.6551 87.5651 14.6779 87.0373 14.8626C86.7517 14.9572 86.4661 15.0736 86.305 14.6735C86.1438 14.2734 86.4294 14.0915 86.7517 13.9824C87.5524 13.6861 88.4277 13.6529 89.2488 13.8878C90.2814 14.2006 90.5743 15.0372 90.6256 15.9902C90.6256 16.4486 90.6256 16.9142 90.6256 17.3798L90.6548 17.3725ZM88.7142 16.6886C87.7476 16.6886 87.1105 17.1397 87.1251 17.7435C87.1398 18.3473 87.5133 18.5292 88.0478 18.5219C88.3834 18.5318 88.7093 18.4097 88.9547 18.1822C89.2001 17.9547 89.3453 17.6402 89.3587 17.307C89.3733 16.7978 89.1316 16.6304 88.7142 16.6886Z" fill="#030303"/>
<path d="M131.459 16.8778C131.019 16.8778 130.58 16.8778 130.148 16.8778C129.482 16.8778 129.467 17.2124 129.723 17.6489C129.95 17.9918 130.278 18.2569 130.662 18.408C131.046 18.559 131.467 18.5886 131.869 18.4928C132.159 18.4615 132.448 18.4154 132.733 18.3546C132.79 18.3384 132.85 18.3346 132.908 18.3436C132.967 18.3526 133.023 18.374 133.072 18.4065C133.122 18.439 133.163 18.4818 133.195 18.5318C133.226 18.5819 133.246 18.6381 133.253 18.6965C133.276 18.7506 133.286 18.8092 133.283 18.8678C133.28 18.9264 133.264 18.9837 133.236 19.0353C133.208 19.087 133.169 19.1317 133.121 19.1662C133.073 19.2007 133.018 19.2242 132.96 19.2348C131.678 19.6059 130.397 19.7077 129.262 18.8784C128.804 18.5285 128.471 18.0434 128.309 17.4929C128.147 16.9424 128.165 16.3551 128.361 15.8156C128.514 15.182 128.887 14.6225 129.415 14.2364C129.943 13.8502 130.592 13.6623 131.246 13.7059C131.824 13.6989 132.384 13.8988 132.825 14.2689C133.266 14.6389 133.559 15.1545 133.648 15.7211C133.831 16.6522 133.648 16.8632 132.704 16.8778H131.459ZM130.99 15.9466C131.105 15.9576 131.22 15.9576 131.334 15.9466C131.671 15.8811 132.22 16.1576 132.286 15.6338C132.352 15.11 131.905 14.8408 131.422 14.6953C131.226 14.6358 131.019 14.6226 130.817 14.6567C130.614 14.6908 130.423 14.7713 130.258 14.8917C129.972 15.0809 129.621 15.3355 129.716 15.7065C129.811 16.0775 130.258 15.9102 130.558 15.9539C130.702 15.9587 130.846 15.9563 130.99 15.9466Z" fill="#030303"/>
<path d="M75.0639 17.2562C75.0639 17.7509 75.0639 18.2383 75.0639 18.7111C75.0639 19.184 74.9247 19.3732 74.4634 19.3659C74.002 19.3586 73.7311 19.1767 73.7311 18.6966C73.7311 17.8527 73.7311 17.0161 73.7311 16.1722C73.7311 15.1974 73.2624 14.7172 72.4715 14.7172C72.2815 14.7183 72.0939 14.7588 71.9206 14.8361C71.7473 14.9135 71.5923 15.026 71.4654 15.1665C71.3385 15.3069 71.2426 15.4722 71.1838 15.6517C71.125 15.8311 71.1047 16.0208 71.1241 16.2086C71.1241 17.0234 71.1241 17.8382 71.1241 18.6457C71.1241 19.0967 70.9556 19.3732 70.4577 19.3732C69.9597 19.3732 69.8279 19.1185 69.8279 18.6457C69.8279 17.2562 69.8279 15.8594 69.8279 14.4699C69.8279 13.8515 70.2526 13.575 70.8018 13.917C70.9181 14.0157 71.0625 14.0758 71.2148 14.0888C71.3672 14.1019 71.5198 14.0672 71.6513 13.9897C73.5919 13.1386 75.0565 14.077 75.0932 16.1722C75.0712 16.5578 75.0639 16.907 75.0639 17.2562Z" fill="#030303"/>
<path d="M119.918 19.475C118.739 19.475 118.277 19.0822 118.087 18.0782C117.998 17.2715 117.971 16.4592 118.006 15.6484C118.006 15.241 118.05 14.8263 117.457 14.7463C117.127 14.6954 117.018 14.2371 117.186 14.157C117.794 13.8733 117.918 13.1822 118.387 12.8476C118.856 12.5129 119.383 12.3965 119.346 13.2913C119.346 13.8006 119.654 13.8297 120.035 13.837C120.416 13.8442 120.804 13.7788 120.826 14.288C120.848 14.7972 120.423 14.7972 120.093 14.7754C119.442 14.7245 119.288 15.0591 119.317 15.6193C119.346 16.1795 119.317 16.6596 119.317 17.1834C119.317 17.9109 119.376 18.5584 120.379 18.4711C120.628 18.4711 120.738 18.6093 120.767 18.8421C120.796 19.0749 120.73 19.3222 120.459 19.395C120.281 19.4336 120.1 19.4603 119.918 19.475Z" fill="#030303"/>
<path d="M77.876 15.3574C77.876 16.4559 77.876 17.5399 77.876 18.6602C77.876 19.0967 77.7735 19.3877 77.2536 19.3877C76.7336 19.3877 76.6018 19.104 76.6018 18.6602C76.6018 16.4777 76.6018 14.2589 76.6018 12.0618C76.6018 11.5599 76.8069 11.3344 77.3341 11.3344C77.8614 11.3344 77.876 11.7417 77.876 12.12V15.3356V15.3574Z" fill="#030303"/>
</g>
<defs>
<clipPath id="clip0_464_1679">
<rect width="146.578" height="53.3834" fill="white" transform="translate(0.163818)"/>
</clipPath>
</defs>
</svg>
