<svg width="33" height="37" viewBox="0 0 33 37" fill="none" xmlns="http://www.w3.org/2000/svg">
<path d="M16.664 36.8H15.9522C15.4744 36.629 14.9908 36.4658 14.5169 36.2849C11.1493 35.0109 8.11658 32.9855 5.6496 30.3629C3.652 28.2493 2.17543 25.8408 1.41649 23.0154C0.666689 20.1098 0.267345 17.125 0.226978 14.1245C0.175051 11.4041 0.306424 8.68339 0.620207 5.9807C0.692955 5.32008 1.01344 4.96813 1.67603 4.78135C6.37381 3.47059 11.0729 2.16703 15.7733 0.870687C16.1103 0.77996 16.4649 0.776573 16.8036 0.860853C21.5223 2.15589 26.2411 3.46665 30.9598 4.79315C31.6047 4.97207 31.9311 5.3535 31.9822 6.02003C32.1139 7.71288 32.2771 9.40769 32.3459 11.1025C32.4973 14.8873 32.2771 18.6447 31.3629 22.3371C30.8399 24.433 30.0593 26.409 28.7695 28.1687C26.2726 31.6014 22.8837 34.2851 18.9702 35.929C18.2211 36.2417 17.4367 36.5032 16.664 36.8ZM15.0163 19.1303L14.8531 19.1539C14.8011 19.0356 14.7351 18.9241 14.6565 18.8216C13.4336 17.5908 12.2067 16.3626 10.9759 15.137C10.3723 14.5374 9.73526 14.5472 9.12772 15.137C8.78364 15.4713 8.44547 15.8134 8.10925 16.1575C7.51941 16.765 7.50958 17.4079 8.10925 18.0057C10.0754 19.9823 12.0501 21.9556 14.0333 23.9257C14.6231 24.5156 15.2759 24.5156 15.8559 23.9375C19.1013 20.6973 22.3442 17.4545 25.5844 14.209C26.1506 13.6428 26.1447 12.988 25.5844 12.408C25.2914 12.1052 24.9945 11.8182 24.6898 11.5115C23.9033 10.725 23.341 10.725 22.5624 11.4997C20.1244 13.9377 17.6864 16.3764 15.2483 18.8157C15.1619 18.9114 15.0842 19.0147 15.0163 19.1244V19.1303Z" fill="#40642E"/>
</svg>
