<svg width="45" height="36" viewBox="0 0 45 36" fill="none" xmlns="http://www.w3.org/2000/svg">
<path d="M22.309 29.0715C20.7825 29.0216 19.275 28.7178 17.8483 28.1725C17.6333 28.1046 17.4005 28.1211 17.1972 28.2187C16.3174 28.6759 15.4581 29.1717 14.5912 29.6546C14.1905 29.8781 13.7769 30.0977 13.3415 29.7689C12.9061 29.4401 12.8843 28.9983 12.9947 28.5102C13.2028 27.5906 13.38 26.6646 13.6061 25.7501C13.6462 25.6322 13.6521 25.5052 13.623 25.384C13.5939 25.2629 13.531 25.1524 13.4417 25.0656C11.7296 23.1531 10.7972 20.8952 10.5274 18.3573C10.2299 15.6571 10.8778 12.9372 12.3607 10.6611C13.8437 8.38495 16.0699 6.69336 18.6601 5.87449C24.0544 4.14701 29.9279 6.38824 32.6507 11.2573C36.3754 17.9103 33.1799 26.9112 24.8751 28.7453C24.0365 28.9251 23.1656 28.9598 22.309 29.0715ZM28.3455 19.3784C28.6379 19.3812 28.9279 19.3265 29.1991 19.2172C29.4702 19.1079 29.7172 18.9462 29.9258 18.7414C30.1344 18.5366 30.3007 18.2926 30.415 18.0235C30.5292 17.7544 30.5894 17.4655 30.5919 17.1731C30.5899 16.5814 30.3549 16.0143 29.9378 15.5946C29.5208 15.1749 28.9552 14.9363 28.3635 14.9306C27.7745 14.9277 27.2085 15.1589 26.79 15.5733C26.3715 15.9877 26.1348 16.5514 26.1319 17.1404C26.129 17.7293 26.3602 18.2953 26.7746 18.7138C27.189 19.1323 27.7527 19.3691 28.3417 19.3719L28.3455 19.3784ZM22.3244 19.3784C22.7638 19.3804 23.1939 19.252 23.5604 19.0095C23.9268 18.7669 24.213 18.4211 24.3828 18.0158C24.5526 17.6105 24.5984 17.164 24.5143 16.7327C24.4302 16.3014 24.22 15.9047 23.9104 15.5929C23.6007 15.2811 23.2055 15.0682 22.7748 14.9811C22.3441 14.894 21.8972 14.9366 21.4908 15.1036C21.0843 15.2706 20.7365 15.5544 20.4915 15.9192C20.2464 16.2839 20.115 16.7131 20.114 17.1526C20.1112 17.4442 20.1666 17.7335 20.2767 18.0036C20.3869 18.2737 20.5497 18.5192 20.7557 18.7257C20.9616 18.9323 21.2066 19.0958 21.4764 19.2067C21.7461 19.3177 22.0353 19.3738 22.327 19.3719L22.3244 19.3784ZM16.3315 19.3784C16.6237 19.3795 16.9132 19.3221 17.1829 19.2096C17.4526 19.0972 17.6971 18.9319 17.902 18.7235C18.1069 18.5152 18.268 18.268 18.3759 17.9964C18.4838 17.7248 18.5363 17.4344 18.5304 17.1423C18.53 16.8495 18.4717 16.5598 18.3586 16.2897C18.2456 16.0197 18.0802 15.7748 17.8718 15.5691C17.6635 15.3634 17.4165 15.2011 17.1451 15.0915C16.8736 14.9819 16.5831 14.9272 16.2904 14.9306C15.7004 14.9394 15.1376 15.1799 14.7235 15.6002C14.3094 16.0206 14.0774 16.5869 14.0774 17.177C14.081 17.4689 14.142 17.7572 14.257 18.0255C14.372 18.2939 14.5387 18.5369 14.7477 18.7407C14.9567 18.9446 15.2038 19.1052 15.4749 19.2135C15.746 19.3219 16.0357 19.3757 16.3277 19.3719L16.3315 19.3784Z" fill="#40642E"/>
<path d="M5.70205 12.3272C6.43543 10.8373 7.01211 9.34616 7.85209 8.02326C10.7111 3.51255 14.8481 0.87959 20.1268 0.156489C28.3006 -0.962198 36.0864 4.01602 38.6423 11.9175C38.7386 12.2129 38.8401 12.3516 39.1817 12.3734C41.4422 12.5224 42.7549 13.9147 43.46 15.8977C44.5517 18.9802 44.3 21.9831 42.5532 24.7856C41.8134 25.9749 40.8052 26.9318 39.3423 27.0628C38.6372 27.1244 37.8948 26.9138 37.1871 26.7507C36.7697 26.6543 36.5449 26.7121 36.2881 27.0782C33.921 30.388 30.7653 32.5881 26.8454 33.6901C26.7079 33.7287 26.5718 33.7749 26.4254 33.8186C26.4091 33.8801 26.3975 33.9428 26.3907 34.0061C26.3342 35.4382 25.7588 35.9981 24.3434 35.9994C22.928 36.0007 21.4908 35.9994 20.0652 35.9994C19.0081 35.9994 18.3159 35.3213 18.2838 34.2745C18.2735 33.9547 18.2735 33.6323 18.2838 33.3138C18.3249 32.3685 18.9927 31.6865 19.9355 31.6608C20.769 31.6377 21.6051 31.6608 22.4348 31.6505C27.8844 31.5825 31.9507 29.1036 34.8573 24.5621C35.8295 23.044 36.1712 21.3602 36.3805 19.6186C36.4794 18.794 36.6117 17.972 36.7543 17.1526C36.9906 15.7847 36.7106 14.4631 36.3112 13.1839C34.5477 7.54034 30.746 4.04428 24.9663 2.85624C17.3179 1.28417 9.57572 6.59504 8.06273 14.2281C7.72365 15.9388 7.98438 17.5674 8.23355 19.2191C8.50198 21.0057 8.79096 22.7897 9.04013 24.5801C9.22123 25.8734 8.85518 26.4283 7.58879 26.7507C6.92863 26.9189 6.23635 27.0975 5.56719 27.0666C3.79861 26.9831 2.67222 25.8503 1.8772 24.4157C0.314119 21.5901 0.111187 18.6245 1.31336 15.6293C1.97738 13.9725 3.22578 12.8512 5.00335 12.4094C5.2339 12.3648 5.46744 12.3373 5.70205 12.3272Z" fill="#40642E"/>
</svg>
