<svg width="37" height="32" viewBox="0 0 37 32" fill="none" xmlns="http://www.w3.org/2000/svg">
<path fill-rule="evenodd" clip-rule="evenodd" d="M0.538391 4.00002C0.538391 3.04524 0.917676 2.12957 1.59281 1.45444C2.26794 0.779309 3.18361 0.400024 4.13839 0.400024H23.3384C24.2932 0.400024 25.2088 0.779309 25.884 1.45444C26.5591 2.12957 26.9384 3.04524 26.9384 4.00002V5.20002H32.9384C33.8932 5.20002 34.8088 5.57931 35.484 6.25444C36.1591 6.92957 36.5384 7.84524 36.5384 8.80002V28C36.5384 28.9548 36.1591 29.8705 35.484 30.5456C34.8088 31.2207 33.8932 31.6 32.9384 31.6H4.13839C3.18361 31.6 2.26794 31.2207 1.59281 30.5456C0.917676 29.8705 0.538391 28.9548 0.538391 28L0.538391 4.00002ZM22.1384 22H29.3384V19.6H22.1384V22Z" fill="#315B12"/>
</svg>
