<svg width="35" height="32" viewBox="0 0 35 32" fill="none" xmlns="http://www.w3.org/2000/svg">
<path d="M34.5111 10.4887C34.5141 11.9306 34.2217 13.3574 33.6524 14.6789C33.0427 16.0982 32.1307 17.3632 30.9817 18.3833C29.7266 19.5002 28.2225 20.2916 26.5988 20.6892C26.0469 20.8248 25.4848 20.9141 24.9184 20.9561H20.2617L13.7348 27.5643L11.9385 29.4165H15.8841C16.1598 29.4479 16.418 29.5689 16.6203 29.7613C16.8225 29.9537 16.9579 30.2073 17.0062 30.4841C17.0145 30.5639 17.0145 30.6444 17.0062 30.7243C17.0142 30.8023 17.0142 30.8811 17.0062 30.9591C16.963 31.2195 16.8434 31.4606 16.663 31.651C16.4826 31.8415 16.2497 31.9724 15.9948 32.0267H8.83053C8.54497 32.0009 8.27634 31.8784 8.06798 31.6789C7.85961 31.4794 7.72367 31.2145 7.68215 30.9271V23.6464C7.73138 23.3911 7.85428 23.1565 8.03528 22.9721C8.21628 22.7878 8.44722 22.662 8.69883 22.6108H8.80419H9.08868H9.19401C9.46833 22.6592 9.71962 22.7969 9.90974 23.0031C10.0999 23.2092 10.2185 23.4725 10.2476 23.7531V27.4682L11.2274 26.4807L13.7612 23.9079L16.6796 20.9561L16.9851 20.6412L17.3275 20.2942L18.3811 19.2267L19.1976 18.4047H24.144C24.9731 18.4063 25.7969 18.2711 26.583 18.0043C28.3077 17.4277 29.7795 16.2591 30.7446 14.7002C31.5207 13.4443 31.9315 11.992 31.9299 10.5101C31.9308 9.61163 31.7793 8.71969 31.4821 7.87322C31.1521 6.9269 30.6461 6.05351 29.9913 5.30041C29.7562 5.03366 29.5046 4.78228 29.238 4.54778C28.5773 3.96454 27.8239 3.4989 27.0097 3.17064L26.583 3.01584C25.796 2.75343 24.9726 2.62008 24.144 2.62084H24.0545H2.87264V5.3271H12.6866C12.9527 5.37776 13.1969 5.51065 13.3855 5.70753C13.5742 5.90441 13.698 6.15562 13.7401 6.42669V16.6645L22.3899 7.89991H18.223C17.9619 7.81053 17.735 7.64038 17.5743 7.41343C17.4137 7.18647 17.3273 6.91416 17.3275 6.63486C17.3284 6.32749 17.4336 6.0298 17.6254 5.79169C17.8173 5.55359 18.084 5.38956 18.3811 5.3271H25.4399C25.7212 5.35039 25.9868 5.46799 26.1948 5.66132C26.4028 5.85465 26.5412 6.11269 26.5883 6.39466V13.7128C26.5129 13.9952 26.3476 14.2446 26.1181 14.4222C25.8885 14.5998 25.6076 14.6957 25.3188 14.6949C25.0293 14.6917 24.7488 14.5924 24.5204 14.4121C24.292 14.2317 24.1283 13.9804 24.0545 13.6967V9.78949L19.2344 14.6575L17.3222 16.5952L16.9798 16.9421L16.4531 17.4759L15.5839 18.394L13.7348 20.2622L13.4188 20.5878C13.2131 20.7911 12.9496 20.9237 12.6655 20.9668H12.302C12.0319 20.9264 11.7809 20.802 11.5837 20.6108C11.3864 20.4195 11.2527 20.1709 11.201 19.8992V7.84119H1.36606C1.07206 7.7887 0.805559 7.63332 0.613026 7.40214C0.420493 7.17096 0.314138 6.87864 0.3125 6.57614V1.27039C0.313893 0.930136 0.44827 0.604306 0.686204 0.364211C0.924138 0.124117 1.24627 -0.0106807 1.58206 -0.0106778H24.1598C24.9815 -0.0113483 25.8002 0.0872077 26.5988 0.282902C27.4187 0.482987 28.2113 0.784144 28.9588 1.17965C29.6724 1.56197 30.3405 2.02582 30.9501 2.56213L31.0765 2.67423C31.8972 3.42293 32.5959 4.29847 33.1467 5.26839C33.6096 6.07454 33.9639 6.93982 34.2003 7.84119C34.4145 8.70674 34.5189 9.59643 34.5111 10.4887Z" fill="#2D351F"/>
</svg>
