<svg width="25" height="25" viewBox="0 0 25 25" fill="none" xmlns="http://www.w3.org/2000/svg">
<g clip-path="url(#clip0_1081_2774)">
<path d="M21.5 16.499V17.856C21.5 18.67 21.119 19.366 20.59 19.913C20.067 20.455 19.357 20.897 18.558 21.247C16.956 21.947 14.814 22.356 12.5 22.356C10.186 22.356 8.044 21.948 6.442 21.247C5.643 20.897 4.933 20.455 4.41 19.913C3.925 19.413 3.565 18.785 3.508 18.057L3.5 17.856V16.499C3.965 16.763 4.462 16.997 4.994 17.194C7.024 17.945 9.679 18.364 12.5 18.364C15.321 18.364 17.976 17.945 20.006 17.194C20.405 17.046 20.784 16.878 21.145 16.691L21.5 16.499ZM3.5 10.999C3.965 11.263 4.462 11.497 4.994 11.694C7.024 12.445 9.679 12.864 12.5 12.864C15.321 12.864 17.976 12.445 20.006 11.694C20.5221 11.5035 21.0218 11.271 21.5 10.999V14.104C20.836 14.6165 20.0983 15.0258 19.312 15.318C17.557 15.968 15.148 16.365 12.5 16.365C9.853 16.365 7.444 15.968 5.688 15.318C4.90169 15.0258 4.16403 14.6165 3.5 14.104V10.999ZM12.5 3.35596C14.814 3.35596 16.956 3.76396 18.558 4.46496C19.357 4.81496 20.067 5.25696 20.59 5.79896C21.075 6.29896 21.435 6.92696 21.492 7.65496L21.5 7.85596V8.60396C20.836 9.11653 20.0983 9.52582 19.312 9.81796C17.557 10.468 15.148 10.865 12.5 10.865C9.853 10.865 7.444 10.468 5.688 9.81796C5.01184 9.56715 4.3714 9.22895 3.783 8.81196L3.5 8.60396V7.85596C3.5 7.04196 3.881 6.34596 4.41 5.79896C4.933 5.25696 5.643 4.81496 6.442 4.46496C8.044 3.76496 10.186 3.35596 12.5 3.35596Z" fill="#3F622E"/>
</g>
<defs>
<clipPath id="clip0_1081_2774">
<rect width="24" height="24" fill="white" transform="translate(0.5 0.355957)"/>
</clipPath>
</defs>
</svg>
