<svg width="96" height="97" viewBox="0 0 96 97" fill="none" xmlns="http://www.w3.org/2000/svg">
<path d="M48.0013 0.181396C21.5338 0.181396 0.000976562 21.714 0.000976562 48.1814C0.000976562 74.6488 21.5338 96.1814 48.0013 96.1814C74.4685 96.1814 96.001 74.6488 96.001 48.1814C96.001 21.714 74.4685 0.181396 48.0013 0.181396Z" fill="#3F622E"/>
<path d="M68.611 27.9558L70.2279 29.6595L68.611 27.9558L39.3781 55.6993L26.8927 43.8503L26.8926 43.8501C24.3202 41.4093 20.1986 41.4093 17.6262 43.8501L17.6259 43.8504C14.9843 46.358 14.9843 50.4764 17.6259 52.9839L17.6261 52.9841L34.7447 69.2304L34.7451 69.2307C36.0438 70.4627 37.7264 71.0612 39.3781 71.0612C41.0298 71.0612 42.7124 70.4627 44.0111 69.2307L44.0114 69.2304L77.8777 37.09L77.8779 37.0898C80.5195 34.5823 80.5195 30.4638 77.8779 27.9563L77.8777 27.9561C75.3054 25.5149 71.1832 25.5147 68.611 27.9558Z" fill="#FDFFFC" stroke="white" stroke-width="4.71067"/>
</svg>
