<svg width="32" height="33" viewBox="0 0 32 33" fill="none" xmlns="http://www.w3.org/2000/svg">
<rect y="0.5" width="32" height="32" rx="16" fill="#ECECEC"/>
<g clip-path="url(#clip0_2047_816)">
<path opacity="0.4" d="M14.9421 13.1348L14.6487 9.84958C14.617 9.65646 14.628 9.45875 14.6804 9.2702C14.7328 9.08164 14.8257 8.90673 14.9525 8.75758C15.0794 8.60844 15.237 8.48863 15.4148 8.40646C15.5926 8.3243 15.7861 8.28174 15.982 8.28174C16.1779 8.28174 16.3717 8.3243 16.5495 8.40646C16.7273 8.48863 16.8849 8.60844 17.0118 8.75758C17.1386 8.90673 17.2315 9.08164 17.2839 9.2702C17.3363 9.45875 17.347 9.65646 17.3154 9.84958L17.0222 13.1348C17.0222 13.415 16.9107 13.6838 16.7123 13.8819C16.5139 14.0801 16.245 14.1914 15.9645 14.1914C15.6839 14.1914 15.4148 14.0801 15.2164 13.8819C15.018 13.6838 14.9065 13.415 14.9065 13.1348" fill="#FFB2B2"/>
<path d="M14.9956 24.1894L14.5422 23.7632C13.0806 22.2243 11.8797 20.458 10.9867 18.5334C10.8388 18.1933 10.7371 17.835 10.6844 17.468C10.6846 17.187 10.7516 16.91 10.8799 16.66C11.0593 16.3382 11.3409 16.0852 11.68 15.9408C11.9925 15.8461 12.3101 15.769 12.6312 15.7099C13.7498 15.5503 14.879 15.479 16.0088 15.4968C17.105 15.4876 18.2009 15.5499 19.289 15.6833C19.6906 15.7555 20.0858 15.8594 20.471 15.994C20.7344 16.1279 20.9564 16.3308 21.113 16.5811C21.2696 16.8314 21.3549 17.1196 21.3599 17.4147V17.468C21.2969 17.8801 21.1742 18.2809 20.9956 18.6577C20.0954 20.5436 18.8946 22.2708 17.44 23.7721C17.2848 23.9288 17.1183 24.0742 16.9422 24.2071C16.6699 24.4095 16.3393 24.5185 15.9999 24.5179C15.6352 24.5224 15.2792 24.407 14.9867 24.1894" fill="#FFB2B2"/>
</g>
<defs>
<clipPath id="clip0_2047_816">
<rect width="10.6667" height="16" fill="white" transform="translate(10.6667 8.5)"/>
</clipPath>
</defs>
</svg>
