<svg width="31" height="31" viewBox="0 0 31 31" fill="none" xmlns="http://www.w3.org/2000/svg">
<rect y="0.5" width="30.6667" height="30" rx="15" fill="#ECECEC"/>
<g clip-path="url(#clip0_2056_2071)">
<path opacity="0.4" d="M16.3912 18.8652L16.6844 22.1504C16.716 22.3435 16.7053 22.5412 16.6529 22.7298C16.6005 22.9183 16.5076 23.0932 16.3808 23.2424C16.2539 23.3915 16.0961 23.5113 15.9183 23.5935C15.7405 23.6757 15.5469 23.7183 15.351 23.7183C15.1551 23.7183 14.9616 23.6757 14.7838 23.5935C14.6059 23.5113 14.4481 23.3915 14.3213 23.2424C14.1945 23.0932 14.1016 22.9183 14.0492 22.7298C13.9967 22.5412 13.986 22.3435 14.0177 22.1504L14.3111 18.8652C14.3111 18.585 14.4226 18.3162 14.621 18.118C14.8194 17.9199 15.0883 17.8086 15.3688 17.8086C15.6494 17.8086 15.9185 17.9199 16.1169 18.118C16.3152 18.3162 16.4265 18.585 16.4265 18.8652" fill="#B1BCA0"/>
<path d="M16.3378 7.83742C16.3911 7.83742 16.6134 8.07715 16.7911 8.25473C18.2492 9.79642 19.4497 11.5622 20.3467 13.4845C20.4946 13.8246 20.5961 14.1829 20.6488 14.5499C20.6517 14.8313 20.5845 15.109 20.4533 15.358C20.2738 15.6797 19.9925 15.9327 19.6533 16.0771C19.342 16.176 19.0242 16.2531 18.7022 16.308C17.5843 16.4751 16.4545 16.5494 15.3243 16.53C14.2278 16.5407 13.1319 16.4754 12.0444 16.3346C11.6418 16.2667 11.2463 16.1627 10.8623 16.0239C10.5977 15.8916 10.3746 15.689 10.2178 15.4384C10.061 15.1877 9.97649 14.8988 9.97343 14.6032V14.5499C10.0377 14.1381 10.1603 13.7375 10.3378 13.3602C11.2433 11.4775 12.4436 9.75101 13.8934 8.24585C14.0486 8.08907 14.215 7.94367 14.3912 7.81078C14.6635 7.60839 14.9938 7.49937 15.3332 7.50001C15.6989 7.49871 16.055 7.61724 16.3467 7.83742" fill="#B1BCA0"/>
</g>
<defs>
<clipPath id="clip0_2056_2071">
<rect width="10.6667" height="16" fill="white" transform="translate(10 7.5)"/>
</clipPath>
</defs>
</svg>
