<svg width="71" height="71" viewBox="0 0 71 71" fill="none" xmlns="http://www.w3.org/2000/svg">
<path d="M21.9134 0.768555H52.5899C52.6063 1.08688 52.6392 1.40521 52.6392 1.72353C52.6392 6.44721 52.6392 11.1715 52.6392 15.8964C52.6392 17.7716 53.382 18.518 55.2499 18.518C60.0193 18.518 64.7906 18.5308 69.56 18.5052C70.246 18.5052 70.4546 18.6991 70.4546 19.3943C70.4363 34.5252 70.4302 49.6567 70.4363 64.7888C70.4387 65.5958 70.2816 66.3953 69.9741 67.1413C69.6665 67.8874 69.2146 68.5654 68.6442 69.1362C68.0739 69.7071 67.3963 70.1597 66.6505 70.4678C65.9047 70.776 65.1054 70.9338 64.2984 70.9322C53.8217 70.9419 43.3456 70.9419 32.8701 70.9322C32.6395 70.9322 32.3688 71.0328 32.1767 70.7821C32.2038 70.7163 32.2402 70.6547 32.2846 70.5992C32.4035 70.4912 32.5298 70.3943 32.6505 70.2955C37.5462 66.4536 40.4953 61.4848 41.3222 55.2939C41.4082 54.6517 41.6149 54.37 42.3412 54.3792C47.6137 54.4121 52.8862 54.3975 58.1569 54.3975C59.7339 54.3975 60.7566 53.5852 60.7181 52.3649C60.6797 51.1447 59.7065 50.3964 58.1569 50.3964H42.4089C41.4502 50.3964 41.4429 50.3964 41.324 49.425C41.0399 47.2039 40.4187 45.0391 39.4817 43.0054C39.0628 42.0778 39.0573 42.076 40.0507 42.076H58.1276C59.7193 42.076 60.7273 41.293 60.72 40.0636C60.7127 38.8342 59.7138 38.0713 58.113 38.0713C51.1513 38.0713 44.1902 38.075 37.2297 38.0823C36.9618 38.0926 36.6951 38.0406 36.4507 37.9304C36.2063 37.8203 35.9907 37.655 35.821 37.4475C30.9766 32.1841 24.996 29.6265 17.8227 29.9467C16.9757 29.9851 16.9189 29.9467 16.9189 29.1069C16.9189 21.6671 16.9189 14.2273 16.9189 6.78749C16.9189 4.99461 17.6636 3.52556 18.9515 2.31079C19.8059 1.5168 20.8395 1.10335 21.9134 0.768555ZM43.7023 29.7473C48.5601 29.7473 53.4174 29.7473 58.274 29.7473C59.7376 29.7473 60.7328 28.9368 60.7346 27.7495C60.7364 26.5622 59.7449 25.7554 58.2776 25.748H29.2038C27.6323 25.748 26.6078 26.564 26.6426 27.7806C26.6773 28.9972 27.6579 29.7491 29.2038 29.7491L43.7023 29.7473Z" fill="#E0E0E0"/>
<path d="M19.0356 33.8561C21.4767 33.8476 23.8954 34.3229 26.1518 35.2545C28.4082 36.1862 30.4576 37.5557 32.1816 39.284C33.9057 41.0123 35.2702 43.0651 36.1963 45.3238C37.1224 47.5825 37.5917 50.0023 37.5772 52.4434C37.5772 62.6884 29.2952 70.9045 19.0081 70.9448C8.85645 70.9869 0.402496 62.5146 0.482992 52.3135C0.508138 47.4096 2.47387 42.7151 5.95044 39.2563C9.427 35.7976 14.1316 33.856 19.0356 33.8561ZM17.0433 48.2777C17.0433 49.5803 17.025 50.8811 17.0433 52.1818C17.0671 53.5246 17.8958 54.3772 19.2387 54.3881C20.9273 54.4156 22.6158 54.4119 24.3044 54.3881C25.5631 54.3717 26.4998 53.5082 26.4998 52.405C26.4998 51.3018 25.554 50.42 24.2532 50.3926C23.4556 50.3798 22.6543 50.3597 21.8584 50.3926C21.2456 50.4237 21.0132 50.2243 21.0279 49.584C21.0645 47.8734 21.0407 46.161 21.0279 44.4487C21.0279 43.6218 20.7498 42.9229 20.0089 42.4802C18.6807 41.6825 17.0927 42.6375 17.0396 44.2968C17.0067 45.6342 17.0433 46.955 17.0433 48.2777Z" fill="#E0E0E0"/>
<path d="M62.9002 14.5152C61.0707 14.5152 59.2541 14.4987 57.4319 14.5262C56.8538 14.5262 56.6288 14.3725 56.6324 13.756C56.6562 10.0659 56.6434 6.37407 56.6489 2.68221C56.6489 2.49927 56.5556 2.21936 56.7934 2.13338C57.0313 2.04739 57.1428 2.30535 57.2819 2.44439C61.0872 6.24479 64.8894 10.0476 68.6886 13.8529C68.8386 14.0029 69.1222 14.1438 69.0051 14.4018C68.9118 14.6012 68.6392 14.5134 68.438 14.5152C66.592 14.5188 64.7461 14.5152 62.9002 14.5152Z" fill="#E0E0E0"/>
</svg>
