<svg width="27" height="25" viewBox="0 0 27 25" fill="none" xmlns="http://www.w3.org/2000/svg">
<path d="M13.6322 0.104004C6.29883 0.104004 0.298828 4.87734 0.298828 10.7707C0.332306 12.1876 0.67833 13.5796 1.31218 14.8473C1.94602 16.115 2.85204 17.2271 3.96549 18.104C3.96549 18.904 3.40549 20.9973 0.298828 24.104C3.45883 23.9573 6.48549 22.7707 8.92549 20.7707C10.4455 21.2107 12.0455 21.4373 13.6322 21.4373C20.9655 21.4373 26.9655 16.664 26.9655 10.7707C26.9655 4.87734 20.9655 0.104004 13.6322 0.104004ZM13.6322 18.7707C7.73883 18.7707 2.96549 15.184 2.96549 10.7707C2.96549 6.35734 7.73883 2.77067 13.6322 2.77067C19.5255 2.77067 24.2988 6.35734 24.2988 10.7707C24.2988 15.184 19.5255 18.7707 13.6322 18.7707Z" fill="#315B12"/>
</svg>
