<svg width="33" height="33" viewBox="0 0 33 33" fill="none" xmlns="http://www.w3.org/2000/svg">
<path d="M14.9558 0.104004H17.5768C17.6158 0.118159 17.6561 0.128624 17.6971 0.135269C19.0135 0.230105 20.3102 0.508747 21.5493 0.963079C26.5719 2.81881 29.916 6.29394 31.5815 11.3885C31.9411 12.4875 32.1201 13.6241 32.2444 14.7708V17.3926C32.1662 17.9163 32.1154 18.444 32.0169 18.963C31.2266 23.1357 29.1317 26.5141 25.7055 29.0124C22.0175 31.7022 17.873 32.6262 13.3853 31.8265C9.20487 31.0808 5.83344 28.9483 3.33516 25.5222C0.64537 21.8342 -0.346592 17.6748 0.537499 13.2051C1.7882 6.87343 5.61848 2.73048 11.7485 0.716845C12.7881 0.373684 13.8708 0.222821 14.9558 0.104004ZM16.3065 2.62808C9.08762 2.64996 2.87787 8.3344 2.82706 16.0419C2.78016 23.26 8.51464 29.4697 16.226 29.5205C23.4449 29.5682 29.6546 23.833 29.7054 16.1216C29.7523 8.90347 24.0179 2.74455 16.3065 2.62808Z" fill="#315B12"/>
<path d="M14.9951 18.4214C14.9951 17.943 14.9951 17.4646 14.9951 16.9862C14.9951 16.0998 15.4743 15.6057 16.3716 15.5612C16.9001 15.5371 17.4065 15.3425 17.8151 15.0065C18.2237 14.6706 18.5126 14.2114 18.6385 13.6976C18.9911 12.325 18.082 10.9617 16.6358 10.6975C15.3117 10.4544 13.9781 11.4753 13.8421 12.8323C13.8163 13.0785 13.8054 13.3302 13.7186 13.5671C13.5169 14.119 12.9134 14.4864 12.36 14.3949C11.7034 14.2855 11.2656 13.8 11.2477 13.1645C11.1828 10.6436 13.1378 8.40639 15.6454 8.13046C18.4642 7.81778 20.9398 9.73995 21.2588 12.547C21.3988 13.6785 21.1448 14.8237 20.5396 15.7899C19.9344 16.7561 19.0149 17.4844 17.9358 17.8523C17.6231 17.9586 17.5121 18.1048 17.5301 18.4316C17.5582 18.9506 17.5418 19.4712 17.5356 19.9949C17.5372 20.1619 17.5059 20.3275 17.4435 20.4823C17.3811 20.6372 17.2888 20.7782 17.1718 20.8974C17.0549 21.0165 16.9156 21.1114 16.7619 21.1767C16.6082 21.2419 16.4432 21.2763 16.2763 21.2777C15.5673 21.2863 15.0021 20.7188 14.9951 19.9848C14.9912 19.4634 14.9951 18.9412 14.9951 18.4214Z" fill="#315B12"/>
<path d="M17.849 23.7137C17.8472 24.0266 17.7527 24.332 17.5774 24.5912C17.4022 24.8505 17.154 25.052 16.8644 25.1704C16.5747 25.2887 16.2564 25.3186 15.9498 25.2563C15.6431 25.1939 15.3618 25.0421 15.1414 24.82C14.9209 24.5979 14.7712 24.3155 14.7111 24.0084C14.651 23.7013 14.6833 23.3833 14.8038 23.0945C14.9243 22.8057 15.1276 22.5591 15.3882 22.3857C15.6487 22.2124 15.9547 22.1201 16.2677 22.1206C16.6883 22.1231 17.0909 22.2921 17.3872 22.5907C17.6836 22.8892 17.8496 23.293 17.849 23.7137Z" fill="#315B12"/>
</svg>
