<svg width="19" height="13" viewBox="0 0 19 13" fill="none" xmlns="http://www.w3.org/2000/svg">
<path d="M8.39641 6.92529L8.39493 6.58288C8.39493 5.15979 8.47827 3.86239 8.6038 3.01663L8.71378 2.4907C8.77496 2.21215 8.8554 1.89499 8.93927 1.73308C9.24625 1.14084 9.84649 0.774414 10.4889 0.774414H10.5448C10.9636 0.788261 11.8434 1.15575 11.8434 1.16853C13.2591 1.76254 15.9903 3.55527 17.2518 4.83334L17.6183 5.21705C17.7143 5.32104 17.8222 5.44412 17.8891 5.54006C18.1128 5.83618 18.2246 6.20261 18.2246 6.56903C18.2246 6.97806 18.099 7.35834 17.8617 7.66937L17.4851 8.07581L17.4007 8.16255C16.2561 9.4035 13.2676 11.4327 11.7042 12.0537L11.4681 12.1441C11.1841 12.2459 10.7861 12.3674 10.5448 12.3786C10.2379 12.3786 9.9446 12.3072 9.66504 12.1666C9.31587 11.9695 9.03737 11.6585 8.88336 11.2921C8.78525 11.0386 8.63123 10.2769 8.63123 10.2631C8.49004 9.49518 8.40817 8.28344 8.39641 6.92529ZM0.818359 6.57606C0.818359 5.76546 1.46924 5.10823 2.27203 5.10823L5.84922 5.4246C6.47901 5.4246 6.98958 5.94015 6.98958 6.57606C6.98958 7.21304 6.47901 7.72753 5.84922 7.72753L2.27203 8.04389C1.46924 8.04389 0.818359 7.38667 0.818359 6.57606Z" fill="#3F622E"/>
</svg>
