<svg width="92" height="92" viewBox="0 0 92 92" fill="none" xmlns="http://www.w3.org/2000/svg">
<path d="M0 49.2193V42.7532C0.149837 41.5994 0.274701 40.4411 0.454052 39.2919C2.11891 28.4158 7.01588 19.2696 15.1449 11.8534C21.5101 6.00562 29.4298 2.12417 37.9497 0.676725C39.5388 0.399637 41.1416 0.222483 42.7376 -0.00463867H49.2011C51.0332 0.258822 52.8857 0.429158 54.6951 0.799366C67.5675 3.4317 77.6497 10.2453 84.7556 21.2925C90.9489 30.9202 93.1238 41.5063 91.4665 52.8079C89.8501 63.8278 84.8101 73.1079 76.4328 80.4417C65.8035 89.7537 53.3602 93.4103 39.3935 91.507C28.4622 90.0148 19.2813 84.9955 11.8576 76.8282C6.00879 70.4584 2.12653 62.532 0.678805 54.0048C0.404104 52.4218 0.222485 50.816 0 49.2193ZM24.8503 36.2893C24.1649 36.2738 23.4837 36.4016 22.8504 36.6644C22.2172 36.9272 21.6457 37.3193 21.1724 37.8156C19.8557 39.1238 18.5367 40.4297 17.2358 41.7516C14.9065 44.1205 14.8997 47.2934 17.2358 49.6645C23.1385 55.6438 29.0548 61.6171 34.9847 67.5844C37.5319 70.1486 40.7375 70.144 43.2984 67.5844C45.4075 65.4631 47.4598 63.285 49.5779 61.1727C57.7342 53.0388 65.9003 44.9139 74.0763 36.7981C74.3714 36.5028 74.6779 36.2121 74.9526 35.8896C76.9686 33.5957 76.905 30.5477 74.7778 28.3628C73.5269 27.0773 72.251 25.8122 70.9729 24.5517C68.5596 22.1692 65.4107 22.1556 63.002 24.5313C59.5724 27.9108 56.1488 31.2995 52.7313 34.6972C48.5117 38.8944 44.2958 43.0992 40.0837 47.3115C39.1302 48.2632 39.1257 48.2632 38.1994 47.332C35.0937 44.2159 31.991 41.099 28.8913 37.9814C28.3755 37.4298 27.7486 36.9937 27.0521 36.7021C26.3555 36.4104 25.6051 36.2698 24.8503 36.2893Z" fill="#3F622E"/>
</svg>
