<svg width="634" height="555" viewBox="0 0 634 555" fill="none" xmlns="http://www.w3.org/2000/svg">
<g clip-path="url(#clip0_2463_4280)">
<path d="M252.222 504.762C216.919 487.917 189.321 455.639 178.167 418.146C170.726 393.135 170.785 364.775 184.001 342.274C194.096 325.087 211.134 312.639 229.794 305.63C266.915 291.691 308.983 298.448 345.732 313.337C382.482 328.224 415.57 350.714 450.503 369.473C467.29 378.486 485.355 384.741 504.219 387.423C528.247 390.841 549.529 371.349 557.339 353.97" stroke="white" stroke-width="2.48434" stroke-miterlimit="10" stroke-linecap="round" stroke-linejoin="round" stroke-dasharray="11.59 13.25 11.59 13.25 11.59 13.25"/>
<path d="M545.365 357.783C549.311 356.248 553.288 354.885 557.34 353.972C558.128 357.644 558.741 361.354 559.178 365.085" stroke="white" stroke-width="2.48434" stroke-miterlimit="10" stroke-linecap="round" stroke-linejoin="round"/>
<mask id="mask0_2463_4280" style="mask-type:luminance" maskUnits="userSpaceOnUse" x="64" y="114" width="536" height="494">
<path d="M476.975 159.513C405.025 122.892 321.49 103.947 242.632 121.26C163.775 138.572 91.6152 196.678 71.0592 274.754C56.9846 328.211 67.4621 385.524 87.7353 436.95C106.631 484.88 134.826 530.43 175.889 561.543C213.315 589.9 260.039 604.913 306.943 607.103C353.848 609.294 400.886 599.051 444.128 580.746C507.3 554.001 565.171 506.797 588.332 442.224C606.755 390.868 601.349 332.645 579.388 282.699C557.424 232.756 524.257 183.578 476.975 159.513Z" fill="white"/>
</mask>
<g mask="url(#mask0_2463_4280)">
<path opacity="0.15" d="M520.198 331.013C517.348 330.645 514.715 332.456 512.466 334.246C508.248 337.605 504.262 341.249 500.478 345.092C500.532 344.976 500.587 344.86 500.639 344.746C502.856 339.935 504.833 335.17 504.82 330.206C504.81 325.241 501.895 319.908 497.05 318.821C493.516 318.027 490.016 319.599 487.008 321.783C487.22 321.328 487.434 320.871 487.642 320.418C489.86 315.607 491.836 310.842 491.823 305.878C491.813 300.913 488.898 295.58 484.054 294.492C480.497 293.693 476.973 295.29 473.952 297.497C474.849 295.918 475.733 294.336 476.612 292.757C478.653 289.094 479.771 283.846 479.82 278.72C479.871 273.59 477.017 268.05 472.065 266.719C467.652 265.535 463.085 267.916 459.474 270.712C456.324 273.151 453.519 275.948 450.994 278.991C435.573 237.754 419.147 196.879 402.027 157.166C399.334 150.915 392.576 147.428 385.923 148.86C335.067 159.807 290.34 175.799 248.544 198.454L248.419 198.341C246.722 199.179 245.065 200.095 243.449 201.114C233.525 207.365 229.4 219.775 233.251 230.853C254.758 292.733 279.823 353.422 308.695 412.947C300.426 425.335 292.189 437.746 284.021 450.2C255.867 493.13 228.31 536.452 201.36 580.148C201.36 580.148 235.331 604.998 273.537 614.599C311.742 624.198 348.629 625.323 348.629 625.323C358.615 592.991 377.262 564.018 397.819 537.141C411.427 519.35 425.952 502.261 439.899 484.737C456.183 478.885 472.327 472.417 488.337 465.371C498.487 460.904 504.607 450.425 503.458 439.396C503.328 438.152 503.181 436.844 503.021 435.461C503.119 433.814 502.937 432.128 502.433 430.472C499.713 421.527 496.907 412.549 494.055 403.555C504.047 385.604 513.433 367.288 522.794 349.003C524.425 345.818 526.095 342.474 526.077 338.893C526.059 335.312 523.746 331.472 520.198 331.013Z" fill="#2E2854"/>
</g>
<mask id="mask1_2463_4280" style="mask-type:luminance" maskUnits="userSpaceOnUse" x="64" y="114" width="536" height="494">
<path d="M476.975 159.513C405.025 122.892 321.49 103.947 242.632 121.26C163.775 138.572 91.6152 196.678 71.0592 274.754C56.9846 328.211 67.4621 385.524 87.7353 436.95C106.631 484.88 134.826 530.43 175.889 561.543C213.315 589.9 260.039 604.913 306.943 607.103C353.848 609.294 400.886 599.051 444.128 580.746C507.3 554.001 565.171 506.797 588.332 442.224C606.755 390.868 601.349 332.645 579.388 282.699C557.424 232.756 524.257 183.578 476.975 159.513Z" fill="white"/>
</mask>
<g mask="url(#mask1_2463_4280)">
<path d="M454.598 360.316C462.347 344.259 473.329 329.774 486.698 317.98C488.853 316.077 491.39 314.136 494.256 314.359C497.823 314.639 500.326 318.358 500.528 321.931C500.728 325.505 499.228 328.93 497.761 332.193C480.661 370.22 463.48 408.395 441.14 443.6C423.008 472.168 401.634 498.53 382.464 526.412C363.294 554.295 346.137 584.175 337.799 616.97C337.799 616.97 300.903 617.713 262.26 610.06C223.617 602.405 188.433 579.305 188.433 579.305C213.138 534.302 238.467 489.642 264.413 445.342L421.34 295.541L454.598 360.316Z" fill="#9E4950"/>
<path opacity="0.15" d="M397.354 462.077C393.002 466.104 388.646 470.77 384.324 475.918L346.21 489.279L347.832 498.772C347.832 498.772 353.078 505.407 364.864 502.12C364.941 502.098 365.035 502.073 365.114 502.05C338.633 542.312 316.015 593.341 307.641 615.949C325.482 617.214 337.798 616.969 337.798 616.969C346.135 584.174 363.294 554.294 382.464 526.411C401.634 498.53 423.009 472.166 441.14 443.598C448.032 432.738 454.43 421.593 460.49 410.258L459.693 390.659L459.671 390.636C459.269 391.385 444.603 418.365 397.354 462.077Z" fill="#2E2854"/>
<path opacity="0.15" d="M476.461 378.551L467.225 356.803C478.282 347.281 481.092 331.044 481.796 322.529C470.633 333.422 461.378 346.268 454.598 360.316L448.898 349.214L436.868 365.552L459.671 390.636C459.677 390.625 459.69 390.601 459.69 390.601L459.693 390.661L466.691 398.359C470.033 391.802 473.282 385.194 476.461 378.551Z" fill="#2E2854"/>
</g>
<path d="M216.113 195.603C214.461 196.526 212.852 197.525 211.29 198.624C201.695 205.368 198.204 217.971 202.61 228.841C238.132 316.472 280.915 401.252 331.753 483.217C337.842 493.034 349.813 497.512 360.851 494.104C397.877 482.67 433.967 467.855 469.234 450.155C479.146 445.18 484.727 434.406 483.021 423.449C482.613 420.827 482.121 417.951 481.546 414.588L216.113 195.603Z" fill="#2E2854"/>
<path d="M367.442 146.711C409.916 232.949 449.292 325.065 481.547 414.586C483.936 421.217 481.11 428.613 474.916 431.977C436.138 453.04 395.42 470.869 351.997 486.324C345.245 488.727 337.732 485.777 334.45 479.404C289.668 392.377 248.037 303.75 208.996 214.615C206.122 208.052 208.577 200.404 214.681 196.651C255.712 171.425 300.058 152.909 350.938 139.23C357.511 137.464 364.435 140.604 367.442 146.711Z" fill="white"/>
<path d="M359.96 173.044C395.83 240.764 426.71 311.128 452.262 383.375C455.108 391.421 451.417 400.314 443.722 404.008C414.755 417.912 385.738 430.997 356.394 443.176C348.363 446.509 339.098 443.148 335.13 435.41C300.14 367.168 267.07 298.204 237.015 230.441C233.572 222.679 236.553 213.582 243.881 209.289C273.499 191.942 305.032 177.355 339.564 165.14C347.393 162.371 356.072 165.705 359.96 173.044Z" fill="#FCEBAA" fill-opacity="0.94"/>
<path d="M359.96 173.044C395.83 240.764 426.71 311.128 452.262 383.375C455.108 391.421 451.417 400.314 443.722 404.008C414.755 417.912 385.738 430.997 356.394 443.176C348.363 446.509 339.098 443.148 335.13 435.41C300.14 367.168 267.07 298.204 237.015 230.441C233.572 222.679 236.553 213.582 243.881 209.289C273.499 191.942 305.032 177.355 339.564 165.14C347.393 162.371 356.072 165.705 359.96 173.044Z" stroke="#2E2854" stroke-width="2.48434" stroke-miterlimit="10" stroke-linecap="round" stroke-linejoin="round"/>
<path d="M414.525 434.058C410.073 431.471 403.713 432.984 400.903 437.3C398.092 441.615 399.282 448.044 403.448 451.069C407.618 454.094 414.098 453.232 417.331 449.224C420.562 445.217 420.752 437.678 414.525 434.058Z" fill="#3F622E"/>
<path d="M414.525 434.058C410.073 431.471 403.713 432.984 400.903 437.3C398.092 441.615 399.282 448.044 403.448 451.069C407.618 454.094 414.098 453.232 417.331 449.224C420.562 445.217 420.752 437.678 414.525 434.058Z" stroke="#2E2854" stroke-width="2.48434" stroke-miterlimit="10" stroke-linecap="round" stroke-linejoin="round"/>
<path d="M269.897 187.436C267.934 187.772 265.911 186.776 265.025 184.884C263.963 182.614 264.942 179.914 267.212 178.852L300.681 163.197C302.957 162.136 305.651 163.115 306.713 165.384C307.775 167.654 306.795 170.354 304.525 171.416L271.056 187.071C270.68 187.248 270.29 187.369 269.897 187.436Z" fill="#3F622E"/>
<path d="M269.897 187.436C267.934 187.772 265.911 186.776 265.025 184.884C263.963 182.614 264.942 179.914 267.212 178.852L300.681 163.197C302.957 162.136 305.651 163.115 306.713 165.384C307.775 167.654 306.795 170.354 304.525 171.416L271.056 187.071C270.68 187.248 270.29 187.369 269.897 187.436Z" stroke="#2E2854" stroke-width="2.48434" stroke-miterlimit="10" stroke-linecap="round" stroke-linejoin="round"/>
<path d="M332.464 161.214C329.648 161.695 327.992 159.876 327.43 158.617C327.136 157.96 326.989 157.192 327.049 156.41C327.113 154.557 328.31 152.869 330.183 152.275C333.522 151.21 335.471 153.272 336.089 154.657C336.38 155.309 336.527 156.07 336.473 156.846C336.415 158.708 335.215 160.407 333.335 161.001C333.033 161.096 332.744 161.166 332.464 161.214Z" fill="#3F622E"/>
<path d="M332.464 161.214C329.648 161.695 327.992 159.876 327.43 158.617C327.136 157.96 326.989 157.192 327.049 156.41C327.113 154.557 328.31 152.869 330.183 152.275C333.522 151.21 335.471 153.272 336.089 154.657C336.38 155.309 336.527 156.07 336.473 156.846C336.415 158.708 335.215 160.407 333.335 161.001C333.033 161.096 332.744 161.166 332.464 161.214Z" stroke="#2E2854" stroke-width="2.48434" stroke-miterlimit="10" stroke-linecap="round" stroke-linejoin="round"/>
<path d="M274.37 277.273L305.676 347.555C309.252 355.582 318.648 359.203 326.686 355.652L403.227 321.824C411.268 318.27 414.916 308.879 411.38 300.829L380.978 231.595C377.471 223.609 368.197 219.922 360.164 223.322L282.721 256.102C274.503 259.58 270.74 269.123 274.37 277.273Z" fill="#FFC98F"/>
<path d="M322.568 382.204L330.842 401.093C332.391 404.627 336.5 406.252 340.047 404.733L429.873 366.236C433.461 364.699 435.107 360.533 433.541 356.957L425.112 337.721C423.559 334.177 419.433 332.557 415.883 334.095L326.213 372.94C322.641 374.485 321.007 378.64 322.568 382.204Z" fill="#FFC98F"/>
<path d="M349.003 383.994C349.295 385.705 347.992 387.322 345.235 388.487L339.603 390.866L337.927 381.053L343.272 378.795C346.031 377.631 347.502 378.166 347.755 379.651C347.911 380.563 347.568 381.518 346.731 382.354C347.975 382.28 348.804 382.831 349.003 383.994ZM341.639 381.966L341.888 383.424L343.46 382.761C344.218 382.441 344.518 382.042 344.436 381.566C344.355 381.089 343.969 380.981 343.211 381.303L341.639 381.966ZM345.537 385.053C345.451 384.549 345.034 384.439 344.29 384.754L342.26 385.612L342.524 387.153L344.553 386.296C345.297 385.981 345.623 385.558 345.537 385.053ZM349.818 381.817L348.896 376.42L352.27 374.995L353.175 380.294C353.431 381.793 354.113 382.108 355.056 381.709C355.999 381.311 356.49 380.501 356.233 379.002L355.328 373.703L358.644 372.302L359.565 377.699C360.068 380.643 358.558 383.1 355.485 384.399C352.412 385.696 350.32 384.761 349.818 381.817ZM367.065 375.447L367.673 379.008L364.3 380.432L363.684 376.83L358.85 372.214L362.409 370.711L365.032 373.239L366.51 368.978L369.769 367.602L367.065 375.447ZM377.483 362.207L380.341 360.999L377.88 376.198L375.022 377.405L377.483 362.207ZM385.989 370.427L386.663 367.557C387.7 367.706 389.017 367.525 390.119 367.06C391.076 366.655 391.386 366.314 391.329 365.977C391.118 364.744 385.757 368.075 385.132 364.416C384.821 362.594 386.123 360.45 389.225 359.139C390.569 358.571 392.004 358.266 393.145 358.4L392.539 361.226C391.468 361.151 390.498 361.305 389.627 361.674C388.64 362.091 388.374 362.505 388.431 362.841C388.633 364.019 393.996 360.7 394.614 364.316C394.92 366.111 393.621 368.284 390.519 369.593C388.849 370.301 387.092 370.608 385.989 370.427ZM404.039 360.968L404.465 363.462L396.147 366.977L394.47 357.165L402.603 353.729L403.029 356.224L398.212 358.259L398.408 359.408L402.639 357.62L403.046 360.003L398.815 361.791L399.036 363.081L404.039 360.968ZM404.095 353.099L407.467 351.673L408.706 358.921L413.222 357.013L413.66 359.578L405.771 362.911L404.095 353.099ZM412.918 349.37L416.291 347.945L417.529 355.192L422.046 353.285L422.484 355.85L414.594 359.184L412.918 349.37Z" fill="#315B12"/>
<path d="M296.444 75.6838C279.807 81.3365 266.867 96.6788 264.102 114.029C261.335 131.382 268.867 149.986 282.922 160.529C296.979 171.073 316.947 173.095 332.832 165.583C348.717 158.071 359.823 141.355 360.593 123.799L296.444 75.6838Z" fill="#315B12"/>
<path d="M346.979 78.5897C330.774 66.7922 307.003 66.6638 290.672 78.2872C274.34 89.908 266.673 112.41 272.508 131.586C278.344 150.762 297.248 165.177 317.285 165.729C337.323 166.282 356.992 152.934 363.877 134.107C370.761 115.281 364.914 91.6463 346.979 78.5897Z" fill="#315B12"/>
<path d="M339.91 84.3806C326.09 76.2398 307.25 77.5958 294.837 87.7545C282.424 97.9132 277.378 116.226 282.983 131.256C288.59 146.285 304.512 156.844 320.53 156.008C336.548 155.173 351.341 142.908 354.981 127.287C358.365 112.757 355.148 93.3562 339.91 84.3806Z" stroke="#2E2854" stroke-width="2.48434" stroke-miterlimit="10" stroke-linecap="round" stroke-linejoin="round"/>
<path d="M315.221 115.055L313.098 104.637L298.968 107.516L297.107 98.3848L336.591 90.3382L338.478 99.5984L324.349 102.478L326.446 112.767L315.221 115.055Z" fill="#00A478"/>
<path fill-rule="evenodd" clip-rule="evenodd" d="M295.253 120.328C294.545 116.856 305.325 111.712 319.455 108.832C333.584 105.953 345.517 106.468 346.225 109.941C346.933 113.413 336.153 118.557 322.023 121.437C307.894 124.316 295.961 123.801 295.253 120.328ZM344.113 110.372C342.926 109.274 334.455 106.848 319.665 109.862C304.875 112.876 298.002 118.296 297.366 119.899C298.553 120.996 306.605 121.365 321.395 118.351C336.317 115.31 343.451 111.846 344.113 110.372Z" fill="#00A478"/>
<path d="M327.101 115.983L325.633 108.781C323.758 109.029 321.751 109.304 319.77 109.708C317.922 110.084 316.205 110.434 314.514 110.913L315.982 118.115C317.567 117.792 319.442 117.544 321.291 117.167C323.298 116.892 325.278 116.489 327.101 115.983Z" fill="#00A478"/>
<path d="M322.023 121.439C320.175 121.815 318.458 122.165 316.715 122.386L320.621 141.55L331.713 139.289L327.781 119.997C325.959 120.503 324.004 121.035 322.023 121.439Z" fill="#00A478"/>
<mask id="mask2_2463_4280" style="mask-type:luminance" maskUnits="userSpaceOnUse" x="261" y="95" width="135" height="224">
<path d="M261.818 115.269L295.217 310.789L295.241 310.781L295.224 310.793C295.348 311.385 295.535 311.973 295.79 312.55L295.859 312.709C297.644 316.741 302.176 318.879 306.492 317.683C334.37 309.961 361.778 300.808 388.757 290.559C393.229 288.859 395.804 284.327 395.045 279.809L363.612 95.7971L261.818 115.269Z" fill="white"/>
</mask>
<g mask="url(#mask2_2463_4280)">
<path d="M326.81 253.448C310.173 259.101 297.233 274.443 294.467 291.794C291.701 309.148 299.232 327.751 313.288 338.294C327.344 348.838 347.313 350.859 363.198 343.348C379.082 335.836 390.189 319.119 390.958 301.564L326.81 253.448Z" fill="#315B12"/>
<path d="M377.345 256.354C361.14 244.557 337.369 244.428 321.037 256.05C304.705 267.671 297.039 290.173 302.874 309.349C308.709 328.525 327.614 342.94 347.651 343.493C367.689 344.045 387.357 330.697 394.243 311.871C401.127 293.045 395.28 269.411 377.345 256.354Z" fill="#315B12"/>
<path d="M370.275 262.145C356.456 254.004 337.616 255.36 325.203 265.519C312.789 275.677 307.744 293.99 313.349 309.02C318.956 324.049 334.877 334.608 350.896 333.773C366.913 332.937 381.707 320.672 385.347 305.051C388.731 290.521 385.513 271.12 370.275 262.145Z" stroke="#2E2854" stroke-width="2.48434" stroke-miterlimit="10" stroke-linecap="round" stroke-linejoin="round"/>
<path d="M364.364 292.049C367.116 293.834 369.158 296.7 369.767 300.168L369.885 300.837C371.047 307.441 366.613 313.735 360 314.864L359.708 314.914L360.329 318.449L352.63 319.764L352.009 316.229L348.854 316.768L349.475 320.303L341.776 321.618L341.155 318.084L339.358 318.39L335.54 319.043L334.187 311.35L338.005 310.698L336.38 301.457L335.027 293.761L333.563 285.439L329.745 286.091L328.392 278.395L332.21 277.743L334.007 277.436L333.246 273.111L340.945 271.796L341.706 276.121L344.861 275.582L344.1 271.257L351.799 269.942L352.566 274.303C358.673 273.637 364.36 277.828 365.438 283.955L365.549 284.587C366.015 287.241 365.534 289.836 364.364 292.049ZM362.186 302.15L362.068 301.482C361.652 299.117 359.388 297.526 357.021 297.93L356.027 298.1L344.077 300.141L345.701 309.382L347.337 309.102L358.645 307.171C361.014 306.766 362.601 304.513 362.186 302.15ZM341.262 284.123L342.726 292.446L354.677 290.404C356.799 290.042 358.224 288.022 357.851 285.902L357.74 285.27C357.368 283.149 355.336 281.721 353.213 282.083L342.899 283.845L341.262 284.125" fill="#56D1F0"/>
</g>
<path opacity="0.5" d="M394.72 278.467C396.298 283.399 393.675 288.69 388.758 290.56C361.778 300.809 334.371 309.962 306.493 317.684C302.178 318.88 297.645 316.742 295.86 312.71L295.792 312.551C293.752 307.943 296.018 302.551 300.794 300.721C327.502 290.481 354.575 281.058 382.259 272.161C387.483 270.481 393.076 273.321 394.72 278.467Z" fill="url(#paint0_linear_2463_4280)"/>
<path d="M352.613 31.4018L250.818 50.8741L295.217 310.789L295.223 310.787C295.346 311.381 295.534 311.97 295.79 312.548L295.859 312.708C297.644 316.74 302.176 318.878 306.491 317.681C334.369 309.959 361.778 300.806 388.756 290.557C393.228 288.858 395.791 284.327 395.034 279.811L395.045 279.808L352.613 31.4018Z" fill="url(#paint1_linear_2463_4280)"/>
<path opacity="0.15" d="M349.23 334.585C349.23 334.585 356.888 326.519 363.279 329.161C369.669 331.803 369.847 349.168 353.127 388.171C353.127 388.171 385.169 458.976 349.014 494.853L291.024 446.127L349.23 334.585Z" fill="#2E2854"/>
<path d="M264.413 445.34C286.503 407.623 309.039 370.169 332.017 332.985C334.103 329.608 336.287 326.135 339.556 323.886C342.827 321.637 347.504 320.931 350.694 323.294C354.996 326.478 354.474 332.966 353.403 338.212C349.955 355.12 345.393 371.798 340.857 387.574C357.498 420.232 358.923 464.603 347.611 499.467" fill="#9E4950"/>
<path d="M264.413 445.34C286.503 407.623 309.039 370.169 332.017 332.985C334.103 329.608 336.287 326.135 339.556 323.886C342.827 321.637 347.504 320.931 350.694 323.294C354.996 326.478 354.474 332.966 353.403 338.212C349.955 355.12 345.393 371.798 340.857 387.574C357.498 420.232 358.923 464.603 347.611 499.467" stroke="#2E2854" stroke-width="2.48434" stroke-miterlimit="10" stroke-linecap="round" stroke-linejoin="round"/>
<path d="M475.417 329.063C471.074 339.896 465.923 351.636 455.481 356.848C451.611 358.781 446.425 359.428 443.353 356.386C440.943 353.994 440.711 350.212 440.924 346.823C441.832 332.524 448.24 318.643 458.539 308.682C461.804 305.524 466.044 302.583 470.52 303.352C475.414 304.193 478.596 309.371 478.857 314.33C479.121 319.286 477.387 324.146 475.417 329.063Z" fill="#9E4950"/>
<path d="M475.417 329.063C471.074 339.896 465.923 351.636 455.481 356.848C451.611 358.781 446.425 359.428 443.353 356.386C440.943 353.994 440.711 350.212 440.924 346.823C441.832 332.524 448.24 318.643 458.539 308.682C461.804 305.524 466.044 302.583 470.52 303.352C475.414 304.193 478.596 309.371 478.857 314.33C479.121 319.286 477.387 324.146 475.417 329.063Z" stroke="#2E2854" stroke-width="2.48434" stroke-miterlimit="10" stroke-linecap="round" stroke-linejoin="round"/>
<path d="M461.206 305.423C456.864 316.254 451.713 327.996 441.271 333.21C437.403 335.142 432.216 335.79 429.144 332.747C426.735 330.356 426.499 326.574 426.716 323.185C427.622 308.886 434.031 295.004 444.331 285.043C447.594 281.886 451.835 278.944 456.311 279.713C461.204 280.554 464.384 285.733 464.647 290.692C464.911 295.646 463.178 300.505 461.206 305.423Z" fill="#9E4950"/>
<path d="M461.206 305.423C456.864 316.254 451.713 327.996 441.271 333.21C437.403 335.142 432.216 335.79 429.144 332.747C426.735 330.356 426.499 326.574 426.716 323.185C427.622 308.886 434.031 295.004 444.331 285.043C447.594 281.886 451.835 278.944 456.311 279.713C461.204 280.554 464.384 285.733 464.647 290.692C464.911 295.646 463.178 300.505 461.206 305.423Z" stroke="#2E2854" stroke-width="2.48434" stroke-miterlimit="10" stroke-linecap="round" stroke-linejoin="round"/>
<path d="M448.793 278.354C443.256 289.602 437.541 301.097 428.487 309.77C424.989 313.122 420.305 316.165 415.599 315.009C411.453 313.989 408.654 309.843 407.984 305.627C407.314 301.411 408.37 297.124 409.597 293.034C413.632 279.596 419.917 266.343 430.562 257.205C434.026 254.229 438.468 251.62 442.934 252.58C447.947 253.658 451.077 259.047 451.286 264.172C451.496 269.296 450.644 274.593 448.793 278.354Z" fill="#9E4950"/>
<path d="M448.793 278.354C443.256 289.602 437.541 301.097 428.487 309.77C424.989 313.122 420.305 316.165 415.599 315.009C411.453 313.989 408.654 309.843 407.984 305.627C407.314 301.411 408.37 297.124 409.597 293.034C413.632 279.596 419.917 266.343 430.562 257.205C434.026 254.229 438.468 251.62 442.934 252.58C447.947 253.658 451.077 259.047 451.286 264.172C451.496 269.296 450.644 274.593 448.793 278.354Z" stroke="#2E2854" stroke-width="2.48434" stroke-miterlimit="10" stroke-linecap="round" stroke-linejoin="round"/>
<path d="M545.608 556.209C542.585 554.813 538.581 556.123 536.988 559.047C535.395 561.972 536.488 566.067 539.339 567.783C542.194 569.501 546.344 568.535 548.122 565.72C549.9 562.902 549.415 557.967 545.608 556.209Z" fill="#9ACEDB"/>
<path d="M99.8714 530.657C96.848 529.261 92.844 530.57 91.251 533.495C89.658 536.419 90.7513 540.514 93.6029 542.231C96.4574 543.949 100.607 542.982 102.385 540.168C104.164 537.349 103.677 532.416 99.8714 530.657Z" fill="#9ACEDB"/>
<path d="M532.34 134.479C529.317 133.083 525.312 134.391 523.72 137.317C522.127 140.241 523.22 144.336 526.071 146.052C528.926 147.771 533.076 146.804 534.854 143.99C536.632 141.171 536.147 136.236 532.34 134.479Z" fill="#9ACEDB"/>
<path d="M199.827 278.068C196.804 276.672 192.8 277.981 191.207 280.906C189.614 283.83 190.707 287.925 193.558 289.641C196.413 291.36 200.563 290.395 202.341 287.579C204.118 284.761 203.633 279.826 199.827 278.068Z" fill="white"/>
<path d="M132.579 122.951C128.505 120.234 122.644 120.574 118.911 123.743C115.179 126.91 113.893 132.638 115.913 137.099C117.933 141.56 123.085 144.372 127.93 143.658C132.774 142.944 136.896 138.764 137.542 133.91C138.047 130.109 136.47 125.545 132.579 122.951Z" fill="#9ACEDB"/>
<path d="M551.477 441.335C547.403 438.618 541.542 438.958 537.809 442.127C534.077 445.294 532.791 451.022 534.811 455.483C536.831 459.944 541.983 462.756 546.828 462.042C551.672 461.328 555.793 457.148 556.44 452.294C556.944 448.494 555.366 443.93 551.477 441.335Z" fill="#BDE6F0"/>
<path d="M133.608 294.827C134.131 298.296 134.656 301.767 135.18 305.236" stroke="white" stroke-width="2.48434" stroke-miterlimit="10" stroke-linecap="round" stroke-linejoin="round"/>
<path d="M129.024 300.789L139.315 298.786" stroke="white" stroke-width="2.48434" stroke-miterlimit="10" stroke-linecap="round" stroke-linejoin="round"/>
<path d="M256.647 68.8184C257.17 72.2874 257.694 75.7587 258.219 79.2276" stroke="#2E2854" stroke-width="2.48434" stroke-miterlimit="10" stroke-linecap="round" stroke-linejoin="round"/>
<path d="M252.064 74.7821L262.353 72.7774" stroke="#2E2854" stroke-width="2.48434" stroke-miterlimit="10" stroke-linecap="round" stroke-linejoin="round"/>
<path d="M388.29 100.399C388.813 103.868 389.337 107.34 389.863 110.809" stroke="#2E2854" stroke-width="2.48434" stroke-miterlimit="10" stroke-linecap="round" stroke-linejoin="round"/>
<path d="M383.707 106.362L393.998 104.358" stroke="#2E2854" stroke-width="2.48434" stroke-miterlimit="10" stroke-linecap="round" stroke-linejoin="round"/>
<path d="M449.718 84.5085C447.76 84.5805 446.009 86.3198 445.923 88.2751C445.838 90.2317 447.43 92.1166 449.375 92.3597C451.318 92.6004 453.325 91.1637 453.722 89.2453C454.117 87.3258 452.921 84.3926 449.718 84.5085Z" fill="#9ACEDB"/>
<path d="M32.8481 254.43C30.8901 254.502 29.1384 256.242 29.0528 258.197C28.9675 260.154 30.5597 262.038 32.5046 262.282C34.4481 262.524 36.4546 261.086 36.8514 259.167C37.2481 257.247 36.0508 254.314 32.8481 254.43Z" fill="#9ACEDB"/>
<path d="M519.422 40.4504C517.464 40.5224 515.712 42.2617 515.627 44.217C515.541 46.1736 517.133 48.0585 519.078 48.3015C521.022 48.5423 523.028 47.1056 523.425 45.1872C523.821 43.269 522.625 40.3345 519.422 40.4504Z" fill="#9ACEDB"/>
<path d="M65.9375 127.301C63.9794 127.372 62.2277 129.112 62.1422 131.067C62.0569 133.024 63.6491 134.909 65.594 135.152C67.5374 135.394 69.5439 133.956 69.9408 132.037C70.3364 130.119 69.1402 127.185 65.9375 127.301Z" fill="#9ACEDB"/>
<path d="M234.224 437.691C232.266 437.763 230.514 439.503 230.429 441.458C230.343 443.415 231.935 445.299 233.88 445.543C235.824 445.785 237.83 444.347 238.227 442.428C238.624 440.51 237.427 437.575 234.224 437.691Z" fill="white"/>
<path d="M436.049 189.542C434.091 189.614 432.339 191.353 432.254 193.309C432.168 195.265 433.761 197.15 435.706 197.393C437.649 197.635 439.656 196.197 440.053 194.28C440.449 192.361 439.252 189.428 436.049 189.542Z" fill="white"/>
<path d="M494.739 487.372C492.781 487.444 491.029 489.183 490.943 491.138C490.858 493.095 492.45 494.98 494.395 495.223C496.339 495.465 498.345 494.027 498.742 492.11C499.137 490.189 497.94 487.256 494.739 487.372Z" fill="white"/>
<path d="M136.532 435.052C134.574 435.124 132.823 436.863 132.737 438.818C132.652 440.775 134.244 442.66 136.189 442.903C138.132 443.144 140.139 441.707 140.536 439.789C140.931 437.869 139.735 434.936 136.532 435.052Z" fill="#BDE6F0"/>
<path d="M470.508 520.722C468.55 520.794 466.798 522.533 466.713 524.488C466.627 526.445 468.219 528.33 470.164 528.573C472.108 528.815 474.114 527.377 474.511 525.46C474.906 523.539 473.71 520.606 470.508 520.722Z" fill="#BDE6F0"/>
<path d="M304.712 190.705C305.235 194.174 305.758 197.646 306.283 201.115" stroke="white" stroke-width="2.48434" stroke-miterlimit="10" stroke-linecap="round" stroke-linejoin="round"/>
<path d="M300.128 196.67L310.419 194.666" stroke="white" stroke-width="2.48434" stroke-miterlimit="10" stroke-linecap="round" stroke-linejoin="round"/>
<path d="M385.655 301.676C386.178 305.145 386.702 308.616 387.227 312.085" stroke="white" stroke-width="2.48434" stroke-miterlimit="10" stroke-linecap="round" stroke-linejoin="round"/>
<path d="M381.073 307.639L391.362 305.635" stroke="white" stroke-width="2.48434" stroke-miterlimit="10" stroke-linecap="round" stroke-linejoin="round"/>
<path d="M267.637 260.035C268.16 263.504 268.683 266.976 269.208 270.445" stroke="white" stroke-width="2.48434" stroke-miterlimit="10" stroke-linecap="round" stroke-linejoin="round"/>
<path d="M263.054 266L273.343 263.995" stroke="white" stroke-width="2.48434" stroke-miterlimit="10" stroke-linecap="round" stroke-linejoin="round"/>
<path d="M246.511 138.034C247.034 141.504 247.559 144.975 248.083 148.443" stroke="white" stroke-width="2.48434" stroke-miterlimit="10" stroke-linecap="round" stroke-linejoin="round"/>
<path d="M241.928 143.998L252.218 141.994" stroke="white" stroke-width="2.48434" stroke-miterlimit="10" stroke-linecap="round" stroke-linejoin="round"/>
<path d="M356.723 222.107C357.246 225.576 357.769 229.048 358.295 232.516" stroke="#2E2854" stroke-width="2.48434" stroke-miterlimit="10" stroke-linecap="round" stroke-linejoin="round"/>
<path d="M352.139 228.071L362.429 226.066" stroke="#2E2854" stroke-width="2.48434" stroke-miterlimit="10" stroke-linecap="round" stroke-linejoin="round"/>
<path d="M174.564 514.14C174.244 512.265 172.465 511.005 170.59 511.326C168.716 511.646 167.456 513.425 167.776 515.299C168.096 517.173 169.875 518.433 171.75 518.113C173.624 517.793 174.884 516.014 174.564 514.14Z" stroke="#2E2854" stroke-width="2.48434" stroke-miterlimit="10" stroke-linecap="round" stroke-linejoin="round"/>
<path d="M61.9567 192.023C63.8311 191.703 65.0909 189.924 64.7708 188.049C64.4506 186.175 62.6716 184.915 60.7973 185.235C58.923 185.555 57.6631 187.334 57.9833 189.209C58.3035 191.083 60.0824 192.343 61.9567 192.023Z" stroke="#2E2854" stroke-width="2.48434" stroke-miterlimit="10" stroke-linecap="round" stroke-linejoin="round"/>
<path d="M578.781 516.133C580.655 515.813 581.915 514.034 581.595 512.16C581.275 510.286 579.496 509.026 577.621 509.346C575.747 509.666 574.487 511.445 574.807 513.319C575.127 515.194 576.906 516.453 578.781 516.133Z" stroke="#2E2854" stroke-width="2.48434" stroke-miterlimit="10" stroke-linecap="round" stroke-linejoin="round"/>
<path d="M553.177 197.381C555.051 197.061 556.311 195.282 555.991 193.408C555.671 191.533 553.892 190.273 552.018 190.594C550.143 190.914 548.883 192.693 549.204 194.567C549.524 196.441 551.303 197.701 553.177 197.381Z" stroke="#2E2854" stroke-width="2.48434" stroke-miterlimit="10" stroke-linecap="round" stroke-linejoin="round"/>
</g>
<defs>
<linearGradient id="paint0_linear_2463_4280" x1="348.559" y1="304.576" x2="343.136" y2="289.72" gradientUnits="userSpaceOnUse">
<stop stop-color="#2E2854"/>
<stop offset="1" stop-color="#2E2854" stop-opacity="0"/>
</linearGradient>
<linearGradient id="paint1_linear_2463_4280" x1="346.198" y1="301.54" x2="311.206" y2="96.6919" gradientUnits="userSpaceOnUse">
<stop stop-color="#F7D7B4" stop-opacity="0.75"/>
<stop offset="1" stop-color="#F7D7B4" stop-opacity="0"/>
</linearGradient>
<clipPath id="clip0_2463_4280">
<rect width="633" height="555" fill="white" transform="translate(0.297852)"/>
</clipPath>
</defs>
</svg>
