<svg width="25" height="24" viewBox="0 0 25 24" fill="none" xmlns="http://www.w3.org/2000/svg">
<path fill-rule="evenodd" clip-rule="evenodd" d="M12.8691 22.0695C12.1015 21.6172 11.3486 21.1405 10.6116 20.64C9.86007 20.13 9.13707 19.5795 8.44557 18.99C7.75857 18.3975 7.11357 17.76 6.51357 17.079C5.91357 16.3965 5.38407 15.654 4.93857 14.862C4.49036 14.0611 4.13793 13.2103 3.88857 12.327C3.62726 11.3904 3.49652 10.4223 3.50007 9.44999V4.64999L4.25007 3.89999C4.74957 3.89999 5.23407 3.88349 5.70507 3.84599C6.14907 3.81149 6.59157 3.74699 7.02807 3.65399C7.45407 3.56099 7.87107 3.43199 8.27607 3.26999C8.70207 3.09299 9.11157 2.87849 9.50007 2.62949C10.0508 2.26754 10.6483 1.98241 11.2761 1.78199C12.2499 1.5006 13.2722 1.42801 14.2761 1.56899C14.9216 1.65891 15.5482 1.85293 16.1316 2.14349C16.4301 2.28899 16.7196 2.44949 17.0016 2.62649C17.3916 2.87699 17.8041 3.09149 18.2331 3.26849C18.6381 3.43199 19.0536 3.55949 19.4796 3.65249C19.9161 3.74549 20.3601 3.81149 20.8056 3.84599C21.2721 3.88199 21.7566 3.89849 22.2561 3.89849L23.0061 4.64849V9.44849C23.0112 10.4211 22.882 11.3897 22.6221 12.327C22.3727 13.2102 22.0202 14.0611 21.5721 14.862C21.1252 15.6535 20.5974 16.3965 19.9971 17.079C19.3971 17.757 18.7536 18.3945 18.0681 18.984C17.3761 19.5749 16.6509 20.1258 15.8961 20.634C15.1561 21.1354 14.4008 21.6136 13.6311 22.068H12.8691V22.0695ZM5.00007 5.38499V9.44999C4.99407 10.2825 5.10507 11.115 5.33007 11.9175C5.54604 12.6878 5.85322 13.4295 6.24507 14.127C6.63957 14.8275 7.10757 15.4845 7.64007 16.089C8.19507 16.7145 8.78907 17.304 9.42207 17.85C10.0701 18.402 10.7466 18.918 11.4501 19.395C12.0501 19.7955 12.6501 20.1795 13.2501 20.5485C13.8501 20.1855 14.4501 19.8015 15.0501 19.3965C15.7551 18.918 16.4346 18.402 17.0826 17.85C17.7141 17.304 18.3081 16.716 18.8616 16.092C19.3928 15.4877 19.8603 14.8302 20.2566 14.13C20.6481 13.4325 20.9556 12.69 21.1716 11.9205C21.3966 11.115 21.5061 10.2855 21.5016 9.44999V5.38499C21.2631 5.38499 21.0321 5.36699 20.8041 5.35049L20.6856 5.34149C20.1723 5.30103 19.6623 5.22738 19.1586 5.12099C18.1065 4.89122 17.1032 4.4779 16.1946 3.89999C15.961 3.75219 15.7196 3.617 15.4716 3.49499C15.0261 3.27596 14.5486 3.12913 14.0571 3.05999C13.2757 2.94548 12.4788 2.99969 11.7201 3.21899C11.2221 3.38099 10.7466 3.60899 10.3101 3.89699C9.84207 4.19699 9.35007 4.45499 8.83557 4.66649C8.34897 4.86067 7.8473 5.01468 7.33557 5.12699C6.83307 5.23199 6.32307 5.30699 5.81007 5.34599C5.54907 5.36099 5.27757 5.37599 5.00007 5.38499ZM14.0976 11.835C14.5809 11.6384 14.981 11.28 15.2292 10.821C15.4774 10.362 15.5584 9.83104 15.4583 9.31893C15.3581 8.80683 15.0831 8.34544 14.6803 8.01376C14.2775 7.68207 13.7719 7.50071 13.2501 7.50071C12.7283 7.50071 12.2227 7.68207 11.8199 8.01376C11.417 8.34544 11.142 8.80683 11.0419 9.31893C10.9418 9.83104 11.0227 10.362 11.2709 10.821C11.5192 11.28 11.9192 11.6384 12.4026 11.835L11.7501 15.75H14.7501L14.0976 11.835Z" fill="#478314"/>
</svg>
