<svg width="191" height="70" viewBox="0 0 191 70" fill="none" xmlns="http://www.w3.org/2000/svg">
<g clip-path="url(#clip0_1400_2062)">
<path d="M182.776 0H7.77764C3.55633 0 0.134277 3.39956 0.134277 7.59313V61.7084C0.134277 65.9019 3.55633 69.3015 7.77764 69.3015H182.776C186.998 69.3015 190.42 65.9019 190.42 61.7084V7.59313C190.42 3.39956 186.998 0 182.776 0Z" fill="white"/>
<path d="M4.08887 11.6445C4.47716 10.5393 5.02474 9.49591 5.71451 8.54684C6.49418 7.56923 7.4893 6.78242 8.62324 6.24701C9.75719 5.7116 10.9997 5.44187 12.2551 5.45859H178.299C179.376 5.43285 180.447 5.62415 181.447 6.02095C182.448 6.41774 183.357 7.01181 184.12 7.7673C184.884 8.52279 185.485 9.42404 185.888 10.4167C186.291 11.4093 186.487 12.4727 186.465 13.5428V56.4006C186.465 60.471 184.563 63.1437 180.761 64.5792C180.59 64.6454 180.419 64.7398 180.247 64.8153H10.2397C8.78034 64.392 7.45186 63.6103 6.37687 62.5424C5.30187 61.4745 4.51499 60.1547 4.08887 58.705V11.6445ZM95.2008 62.7282C122.694 62.7282 150.187 62.7282 177.681 62.7282C181.854 62.7282 184.269 60.3388 184.278 56.2117V14.355C184.278 10.0012 181.902 7.63075 177.538 7.63075H12.8445C8.62355 7.63075 6.18984 10.0485 6.18984 14.2417V55.985C6.18984 60.4332 8.51897 62.7565 12.9871 62.7565C40.398 62.7502 67.8025 62.7408 95.2008 62.7282Z" fill="#3F622E"/>
<path d="M16.4953 37.9847C16.4477 31.7421 18.311 27.7472 22.9028 25.2728C23.9383 24.7107 25.0773 24.3615 26.2517 24.2463C27.4261 24.1311 28.6118 24.2522 29.7381 24.6023C30.5366 24.8289 31.3352 25.0934 32.1147 25.3861C33.0224 25.7513 33.9942 25.9335 34.9734 25.9222C35.9526 25.9108 36.9198 25.7061 37.8187 25.32C40.3665 24.2717 42.9618 23.7617 45.6807 24.7062C47.4683 25.3592 49.0745 26.424 50.3675 27.8133C50.8143 28.2761 50.8048 28.5877 50.2249 28.956C44.1882 32.7904 45.2815 41.4507 51.2326 44.2556C51.6604 44.454 52.0977 44.6523 51.8125 45.2567C50.1964 48.6944 48.3141 51.9527 45.3195 54.4176C44.5548 55.0993 43.5986 55.5325 42.5791 55.6591C41.5596 55.7857 40.5255 55.5997 39.6155 55.1259C38.2111 54.4092 36.6549 54.0353 35.0761 54.0353C33.4972 54.0353 31.941 54.4092 30.5366 55.1259C27.9318 56.3253 25.422 55.6831 23.3686 53.3693C19.0716 48.6189 16.5903 43.1696 16.4953 37.9847Z" fill="#3F622E"/>
<path d="M81.207 36.3694C81.7964 35.9633 82.2337 35.6138 82.7091 35.3305C83.4127 34.9119 84.1926 34.6355 85.004 34.5172C85.8155 34.3989 86.6424 34.441 87.4374 34.6411C88.2324 34.8412 88.9798 35.1953 89.6367 35.6831C90.2936 36.171 90.8469 36.7829 91.2651 37.4838C92.1208 38.9144 92.5677 40.5497 92.5577 42.2138C92.5476 43.8779 92.081 45.5077 91.208 46.928C90.7951 47.6527 90.2411 48.2885 89.5782 48.7983C88.9153 49.308 88.1569 49.6814 87.3471 49.8968C86.5374 50.1122 85.6925 50.1652 84.8619 50.0528C84.0313 49.9403 83.2316 49.6646 82.5094 49.2418C81.6919 48.7979 81.5588 49.0152 81.5588 49.8085C81.5588 51.3573 81.5588 52.8967 81.5588 54.4456C81.5588 55.2483 81.2926 55.5883 80.4275 55.5694C77.8512 55.5128 78.1364 55.7772 78.1269 53.3595C78.1269 47.5513 78.1269 41.7526 78.0698 35.9538C78.0698 35.0094 78.317 34.745 79.2106 34.8016C80.1042 34.8583 81.3686 34.5939 81.207 36.3694ZM81.5493 42.3853C81.5493 42.8009 81.5493 43.207 81.5493 43.6225C81.5196 44.5216 81.8318 45.3988 82.4237 46.0796C83.0156 46.7603 83.8438 47.1947 84.7435 47.2963C85.6176 47.3797 86.4937 47.16 87.2233 46.6746C87.9528 46.1891 88.4908 45.4678 88.7458 44.6331C89.2189 43.1489 89.2189 41.5557 88.7458 40.0715C88.5322 39.3038 88.0797 38.6227 87.4531 38.1257C86.8265 37.6288 86.0578 37.3413 85.2569 37.3044C84.4577 37.3388 83.6891 37.619 83.0573 38.1063C82.4255 38.5935 81.9616 39.2637 81.7299 40.0243C81.5558 40.7986 81.4949 41.5938 81.5493 42.3853Z" fill="#3F622E"/>
<path d="M97.3877 48.6754C97.3877 50.7531 97.3877 52.5947 97.3877 54.4363C97.3877 55.2202 97.1975 55.598 96.3134 55.6074C94.0223 55.6074 94.0413 55.683 94.0223 53.3786C94.0223 47.4948 94.1554 41.6111 93.9177 35.7368C93.9177 35.0946 94.1364 34.7924 94.7638 34.8585C94.9537 34.8727 95.1444 34.8727 95.3342 34.8585C96.8458 34.8585 96.8458 34.8585 97.2355 36.3224C97.8682 35.7592 98.5829 35.2943 99.3555 34.9435C100.118 34.6246 100.936 34.4594 101.763 34.4575C102.59 34.4557 103.409 34.6172 104.172 34.9327C104.936 35.2482 105.628 35.7114 106.21 36.2953C106.791 36.8792 107.25 37.5722 107.56 38.334C108.181 39.7004 108.463 41.195 108.382 42.6921C108.3 44.1893 107.859 45.6452 107.094 46.9376C106.664 47.6911 106.081 48.3482 105.384 48.8677C104.686 49.3872 103.887 49.7578 103.039 49.9564C102.19 50.155 101.309 50.1773 100.451 50.0219C99.593 49.8665 98.7767 49.5366 98.0531 49.0531L97.3877 48.6754ZM97.3877 42.3666C97.3877 42.9616 97.3877 43.5755 97.4827 44.161C97.5853 44.9312 97.9315 45.649 98.4715 46.2109C99.0115 46.7727 99.7172 47.1496 100.487 47.2871C101.255 47.3996 102.039 47.2639 102.724 46.9001C103.409 46.5362 103.957 45.9633 104.289 45.266C104.733 44.3446 104.964 43.3361 104.964 42.3147C104.964 41.2932 104.733 40.2848 104.289 39.3634C104.027 38.748 103.586 38.2248 103.021 37.8612C102.457 37.4976 101.796 37.3103 101.124 37.3234C100.455 37.3159 99.7976 37.4974 99.2287 37.8469C98.6597 38.1964 98.2026 38.6994 97.9105 39.2973C97.4621 40.2555 97.2752 41.314 97.3686 42.3666H97.3877Z" fill="#3F622E"/>
<path d="M68.3063 29.2771C70.1506 29.2771 70.1506 29.2771 70.7496 31.0054C72.7523 36.8608 74.7614 42.7099 76.7768 48.5527C77.1856 49.7521 77.138 49.8654 75.8261 49.8371C73.2213 49.771 73.7537 50.196 72.9741 47.8066C72.5843 46.6639 72.166 45.5306 71.8048 44.3784C71.7606 44.1373 71.6238 43.9228 71.4234 43.7801C71.2229 43.6373 70.9745 43.5776 70.7305 43.6134C69.0954 43.6134 67.4698 43.6134 65.8346 43.6134C65.5922 43.5831 65.3474 43.6466 65.151 43.7908C64.9545 43.935 64.8214 44.1488 64.7794 44.3878C64.3801 45.6533 63.9523 46.9 63.534 48.1655C62.9541 49.9032 62.9541 49.9032 61.1573 49.8654C59.5222 49.8654 59.5127 49.8182 60.026 48.2883C61.9907 42.5084 63.965 36.7286 65.9487 30.9487C66.4906 29.2771 66.4906 29.2771 68.3063 29.2771ZM68.2493 33.612C67.4888 35.888 66.8043 37.9563 66.1008 40.0246C65.8726 40.6668 66.1008 40.8368 66.7282 40.8273C67.755 40.8273 68.7817 40.8273 69.7989 40.8273C70.3883 40.8273 70.6545 40.6385 70.4263 39.9963C69.7038 37.9091 69.0193 35.888 68.2493 33.5837V33.612Z" fill="#3F622E"/>
<path d="M121.82 29.0218C123.071 28.946 124.323 29.156 125.48 29.6357C126.183 29.919 126.431 30.3157 126.126 31.024C125.992 31.3303 125.881 31.6459 125.794 31.9684C125.623 32.639 125.299 32.809 124.643 32.4784C123.512 31.9253 122.247 31.6995 120.993 31.8268C120.359 31.8177 119.739 32.019 119.233 32.3987C118.727 32.7784 118.363 33.3149 118.198 33.9234C117.913 35.0472 118.426 36.0955 119.795 36.8605C120.746 37.3799 121.801 37.7483 122.79 38.2299C124.691 39.1743 126.402 40.1849 126.944 42.4137C127.158 43.1516 127.223 43.9242 127.136 44.6871C127.049 45.4501 126.811 46.1885 126.437 46.8603C126.063 47.5321 125.559 48.1241 124.954 48.6024C124.35 49.0807 123.656 49.436 122.913 49.648C120.349 50.3992 117.599 50.2081 115.165 49.1096C114.547 48.8546 114.215 48.4674 114.557 47.7875C114.672 47.5074 114.758 47.2162 114.813 46.9186C114.994 45.9742 115.355 45.7192 116.277 46.2481C117.689 47.0164 119.312 47.3143 120.907 47.098C121.538 47.078 122.145 46.8596 122.642 46.4743C123.14 46.0889 123.501 45.5566 123.674 44.9542C123.87 44.3123 123.83 43.6221 123.562 43.0065C123.294 42.3908 122.815 41.8896 122.21 41.5921C121.445 41.174 120.658 40.7988 119.852 40.4682C119.301 40.2132 118.73 40.0054 118.198 39.7221C115.574 38.3149 114.395 36.1333 114.87 33.6306C115.152 32.3671 115.842 31.2302 116.837 30.3943C117.831 29.5584 119.074 29.0696 120.375 29.0029C120.869 28.9746 121.345 29.0218 121.82 29.0218Z" fill="#3F622E"/>
<path d="M136.451 42.4046C136.451 36.8042 141.147 33.2531 146.423 34.8492C149.275 35.7275 150.939 38.1358 151.224 41.7057C151.377 42.9759 151.2 44.2639 150.71 45.447C150.22 46.6301 149.434 47.6691 148.426 48.4652C147.418 49.2612 146.222 49.7878 144.951 49.9949C143.68 50.202 142.377 50.0826 141.166 49.6483C138.266 48.6944 136.46 45.9084 136.451 42.4046ZM143.837 37.2386C143.278 37.2145 142.722 37.3338 142.222 37.5853C141.723 37.8367 141.297 38.2117 140.985 38.6741C140.315 39.7249 139.948 40.938 139.922 42.1817C139.897 43.4254 140.216 44.6522 140.843 45.7289C141.144 46.2218 141.565 46.6319 142.066 46.922C142.568 47.2121 143.135 47.3729 143.715 47.3898C144.295 47.4067 144.87 47.2792 145.388 47.0188C145.906 46.7584 146.35 46.3734 146.68 45.8989C147.384 44.8255 147.758 43.5722 147.758 42.2912C147.758 41.0103 147.384 39.7569 146.68 38.6836C146.367 38.224 145.943 37.8505 145.446 37.5978C144.949 37.3452 144.395 37.2216 143.837 37.2386Z" fill="#3F622E"/>
<path d="M168.678 43.1316C167.309 43.1316 165.95 43.1316 164.581 43.1316C163.868 43.1316 163.63 43.3394 163.801 44.076C163.992 45.0111 164.51 45.8488 165.264 46.4402C166.017 47.0316 166.958 47.3383 167.918 47.3059C169.095 47.3511 170.27 47.1847 171.388 46.8148C171.872 46.6543 172.433 46.4182 172.509 47.1926C172.585 47.967 173.517 48.7981 172.386 49.2609C168.887 50.6681 163.906 50.6586 161.586 47.0509C159.267 43.4433 160.227 38.0601 163.487 35.7179C164.429 35.012 165.547 34.5762 166.72 34.458C167.894 34.3397 169.077 34.5436 170.142 35.0474C172.424 36.0485 173.365 38.0506 173.631 40.3739C173.945 43.1411 173.897 43.1505 171.14 43.1505H168.64L168.678 43.1316ZM167.1 40.525C167.899 40.525 168.697 40.525 169.496 40.525C170.294 40.525 170.446 40.2039 170.285 39.4767C170.137 38.7865 169.751 38.1693 169.194 37.7314C168.637 37.2935 167.943 37.0624 167.233 37.0779C166.47 37.1215 165.74 37.4048 165.149 37.8867C164.558 38.3687 164.136 39.0246 163.944 39.76C163.83 40.3361 164.077 40.525 164.6 40.525H167.1Z" fill="#3F622E"/>
<path d="M129.425 42.1022C129.425 40.8367 129.425 39.7033 129.425 38.5795C129.425 37.8051 129.197 37.4179 128.389 37.5217C127.286 37.6728 127.182 37.0306 127.162 36.1618C127.143 35.2929 127.429 34.7168 128.455 34.8585C129.216 34.9624 129.406 34.5752 129.406 33.9141C129.406 33.3757 129.13 32.6485 129.739 32.3558C130.562 31.9789 131.426 31.6999 132.315 31.5247C132.752 31.4302 132.676 31.8836 132.714 32.1669C132.828 33.0452 132.287 34.1502 133.028 34.7451C133.77 35.3401 134.72 34.9151 135.585 34.8868C136.451 34.8585 136.536 35.4629 136.489 36.0862C136.441 36.7095 136.764 37.5595 135.633 37.5595H135.291C132.714 37.6256 132.714 37.6256 132.714 40.1472C132.714 41.7244 132.714 43.311 132.714 44.8693C132.771 46.8526 133.237 47.2398 135.205 47.1454C135.652 47.1454 136.222 46.9754 136.156 47.6648C136.089 48.3542 136.755 49.4592 135.614 49.837C133.076 50.6681 129.824 49.9975 129.473 46.5032C129.368 44.9732 129.425 43.4433 129.425 42.1022Z" fill="#3F622E"/>
<path d="M156.044 36.3035C156.468 35.7872 156.991 35.3607 157.584 35.0492C158.177 34.7377 158.827 34.5477 159.495 34.4902C160.322 34.4902 160.816 34.7169 160.74 35.6424C160.716 35.982 160.716 36.3228 160.74 36.6624C160.797 37.399 160.559 37.739 159.713 37.7296C158.904 37.6666 158.102 37.9226 157.481 38.4421C156.861 38.9617 156.47 39.7032 156.395 40.5062C155.958 43.0089 156.31 45.5494 156.186 48.0615C156.186 48.6282 156.519 49.4215 155.825 49.6954C154.988 49.9647 154.086 49.9647 153.249 49.6954C152.707 49.5537 152.888 49.0154 152.888 48.6187C152.888 45.1937 152.888 41.7623 152.888 38.3246C152.888 37.7957 152.888 37.2668 152.888 36.7474C152.735 34.8586 152.374 34.8019 154.789 34.8586C155.635 34.868 155.635 34.8774 156.044 36.3035Z" fill="#3F622E"/>
<path d="M42.182 16.0551C42.0832 18.1096 41.2989 20.073 39.9529 21.6359C38.6069 23.1987 36.7757 24.2722 34.7478 24.6871C33.7971 24.8382 33.4264 24.5927 33.4074 23.6105C33.3313 19.6911 37.21 15.2146 41.1648 14.7424C42.4292 14.6102 42.1155 15.4885 42.182 16.0551Z" fill="#3F622E"/>
<path d="M59.4844 20.1633C59.4844 18.9261 59.4844 17.6795 59.4844 16.4423C59.4844 15.7718 59.6935 15.3562 60.435 15.2996C62.1643 15.0623 63.924 15.178 65.6067 15.6396C66.4423 15.8778 67.1817 16.3705 67.7206 17.0482C68.2596 17.7259 68.5709 18.5545 68.6108 19.4172C68.8009 21.4666 68.24 23.2705 66.3387 24.3471C64.4373 25.4237 62.3364 25.386 60.2354 25.216C59.5604 25.1688 59.5034 24.6777 59.5034 24.1582C59.4844 22.8077 59.4844 21.4855 59.4844 20.1633ZM61.2621 20.1633C61.2621 21.1077 61.2621 22.0522 61.2621 22.9966C61.2621 23.3838 61.3287 23.7143 61.7945 23.8655C62.7877 24.1454 63.8515 24.0323 64.7626 23.5498C65.6737 23.0673 66.3612 22.253 66.6809 21.2777C67.6316 17.604 64.9697 16.244 61.9276 16.4895C61.3382 16.5368 61.2146 16.9617 61.2146 17.434L61.2621 20.1633Z" fill="#3F622E"/>
<path d="M81.1693 23.11C81.7207 21.5612 82.1865 20.2768 82.6428 18.9546C82.8235 18.4541 82.9851 17.963 83.6981 18.0102C84.4111 18.0574 84.5822 18.4824 84.7533 18.9546C85.2001 20.2296 85.6279 21.514 86.1698 23.1006C86.6641 21.5329 87.0634 20.2673 87.4817 18.9452C87.6243 18.5202 87.7004 18.0007 88.2993 18.0007C88.8982 18.0007 89.4876 18.0007 89.1644 18.9452C88.4704 20.834 87.7859 22.7228 87.1205 24.6117C87.056 24.8089 86.928 24.9796 86.7562 25.0974C86.5844 25.2151 86.3783 25.2735 86.1698 25.2633C85.9421 25.2801 85.7159 25.2149 85.5326 25.0796C85.3494 24.9443 85.2212 24.7481 85.1716 24.5267C84.7058 23.2234 84.2209 21.9106 83.6505 20.3146C83.1182 21.7406 82.6999 22.9117 82.234 24.0922C82.0249 24.6306 81.9298 25.2728 81.0837 25.2822C80.2376 25.2917 80.1331 24.6306 79.8954 24.0356C79.3535 22.4206 78.8116 20.8245 78.2888 19.2096C78.1652 18.8318 77.7374 18.2652 78.4789 18.1046C79.0588 17.9535 79.6102 18.0196 79.8193 18.7657C80.1521 19.9651 80.5228 21.1456 80.8841 22.3451C80.9411 22.4489 81.0267 22.6662 81.1693 23.11Z" fill="#3F622E"/>
<path d="M124.805 18.4163C124.805 17.4152 124.805 16.5275 124.805 15.6303C124.805 15.0164 125.052 14.7425 125.689 14.7519C126.326 14.7614 126.487 15.0636 126.487 15.6019C126.487 18.5485 126.487 21.4888 126.487 24.4228C126.487 24.7439 126.43 25.0461 126.05 25.1217C125.67 25.1972 125.242 25.2728 125.042 24.8572C124.843 24.4417 124.672 24.5645 124.358 24.7156C122.533 25.66 120.897 25.4144 119.804 24.1489C119.258 23.4414 118.956 22.5773 118.944 21.6855C118.932 20.7937 119.21 19.9219 119.738 19.2002C120.688 17.8496 122.4 17.4908 124.244 18.2557L124.805 18.4163ZM124.805 21.5423C124.805 19.9463 124.111 19.1057 122.799 19.1341C122.189 19.1776 121.621 19.4595 121.221 19.918C120.82 20.3765 120.618 20.9742 120.66 21.5801C120.635 21.8904 120.675 22.2024 120.778 22.4964C120.881 22.7903 121.045 23.0596 121.259 23.2871C121.473 23.5147 121.732 23.6954 122.02 23.8177C122.308 23.9401 122.619 24.0014 122.932 23.9978C124.101 23.9789 124.795 23.0723 124.795 21.5423H124.805Z" fill="#3F622E"/>
<path d="M159.789 18.6618C160.227 18.4163 160.474 18.2557 160.74 18.1329C161.139 17.9104 161.588 17.7895 162.046 17.781C162.504 17.7725 162.957 17.8766 163.364 18.0842C163.772 18.2918 164.121 18.5963 164.382 18.9706C164.642 19.3449 164.805 19.7774 164.856 20.2295C165.01 21.6124 165.045 23.0057 164.961 24.3944C164.961 24.98 164.619 25.1783 164.086 25.1689C163.554 25.1594 163.278 24.8761 163.288 24.3283C163.288 23.3084 163.288 22.2978 163.288 21.2779C163.288 19.8612 162.66 19.1529 161.615 19.1718C160.569 19.1907 159.818 20.0029 159.799 21.3156C159.799 22.3262 159.799 23.3461 159.799 24.3661C159.799 24.9328 159.533 25.1783 158.972 25.1689C158.411 25.1594 158.107 24.9611 158.107 24.3755C158.107 21.4415 158.107 18.5044 158.107 15.5641C158.107 15.0069 158.363 14.7614 158.934 14.7519C159.504 14.7425 159.808 15.0636 159.799 15.6963C159.78 16.5935 159.789 17.5285 159.789 18.6618Z" fill="#3F622E"/>
<path d="M73.5069 25.282C73.0054 25.3218 72.5013 25.2546 72.0281 25.0848C71.555 24.9151 71.1239 24.6469 70.7638 24.298C70.4036 23.9492 70.1227 23.5278 69.94 23.0623C69.7572 22.5967 69.6768 22.0977 69.7042 21.5987C69.6941 20.5693 70.0961 19.578 70.8217 18.843C71.5473 18.108 72.5371 17.6894 73.5734 17.6794C74.6097 17.6694 75.6075 18.0687 76.3474 18.7896C77.0873 19.5104 77.5086 20.4937 77.5187 21.5232C77.5282 22.0389 77.429 22.5509 77.2277 23.0263C77.0264 23.5017 76.7273 23.9301 76.3496 24.284C75.9719 24.6379 75.5239 24.9095 75.0343 25.0813C74.5448 25.2532 74.0245 25.3215 73.5069 25.282ZM75.6649 21.5515C75.6649 20.0593 74.8568 19.1243 73.5639 19.1149C72.271 19.1055 71.3774 20.0593 71.3679 21.5798C71.3328 21.8908 71.3647 22.2056 71.4613 22.5034C71.5579 22.8012 71.7171 23.0752 71.9283 23.3074C72.1395 23.5395 72.3979 23.7244 72.6864 23.8499C72.9749 23.9754 73.287 24.0386 73.6019 24.0353C74.8568 24.0164 75.6649 23.0342 75.6649 21.5515Z" fill="#3F622E"/>
<path d="M110.345 21.4669C110.372 21.9748 110.29 22.4826 110.104 22.9567C109.919 23.4309 109.635 23.8606 109.27 24.2176C108.905 24.5746 108.469 24.8507 107.989 25.0277C107.509 25.2047 106.996 25.2786 106.485 25.2445C105.983 25.2821 105.478 25.2166 105.002 25.0522C104.526 24.8878 104.089 24.6279 103.718 24.2888C103.347 23.9496 103.05 23.5384 102.846 23.0806C102.642 22.6227 102.534 22.1281 102.531 21.6274C102.521 21.1161 102.617 20.6083 102.811 20.1346C103.005 19.661 103.294 19.2315 103.66 18.8721C104.026 18.5127 104.462 18.2309 104.941 18.0438C105.421 17.8567 105.933 17.7682 106.447 17.7836C106.955 17.7374 107.466 17.7995 107.947 17.9656C108.428 18.1317 108.868 18.3981 109.237 18.7469C109.606 19.0957 109.896 19.5188 110.087 19.9879C110.278 20.457 110.366 20.9612 110.345 21.4669ZM108.615 21.5896C108.65 21.2893 108.624 20.985 108.537 20.6952C108.451 20.4053 108.305 20.136 108.111 19.9037C107.916 19.6713 107.676 19.4808 107.404 19.3436C107.133 19.2064 106.837 19.1255 106.533 19.1058C106.219 19.1062 105.909 19.1709 105.621 19.2959C105.334 19.4209 105.075 19.6034 104.862 19.8321C104.649 20.0608 104.486 20.3307 104.382 20.625C104.279 20.9192 104.237 21.2316 104.261 21.5424C104.232 21.844 104.264 22.1483 104.354 22.4377C104.444 22.7271 104.591 22.9959 104.787 23.2285C104.982 23.4612 105.222 23.6532 105.492 23.7933C105.762 23.9335 106.058 24.019 106.362 24.0451C106.676 24.0437 106.987 23.9775 107.274 23.8507C107.561 23.724 107.819 23.5393 108.031 23.3086C108.243 23.0778 108.404 22.8058 108.504 22.51C108.605 22.2141 108.643 21.9007 108.615 21.5896Z" fill="#3F622E"/>
<path d="M135.129 25.2823C134.634 25.315 134.137 25.243 133.671 25.0712C133.206 24.8993 132.782 24.6315 132.428 24.2854C132.074 23.9392 131.798 23.5226 131.618 23.0628C131.438 22.6031 131.358 22.1107 131.383 21.618C131.383 20.591 131.794 19.6061 132.525 18.88C133.256 18.1538 134.247 17.7458 135.281 17.7458C136.315 17.7458 137.306 18.1538 138.037 18.88C138.768 19.6061 139.179 20.591 139.179 21.618C139.176 22.1292 139.066 22.6342 138.856 23.1012C138.647 23.5681 138.342 23.9869 137.962 24.3312C137.581 24.6754 137.133 24.9377 136.646 25.1014C136.158 25.2651 135.642 25.3267 135.129 25.2823ZM133.095 21.618C133.095 23.1007 133.912 24.0357 135.177 24.0357C135.49 24.0351 135.8 23.9687 136.086 23.8409C136.371 23.7131 136.627 23.5267 136.835 23.2939C137.043 23.0612 137.2 22.7874 137.294 22.4904C137.388 22.1935 137.418 21.8801 137.382 21.5707C137.382 20.0691 136.536 19.0964 135.215 19.1058C133.893 19.1153 133.076 20.0502 133.085 21.618H133.095Z" fill="#3F622E"/>
<path d="M140.586 21.4572C140.586 20.5883 140.586 19.7289 140.586 18.86C140.586 17.9912 141.185 17.6417 141.86 18.1328C142.534 18.6239 142.725 18.3217 143.171 18.1328C145.444 17.1884 147.383 18.4162 147.468 20.8339C147.468 21.9577 147.468 23.091 147.468 24.2149C147.468 24.7816 147.354 25.1593 146.67 25.1593C145.985 25.1593 145.719 24.8193 145.719 24.2149C145.719 23.1572 145.719 22.0994 145.719 21.0511C145.719 19.8045 145.092 19.1623 144.065 19.1623C143.818 19.1635 143.573 19.2163 143.347 19.3173C143.122 19.4183 142.92 19.5653 142.755 19.7487C142.59 19.9321 142.466 20.1478 142.39 20.3819C142.315 20.616 142.289 20.8633 142.316 21.1078C142.316 22.1655 142.316 23.2233 142.316 24.2716C142.316 24.8571 142.078 25.216 141.432 25.216C140.785 25.216 140.538 24.9138 140.538 24.3188C140.538 23.3744 140.538 22.43 140.538 21.4855L140.586 21.4572Z" fill="#3F622E"/>
<path d="M117.608 22.5528C117.608 23.1195 117.608 23.6861 117.608 24.2528C117.608 25.1027 117.076 25.4994 116.401 25.0083C115.726 24.5172 115.526 24.8289 115.099 25.0083C114.607 25.2169 114.072 25.3013 113.539 25.2538C113.031 25.282 112.529 25.1334 112.12 24.8334C111.71 24.5334 111.419 24.101 111.296 23.6106C111.206 23.1036 111.293 22.5815 111.542 22.1301C111.791 21.6787 112.187 21.3248 112.665 21.1267C113.401 20.833 114.176 20.6453 114.965 20.5695C115.26 20.5223 115.754 20.6451 115.773 20.154C115.779 19.937 115.71 19.7246 115.576 19.5526C115.443 19.3805 115.254 19.2594 115.041 19.2096C114.339 19.0251 113.597 19.0547 112.912 19.2946C112.541 19.4173 112.17 19.5684 111.961 19.049C111.752 18.5296 112.123 18.2935 112.541 18.1518C113.581 17.7672 114.717 17.7242 115.783 18.029C117.123 18.4351 117.504 19.5212 117.57 20.7584C117.57 21.3534 117.57 21.9578 117.57 22.5622L117.608 22.5528ZM115.089 21.665C113.834 21.665 113.007 22.2506 113.026 23.0345C113.045 23.8183 113.53 24.0544 114.224 24.045C114.659 24.0578 115.083 23.8993 115.401 23.604C115.72 23.3087 115.908 22.9004 115.926 22.4678C115.945 21.8067 115.631 21.5895 115.089 21.665Z" fill="#3F622E"/>
<path d="M170.58 21.9104C170.009 21.9104 169.439 21.9104 168.878 21.9104C168.013 21.9104 167.994 22.3448 168.326 22.9115C168.621 23.3567 169.046 23.7008 169.545 23.8968C170.043 24.0929 170.591 24.1314 171.112 24.007C171.489 23.9664 171.863 23.9065 172.234 23.8276C172.308 23.8065 172.385 23.8016 172.461 23.8133C172.537 23.8249 172.61 23.8528 172.674 23.895C172.738 23.9372 172.792 23.9927 172.833 24.0577C172.873 24.1226 172.899 24.1956 172.909 24.2714C172.938 24.3417 172.952 24.4177 172.948 24.4938C172.944 24.5699 172.923 24.6442 172.887 24.7113C172.85 24.7783 172.799 24.8364 172.737 24.8812C172.675 24.926 172.604 24.9565 172.528 24.9703C170.865 25.452 169.201 25.5842 167.728 24.5075C167.134 24.0534 166.7 23.4236 166.49 22.7089C166.28 21.9943 166.304 21.2319 166.558 20.5315C166.756 19.709 167.241 18.9827 167.927 18.4813C168.612 17.98 169.454 17.7361 170.304 17.7927C171.053 17.7837 171.781 18.0431 172.354 18.5235C172.926 19.004 173.306 19.6732 173.422 20.4088C173.66 21.6176 173.422 21.8915 172.196 21.9104H170.58ZM169.971 20.7015C170.12 20.7158 170.269 20.7158 170.418 20.7015C170.855 20.6165 171.568 20.9754 171.654 20.2954C171.739 19.6154 171.159 19.266 170.532 19.0771C170.277 18.9999 170.008 18.9828 169.746 19.027C169.483 19.0713 169.235 19.1758 169.02 19.3321C168.65 19.5777 168.193 19.9082 168.317 20.3899C168.441 20.8715 169.02 20.6543 169.41 20.711C169.597 20.7173 169.784 20.7141 169.971 20.7015Z" fill="#3F622E"/>
<path d="M97.3683 22.4015C97.3683 23.0437 97.3683 23.6765 97.3683 24.2904C97.3683 24.9042 97.1877 25.1498 96.5888 25.1404C95.9899 25.1309 95.6381 24.8948 95.6381 24.2715C95.6381 23.176 95.6381 22.0899 95.6381 20.9943C95.6381 19.7288 95.0297 19.1055 94.003 19.1055C93.7563 19.1069 93.5127 19.1594 93.2878 19.2599C93.0628 19.3603 92.8615 19.5064 92.6968 19.6887C92.5321 19.8711 92.4075 20.0856 92.3312 20.3186C92.2549 20.5516 92.2285 20.7978 92.2537 21.0416C92.2537 22.0993 92.2537 23.1571 92.2537 24.2054C92.2537 24.7909 92.0351 25.1498 91.3886 25.1498C90.7422 25.1498 90.571 24.8192 90.571 24.2054C90.571 22.4015 90.571 20.5882 90.571 18.7844C90.571 17.9816 91.1224 17.6228 91.8354 18.0666C91.9863 18.1948 92.1738 18.2728 92.3716 18.2897C92.5693 18.3067 92.7675 18.2617 92.9382 18.1611C95.4575 17.0561 97.3588 18.2744 97.4063 20.9943C97.3778 21.4949 97.3683 21.9482 97.3683 22.4015Z" fill="#3F622E"/>
<path d="M155.597 25.282C154.066 25.282 153.467 24.772 153.22 23.4687C153.104 22.4214 153.07 21.3669 153.115 20.3144C153.115 19.7855 153.172 19.2472 152.402 19.1433C151.975 19.0772 151.832 18.4822 152.051 18.3783C152.84 18.01 153.001 17.1128 153.61 16.6783C154.218 16.2439 154.903 16.0928 154.855 17.2544C154.855 17.9155 155.254 17.9533 155.749 17.9628C156.243 17.9722 156.747 17.8872 156.776 18.5483C156.804 19.2094 156.253 19.2094 155.825 19.1811C154.979 19.1149 154.779 19.5494 154.817 20.2766C154.855 21.0038 154.817 21.6271 154.817 22.3071C154.817 23.2515 154.893 24.092 156.196 23.9787C156.519 23.9787 156.661 24.1581 156.699 24.4604C156.737 24.7626 156.652 25.0837 156.3 25.1781C156.068 25.2282 155.833 25.2629 155.597 25.282Z" fill="#3F622E"/>
<path d="M101.019 19.9368C101.019 21.3628 101.019 22.77 101.019 24.2244C101.019 24.7911 100.886 25.1688 100.211 25.1688C99.5356 25.1688 99.3645 24.8005 99.3645 24.2244C99.3645 21.3912 99.3645 18.5107 99.3645 15.6585C99.3645 15.0069 99.6307 14.7141 100.315 14.7141C101 14.7141 101.019 15.243 101.019 15.7341V19.9084V19.9368Z" fill="#3F622E"/>
</g>
<defs>
<clipPath id="clip0_1400_2062">
<rect width="190.285" height="69.3015" fill="white" transform="translate(0.134277)"/>
</clipPath>
</defs>
</svg>
