<svg width="191" height="70" viewBox="0 0 191 70" fill="none" xmlns="http://www.w3.org/2000/svg">
<g clip-path="url(#clip0_1400_2061)">
<path d="M183.348 0H8.34941C4.1281 0 0.706055 3.39956 0.706055 7.59313V61.7084C0.706055 65.9019 4.1281 69.3015 8.34941 69.3015H183.348C187.569 69.3015 190.992 65.9019 190.992 61.7084V7.59313C190.992 3.39956 187.569 0 183.348 0Z" fill="white"/>
<path d="M4.69897 11.5692C5.25461 10.1644 6.08135 8.88111 7.13268 7.7915C8.6683 6.34173 10.7187 5.5541 12.8367 5.60044H146.443C157.262 5.60044 168.09 5.68544 178.909 5.55322C181.07 5.63555 183.119 6.52776 184.645 8.05039C186.17 9.57301 187.059 11.6131 187.132 13.7602C186.992 28.0776 186.992 42.4045 187.132 56.7408C187.1 58.9342 186.208 61.0287 184.646 62.5789C183.083 64.1292 180.974 65.0129 178.766 65.0422C156.131 64.9855 133.505 65.0422 110.869 65.0422C78.7084 65.0422 46.5378 65.0422 14.3768 65.0989C9.62343 65.0989 6.34363 63.38 4.70848 58.8751L4.69897 11.5692ZM95.9059 7.7915H13.1979C9.26218 7.76316 6.79995 10.2281 6.79995 14.1663C6.79995 28.3074 6.79995 42.4485 6.79995 56.5896C6.78711 57.1155 6.83174 57.6411 6.93304 58.1574C7.589 61.1606 9.96567 62.8795 13.3786 62.8795C46.1956 62.8795 79.0063 62.8795 111.811 62.8795C134.031 62.8795 156.245 62.8795 178.452 62.8795C182.388 62.8795 184.907 60.424 184.907 56.5519C184.907 42.3793 184.907 28.213 184.907 14.053C184.93 13.2601 184.808 12.4697 184.546 11.7203C183.595 9.17979 181.447 7.81039 178.376 7.81039L95.9059 7.7915Z" fill="#3F622E"/>
<path d="M14.4239 35.4346V19.9367C14.4239 19.5967 14.4239 19.2567 14.4239 18.9262C14.3931 18.6225 14.4501 18.3164 14.5881 18.0438C14.7262 17.7711 14.9396 17.5432 15.2034 17.3868C15.8404 17.1034 16.1541 17.7834 16.4678 18.1234C21.9437 23.6199 27.4068 29.1259 32.8573 34.6413C34.1597 35.954 34.1787 35.9824 32.8573 37.2951L18.5688 51.3953L16.7245 53.2841C15.9925 53.9925 15.4696 53.9452 14.8232 53.1425C14.4714 52.5991 14.3171 51.9527 14.3859 51.3103V35.4346H14.4239Z" fill="#3F622E"/>
<path d="M70.352 38.3908C71.4073 38.3908 72.4815 38.4381 73.5368 38.3908C74.4114 38.3436 74.7251 38.6364 74.7631 39.5336C74.8962 42.9902 73.5938 45.7101 70.4661 47.2778C68.9422 48.1256 67.2026 48.5136 65.4601 48.3946C63.7177 48.2755 62.0479 47.6544 60.6552 46.6073C59.6624 45.8919 58.8212 44.9892 58.1797 43.9508C57.5382 42.9123 57.1089 41.7585 56.9164 40.5552C56.724 39.3518 56.7721 38.1226 57.058 36.9378C57.3439 35.753 57.8621 34.6357 58.5828 33.6499C60.0283 31.6956 62.1943 30.3897 64.6066 30.0181C67.019 29.6464 69.4813 30.2391 71.4548 31.6666C72.6241 32.5543 72.5101 33.3949 71.1791 34.0937C70.6943 34.3487 70.4851 34.0087 70.2285 33.7915C69.165 32.9443 67.8653 32.4419 66.5051 32.3524C65.1449 32.2629 63.7898 32.5905 62.6231 33.291C61.4178 34.0289 60.4725 35.12 59.9175 36.414C59.3624 37.7079 59.2249 39.141 59.5239 40.5158C59.7709 41.8635 60.4332 43.1017 61.4192 44.0593C62.4053 45.0169 63.6664 45.6465 65.0283 45.8612C68.0039 46.3334 71.027 44.7373 71.9111 42.2157C72.358 40.9219 72.2629 40.7802 70.9605 40.7802C69.6581 40.7802 68.2986 40.7802 66.9772 40.7802C65.9314 40.7802 65.9695 40.1758 65.9314 39.4486C65.8934 38.7214 66.1311 38.3531 66.9582 38.3908C68.0704 38.4381 69.2112 38.3908 70.352 38.3908Z" fill="#3F622E"/>
<path d="M111.183 46.8622C107.837 49.4026 104.776 48.2032 103.074 46.2577C102.081 44.985 101.548 43.4176 101.56 41.8075C101.572 40.1974 102.129 38.6381 103.14 37.3802C105.213 34.9908 108.008 34.7925 111.231 36.8513C111.449 36.3508 111.468 35.718 112.324 35.718C113.731 35.718 113.883 35.7841 113.883 37.2102C113.883 40.6007 113.883 43.9911 113.883 47.3816C113.883 49.9976 112.79 52.1037 110.175 53.0481C109.059 53.5511 107.818 53.7146 106.608 53.518C105.399 53.3214 104.275 52.7734 103.378 51.9431C103.165 51.7872 102.984 51.5915 102.846 51.367C102.637 50.8476 101.733 50.4226 102.465 49.7521C102.616 49.5814 102.804 49.4467 103.014 49.358C103.225 49.2694 103.453 49.229 103.681 49.2399C103.91 49.2507 104.133 49.3126 104.334 49.4209C104.535 49.5292 104.708 49.6812 104.842 49.8654C105.392 50.5198 106.146 50.9735 106.984 51.1547C107.823 51.336 108.698 51.2346 109.472 50.8665C110.184 50.5044 110.746 49.9049 111.059 49.1729C111.372 48.4409 111.416 47.623 111.183 46.8622ZM111.364 41.8756C111.364 39.524 110.156 37.9846 108.074 37.7107C107.176 37.6601 106.29 37.9347 105.581 38.4834C104.871 39.0322 104.386 39.818 104.215 40.6951C103.955 41.6253 104.012 42.6147 104.376 43.5095C104.741 44.4044 105.392 45.1547 106.23 45.6439C108.74 46.8433 111.345 44.9355 111.364 41.8756Z" fill="#3F622E"/>
<path d="M16.7344 16.9334C17.2193 16.7067 17.5995 17.0089 17.9798 17.2167C25.0718 21.1455 32.1606 25.0837 39.2462 29.0314C40.4346 29.6925 40.4441 29.7869 39.5124 30.7124C38.1815 32.0535 36.822 33.3663 35.5006 34.7168C34.9492 35.274 34.5499 35.274 33.989 34.7168C28.3801 29.0503 22.7648 23.3837 17.1432 17.7172C16.9436 17.5 16.6489 17.3206 16.7344 16.9334Z" fill="#3F622E"/>
<path d="M137.517 39.1083C137.517 36.5867 137.517 34.0651 137.517 31.553C137.517 30.6086 137.811 30.278 138.762 30.3063C140.464 30.363 142.175 30.3063 143.886 30.3063C145.246 30.2915 146.56 30.7954 147.558 31.7142C148.555 32.6331 149.16 33.8971 149.248 35.2457C149.298 35.9339 149.21 36.6251 148.989 37.2793C148.768 37.9334 148.418 38.5373 147.96 39.0558C147.501 39.5743 146.944 39.9971 146.32 40.2996C145.695 40.6021 145.017 40.7782 144.323 40.8177C143.376 40.9188 142.423 40.9535 141.471 40.9216C140.521 40.8744 140.026 41.1672 140.083 42.2533C140.169 43.7927 140.083 45.3415 140.083 46.8809C140.083 47.882 139.532 47.9576 138.771 47.967C138.011 47.9764 137.45 47.8914 137.469 46.8998C137.545 44.3026 137.517 41.7055 137.517 39.1083ZM142.498 38.4567H143.515C144.284 38.4767 145.03 38.1925 145.588 37.6664C146.146 37.1404 146.471 36.4157 146.491 35.6518C146.511 34.8878 146.225 34.1472 145.695 33.5928C145.166 33.0385 144.436 32.7158 143.667 32.6957C142.793 32.6391 141.928 32.6957 141.053 32.6957C140.178 32.6957 140.102 33.0168 140.102 33.7157C140.102 34.4146 140.102 35.2929 140.102 36.0768C140.15 38.8156 139.722 38.4189 142.498 38.4567Z" fill="#3F622E"/>
<path d="M18.2747 53.1236L24.53 46.7865C27.6197 43.6794 30.7379 40.6006 33.799 37.4651C34.5311 36.719 35.0254 36.7001 35.7004 37.4651C36.7746 38.6456 37.9249 39.7317 39.0562 40.8461C39.5696 41.3656 39.6076 41.7906 38.8946 42.1683L18.9306 53.0008C18.7157 53.0593 18.4963 53.1003 18.2747 53.1236Z" fill="#3F622E"/>
<path d="M162.319 46.6731C161.856 47.219 161.271 47.6501 160.611 47.9321C159.951 48.214 159.234 48.3392 158.517 48.2975C155.988 48.2409 154.229 46.7959 154.011 44.5199C153.945 43.4305 154.303 42.3579 155.011 41.5231C155.718 40.6884 156.722 40.1553 157.813 40.0339C159.014 39.8282 160.244 39.8538 161.435 40.1094C161.711 40.1661 162.063 40.4211 162.281 40.1094C162.5 39.7978 162.281 39.3917 162.139 39.0611C161.881 38.665 161.536 38.3321 161.13 38.0873C160.723 37.8425 160.267 37.6922 159.794 37.6477C159.321 37.6032 158.844 37.6655 158.399 37.8302C157.954 37.9948 157.552 38.2575 157.224 38.5983C156.873 38.9039 156.417 39.0627 155.951 39.0416C155.485 39.0205 155.045 38.821 154.724 38.485C154.419 38.1073 154.724 37.8428 154.876 37.5406C156.016 35.6518 158.678 34.8301 161.16 35.4818C162.217 35.7047 163.167 36.2753 163.857 37.1014C164.547 37.9275 164.937 38.9607 164.962 40.0339C165.029 42.2533 164.962 44.4821 164.962 46.7109C164.962 47.3909 164.867 47.9009 164.012 47.882C163.156 47.8631 162.395 48.0048 162.519 46.7959C162.5 46.8431 162.424 46.7865 162.319 46.6731ZM158.916 45.9648C159.643 45.9595 160.353 45.7429 160.957 45.3418C161.562 44.9408 162.036 44.3727 162.319 43.7077C162.557 43.0182 162.414 42.5366 161.663 42.3194C160.607 42.002 159.483 41.9759 158.412 42.2438C157.903 42.336 157.448 42.6138 157.135 43.0227C156.821 43.4316 156.674 43.9421 156.72 44.4537C156.834 45.3321 157.709 45.9459 158.935 45.9648H158.916Z" fill="#3F622E"/>
<path d="M126.498 42.4138C125.244 42.4138 123.998 42.4138 122.743 42.4138C122.04 42.4138 121.793 42.6404 121.983 43.3582C122.138 43.9653 122.457 44.5187 122.906 44.9583C123.355 45.3978 123.917 45.7067 124.531 45.8514C125.163 46.0559 125.842 46.0643 126.479 45.8753C127.116 45.6863 127.68 45.309 128.096 44.7937C128.245 44.6261 128.429 44.491 128.633 44.3968C128.838 44.3025 129.06 44.2511 129.286 44.2458C129.511 44.2405 129.736 44.2814 129.945 44.3659C130.154 44.4504 130.343 44.5767 130.501 44.737C130.919 45.1715 130.501 45.5115 130.339 45.842C128.923 48.1275 125.405 49.0058 122.734 47.7308C121.462 47.0742 120.44 46.0241 119.823 44.7394C119.206 43.4546 119.026 42.0051 119.311 40.6099C119.483 39.2326 120.128 37.9564 121.138 36.9977C122.148 36.039 123.461 35.4567 124.854 35.3495C125.689 35.2826 126.528 35.3935 127.316 35.6747C128.105 35.956 128.823 36.4012 129.424 36.9805C130.025 37.5598 130.495 38.2599 130.802 39.034C131.109 39.8081 131.246 40.6384 131.204 41.4693C131.204 42.1682 130.872 42.4138 130.254 42.4138C128.999 42.4138 127.753 42.4138 126.451 42.4138H126.498ZM125.244 40.2605C126.033 40.2605 126.831 40.2605 127.62 40.2605C128.409 40.2605 128.656 39.996 128.219 39.3161C127.934 38.7886 127.501 38.3545 126.973 38.0663C126.445 37.778 125.844 37.6479 125.244 37.6917C124.659 37.6987 124.087 37.8597 123.586 38.1584C123.085 38.4571 122.673 38.8827 122.392 39.3916C122.078 39.911 122.144 40.251 122.848 40.2605H125.244Z" fill="#3F622E"/>
<path d="M49.0664 35.4911C49.0558 35.8354 48.9534 36.1706 48.7697 36.4626C48.586 36.7546 48.3275 36.993 48.0207 37.1533C45.7676 38.3905 43.486 39.6655 41.2615 40.8743C41.037 41.0215 40.7637 41.0762 40.4994 41.0268C40.235 40.9775 40.0004 40.828 39.845 40.6099C38.5616 39.2877 37.2687 37.9561 35.9567 36.6528C35.847 36.5793 35.757 36.4802 35.6948 36.3641C35.6326 36.248 35.6001 36.1185 35.6001 35.987C35.6001 35.8554 35.6326 35.7259 35.6948 35.6098C35.757 35.4938 35.847 35.3946 35.9567 35.3211C37.5253 33.7912 39.0749 32.2518 40.6245 30.7029C40.7967 30.501 41.0394 30.3713 41.3039 30.3397C41.5684 30.3082 41.8351 30.3772 42.0505 30.5329C44.0279 31.6568 46.0053 32.7523 47.9922 33.8573C48.304 34.0067 48.5689 34.2378 48.7582 34.5257C48.9475 34.8136 49.0541 35.1475 49.0664 35.4911Z" fill="#3F622E"/>
<path d="M94.7268 48.2977C91.0287 48.2977 88.4714 45.5589 88.5094 41.6868C88.4889 40.8546 88.6376 40.0269 88.9467 39.2531C89.2558 38.4794 89.719 37.7756 90.3083 37.1839C90.8977 36.5922 91.6013 36.1248 92.3768 35.8096C93.1524 35.4945 93.984 35.338 94.8219 35.3497C95.6796 35.3512 96.5282 35.5258 97.316 35.8629C98.1037 36.2 98.8144 36.6926 99.4047 37.3109C99.995 37.9291 100.453 38.6601 100.75 39.4594C101.047 40.2587 101.178 41.1096 101.134 41.9607C101.158 42.8017 101.008 43.6387 100.694 44.4201C100.38 45.2015 99.9089 45.9108 99.3087 46.5044C98.7085 47.098 97.9924 47.5633 97.2044 47.8717C96.4164 48.1801 95.5733 48.3251 94.7268 48.2977ZM91.0667 41.8284C91.0667 44.2273 92.5973 45.9461 94.7838 45.965C96.9704 45.9839 98.5865 44.2367 98.5865 41.8568C98.6865 41.3122 98.6649 40.7525 98.5231 40.2172C98.3813 39.6819 98.1228 39.1841 97.7659 38.759C97.4091 38.3339 96.9625 37.9919 96.4579 37.7572C95.9532 37.5225 95.4028 37.4008 94.8456 37.4008C94.2884 37.4008 93.738 37.5225 93.2334 37.7572C92.7288 37.9919 92.2822 38.3339 91.9253 38.759C91.5684 39.1841 91.31 39.6819 91.1682 40.2172C91.0264 40.7525 91.0047 41.3122 91.1048 41.8568L91.0667 41.8284Z" fill="#3F622E"/>
<path d="M75.4856 41.7622C75.4856 37.9845 78.1475 35.3118 81.779 35.359C82.6263 35.3567 83.4651 35.5257 84.2446 35.8557C85.024 36.1857 85.7277 36.6698 86.3129 37.2785C86.898 37.8872 87.3524 38.6078 87.6484 39.3964C87.9443 40.1851 88.0757 41.0254 88.0344 41.8661C88.0736 42.7066 87.9387 43.5462 87.638 44.3328C87.3374 45.1195 86.8774 45.8365 86.2866 46.4394C85.6957 47.0423 84.9866 47.5183 84.2031 47.8379C83.4195 48.1575 82.5783 48.314 81.7315 48.2976C77.9858 48.2787 75.4571 45.6249 75.4856 41.7622ZM81.6649 45.9648C82.186 45.9529 82.6993 45.8373 83.1746 45.6248C83.6499 45.4123 84.0774 45.1073 84.432 44.7278C84.7865 44.3483 85.0608 43.902 85.2387 43.4153C85.4166 42.9286 85.4944 42.4115 85.4676 41.8944C85.4757 41.3983 85.3854 40.9055 85.2018 40.4441C85.0182 39.9827 84.7449 39.5617 84.3975 39.2052C84.0501 38.8487 83.6355 38.5637 83.1772 38.3664C82.719 38.1691 82.2261 38.0634 81.7267 38.0553C81.2273 38.0473 80.7313 38.137 80.2668 38.3194C79.8023 38.5018 79.3786 38.7733 79.0197 39.1184C78.6609 39.4635 78.374 39.8754 78.1754 40.3306C77.9768 40.7859 77.8704 41.2755 77.8623 41.7716C77.8262 42.2969 77.8969 42.824 78.0699 43.3216C78.243 43.8192 78.5149 44.2772 78.8696 44.6683C79.2244 45.0594 79.6546 45.3758 80.1348 45.5985C80.615 45.8212 81.1353 45.9458 81.6649 45.9648Z" fill="#3F622E"/>
<path d="M171.341 43.8117C172.292 41.4223 173.242 39.1651 174.193 36.908C174.287 36.659 174.431 36.4316 174.616 36.2392C174.801 36.0469 175.023 35.8937 175.269 35.7887C175.515 35.6837 175.779 35.6292 176.047 35.6284C176.315 35.6276 176.58 35.6806 176.826 35.7841C177.492 36.058 177.092 36.4735 176.95 36.8135C176.075 38.8535 175.191 40.8934 174.298 42.9334C172.976 45.9366 171.607 48.9115 170.362 51.9431C170.231 52.3921 169.93 52.7735 169.523 53.0075C169.115 53.2416 168.632 53.3103 168.175 53.1992C167.367 53.1331 167.301 52.8025 167.605 52.1698C168.251 50.8098 168.85 49.4215 169.506 48.0804C169.682 47.7518 169.774 47.3854 169.774 47.0132C169.774 46.6411 169.682 46.2747 169.506 45.9461C168.188 43.0687 166.901 40.1725 165.646 37.2574C165.456 36.823 164.8 36.313 165.513 35.8124C165.941 35.6375 166.414 35.6037 166.862 35.7159C167.311 35.8281 167.711 36.0805 168.004 36.4358C168.888 38.4757 169.725 40.5345 170.59 42.5839C170.73 43.0505 170.989 43.4733 171.341 43.8117Z" fill="#3F622E"/>
<path d="M118.218 39.0517C118.218 41.6205 118.218 44.1799 118.218 46.7393C118.218 47.6837 117.847 47.9859 116.934 47.9859C116.022 47.9859 115.622 47.7403 115.632 46.7676C115.632 41.674 115.632 36.5867 115.632 31.5058C115.632 30.5614 116.003 30.2686 116.915 30.2875C117.828 30.3064 118.237 30.4858 118.218 31.4774C118.18 33.999 118.218 36.5301 118.218 39.0517Z" fill="#3F622E"/>
<path d="M150.465 39.1746C150.465 36.6152 150.465 34.0464 150.465 31.487C150.465 30.4953 150.873 30.297 151.757 30.2781C152.642 30.2592 153.05 30.5803 153.041 31.5153C153.041 36.6089 153.041 41.6962 153.041 46.7771C153.041 47.7215 152.632 47.9954 151.738 47.986C150.845 47.9765 150.446 47.7121 150.465 46.7488C150.503 44.2178 150.465 41.6962 150.465 39.1746Z" fill="#3F622E"/>
<path d="M110.032 22.8172C110.032 21.2872 110.032 19.795 110.032 18.3028C110.032 17.8401 109.956 17.2451 110.698 17.2168C111.439 17.1884 111.382 17.774 111.392 18.2556C111.392 20.2956 111.392 22.3292 111.392 24.3566C111.392 24.7532 111.496 25.2349 110.935 25.386C110.699 25.4572 110.445 25.4454 110.217 25.3525C109.988 25.2596 109.799 25.0913 109.681 24.876C108.587 23.2421 107.485 21.6366 106.325 19.9272C105.935 20.4372 106.106 20.9378 106.097 21.3816C106.097 22.4772 106.097 23.5633 106.097 24.6588C106.097 25.0649 105.983 25.4049 105.46 25.4049C104.937 25.4049 104.823 25.0838 104.794 24.6777C104.766 24.2716 104.794 23.9977 104.794 23.6577C104.794 21.8539 104.794 20.0406 104.794 18.2367C104.794 17.8306 104.794 17.3679 105.298 17.2262C105.519 17.1634 105.755 17.1769 105.967 17.2643C106.18 17.3518 106.356 17.5081 106.467 17.7078C107.405 19.1245 108.356 20.5317 109.319 21.9294C109.462 22.2222 109.576 22.5999 110.032 22.8172Z" fill="#3F622E"/>
<path d="M62.9839 21.1078C63.3832 21.2589 64.3054 20.6261 64.5525 21.7406C64.8853 23.2611 64.5525 24.3944 63.6019 24.9138C62.7273 25.4183 61.7171 25.6419 60.7096 25.5539C59.7021 25.466 58.7466 25.0709 57.9739 24.4227C57.3296 23.6628 56.9349 22.725 56.8432 21.7356C56.7514 20.7462 56.9669 19.7525 57.4606 18.8884C57.7821 18.4263 58.1922 18.0318 58.6675 17.7275C59.1428 17.4232 59.6738 17.2151 60.2302 17.1151C60.7866 17.0151 61.3574 17.0251 61.9099 17.1447C62.4624 17.2642 62.9857 17.4909 63.4498 17.8118C63.8278 18.1277 64.108 18.5436 64.2578 19.0112C64.3624 19.3323 64.3909 19.6156 64.0107 19.7667C63.8646 19.8538 63.6912 19.8837 63.5242 19.8505C63.3572 19.8173 63.2086 19.7235 63.1075 19.5873C61.8622 18.1329 60.5788 17.8684 59.3049 18.7467C58.7471 19.2853 58.373 19.9838 58.2349 20.7442C58.0968 21.5046 58.2017 22.289 58.5348 22.9872C58.9301 23.5935 59.5328 24.0374 60.2316 24.237C60.9305 24.4366 61.6784 24.3785 62.3375 24.0733C62.9364 23.8277 63.2882 23.4688 63.1551 22.7889C63.022 22.1089 62.4706 22.3544 62.0523 22.2978C61.8654 22.2883 61.6782 22.2883 61.4914 22.2978C61.1396 22.2978 60.902 22.1655 60.8925 21.7783C60.8763 21.6945 60.8796 21.6082 60.9023 21.5259C60.925 21.4436 60.9665 21.3676 61.0234 21.3037C61.0804 21.2398 61.1513 21.1898 61.2308 21.1574C61.3103 21.1251 61.3962 21.1114 61.4819 21.1172C61.9382 21.0889 62.3565 21.1078 62.9839 21.1078Z" fill="#3F622E"/>
<path d="M103.644 21.4763C103.677 22.0148 103.597 22.5543 103.409 23.0605C103.221 23.5667 102.93 24.0285 102.552 24.4166C102.175 24.8047 101.721 25.1107 101.218 25.315C100.715 25.5193 100.175 25.6175 99.6324 25.6034C99.0802 25.5964 98.5354 25.4763 98.0322 25.2505C97.5289 25.0247 97.078 24.6981 96.7076 24.2911C96.3373 23.8842 96.0555 23.4057 95.8799 22.8856C95.7043 22.3655 95.6386 21.815 95.6871 21.2685C95.7537 18.6808 97.3698 16.9808 99.7084 17.0375C102.047 17.0942 103.692 18.8886 103.644 21.4763ZM102.228 21.2968C102.228 19.408 101.22 18.218 99.6419 18.2558C98.0638 18.2936 97.0561 19.5024 97.0656 21.3441C97.0751 23.1857 98.1683 24.4134 99.6989 24.3945C101.229 24.3756 102.237 23.2046 102.228 21.2968Z" fill="#3F622E"/>
<path d="M65.9126 21.1831C65.9126 20.1632 65.9126 19.1526 65.9126 18.1327C65.9126 17.4621 66.1693 17.1882 66.8633 17.1882C68.2607 17.1882 69.7153 17.1882 71.0652 17.1882C71.5025 17.1882 71.9588 17.1882 71.9398 17.8115C71.9208 18.4349 71.436 18.3782 70.9892 18.3876C70.0385 18.3876 69.0878 18.4349 68.1372 18.3876C67.1865 18.3404 67.1865 18.8315 67.1865 19.5209C67.1865 20.2104 67.3006 20.607 68.1372 20.5693C68.9737 20.5315 69.8769 20.5693 70.742 20.5693C71.1698 20.5693 71.6356 20.5693 71.6927 21.1548C71.7497 21.7403 71.2553 21.7781 70.818 21.7876C69.991 21.7876 69.1449 21.8348 68.3178 21.7876C67.4907 21.7403 67.215 22.1275 67.2435 22.9303C67.2721 23.7331 67.2435 24.2997 68.2703 24.243C69.297 24.1864 70.2381 24.243 71.2173 24.243C71.6356 24.243 72.168 24.243 72.168 24.8191C72.168 25.3952 71.6356 25.4425 71.2173 25.4425C69.8103 25.4425 68.3653 25.4425 67.0154 25.4425C66.2929 25.4425 65.9696 25.1875 65.9887 24.4508C65.9411 23.3647 65.9126 22.2692 65.9126 21.1831Z" fill="#3F622E"/>
<path d="M88.2814 21.8631V20.5031C88.2814 18.6143 88.2814 18.6143 86.38 18.3876C85.9522 18.3876 85.629 18.2271 85.648 17.736C85.667 17.2449 85.9903 17.1882 86.361 17.1882H91.4661C91.8749 17.1882 92.2456 17.2827 92.2266 17.8021C92.2076 18.3215 91.8178 18.3593 91.4281 18.3782C91.2382 18.3924 91.0475 18.3924 90.8577 18.3782C89.907 18.246 89.6218 18.7276 89.6408 19.6248C89.6884 21.202 89.6408 22.7792 89.6408 24.3469C89.6408 24.8286 89.6408 25.3952 88.9278 25.3763C88.2148 25.3575 88.2719 24.7908 88.2623 24.3092C88.2719 23.5158 88.2814 22.6659 88.2814 21.8631Z" fill="#3F622E"/>
<path d="M75.343 21.9294C75.343 21.0984 75.343 20.2673 75.343 19.4456C75.343 18.624 75.0958 18.3123 74.2972 18.3973C74.0312 18.4115 73.7647 18.4115 73.4987 18.3973C73.1279 18.3973 72.8142 18.2934 72.7952 17.8496C72.7762 17.4057 73.1279 17.2168 73.5462 17.2168H78.6608C79.0315 17.2168 79.3643 17.3018 79.3833 17.7551C79.4023 18.2084 79.0981 18.3595 78.6703 18.4162C76.769 18.6618 76.769 18.6712 76.769 20.6262C76.769 21.9011 76.769 23.1855 76.769 24.4605C76.769 24.9044 76.769 25.4049 76.1225 25.4049C75.476 25.4049 75.3905 24.9044 75.381 24.4038C75.381 23.5822 75.381 22.7511 75.381 21.9294H75.343Z" fill="#3F622E"/>
<path d="M84.6691 21.3437C84.6691 22.3636 84.6691 23.3836 84.6691 24.3941C84.6691 24.8947 84.6691 25.433 83.9371 25.4141C83.2051 25.3952 83.2716 24.9136 83.2716 24.4697C83.2716 22.392 83.2716 20.3237 83.2716 18.246C83.2716 17.7454 83.2716 17.2071 84.0036 17.2354C84.7356 17.2638 84.6596 17.8304 84.6691 18.3121C84.6786 19.3037 84.6691 20.3237 84.6691 21.3437Z" fill="#3F622E"/>
</g>
<defs>
<clipPath id="clip0_1400_2061">
<rect width="190.285" height="69.3015" fill="white" transform="translate(0.706055)"/>
</clipPath>
</defs>
</svg>
