<svg width="147" height="54" viewBox="0 0 147 54" fill="none" xmlns="http://www.w3.org/2000/svg">
<g clip-path="url(#clip0_464_1678)">
<path d="M140.99 0H6.18704C2.93534 0 0.299316 2.6187 0.299316 5.84904V47.5343C0.299316 50.7647 2.93534 53.3834 6.18704 53.3834H140.99C144.241 53.3834 146.877 50.7647 146.877 47.5343V5.84904C146.877 2.6187 144.241 0 140.99 0Z" fill="white"/>
<path d="M3.375 8.91171C3.80301 7.82961 4.43985 6.84108 5.2497 6.00174C6.4326 4.88498 8.01206 4.27826 9.64353 4.31396H112.562C120.895 4.31396 129.236 4.37944 137.57 4.27759C139.234 4.341 140.813 5.02828 141.988 6.20117C143.164 7.37406 143.848 8.94554 143.904 10.5995C143.797 21.6283 143.797 32.6643 143.904 43.7077C143.88 45.3973 143.193 47.0107 141.989 48.2049C140.786 49.399 139.161 50.0798 137.46 50.1023C120.024 50.0587 102.595 50.1023 85.1588 50.1023C60.3849 50.1023 35.6037 50.1023 10.8299 50.146C7.16834 50.146 4.64189 48.8219 3.38232 45.3518L3.375 8.91171ZM73.6323 6.00174H9.9218C6.89006 5.97992 4.99339 7.87867 4.99339 10.9123C4.99339 21.8053 4.99339 32.6983 4.99339 43.5913C4.9835 43.9963 5.01788 44.4012 5.09592 44.7989C5.60121 47.1123 7.43197 48.4364 10.0609 48.4364C35.3401 48.4364 60.6144 48.4364 85.8838 48.4364C103 48.4364 120.112 48.4364 137.218 48.4364C140.25 48.4364 142.191 46.5449 142.191 43.5622C142.191 32.6449 142.191 21.7325 142.191 10.825C142.208 10.2143 142.114 9.60542 141.912 9.02811C141.18 7.07116 139.525 6.01629 137.16 6.01629L73.6323 6.00174Z" fill="#030303"/>
<path d="M10.8666 27.2955V15.3574C10.8666 15.0955 10.8666 14.8336 10.8666 14.5789C10.8428 14.345 10.8867 14.1092 10.9931 13.8992C11.0994 13.6892 11.2639 13.5136 11.467 13.3931C11.9577 13.1749 12.1994 13.6987 12.441 13.9606C16.6591 18.1946 20.8674 22.4359 25.0659 26.6844C26.0692 27.6956 26.0838 27.7174 25.0659 28.7287L14.0594 39.5901L12.6387 41.0451C12.0749 41.5907 11.6721 41.5543 11.1741 40.936C10.9032 40.5174 10.7843 40.0195 10.8373 39.5246V27.2955H10.8666Z" fill="#030303"/>
<path d="M53.9481 29.5725C54.761 29.5725 55.5885 29.6089 56.4014 29.5725C57.0751 29.5362 57.3167 29.7617 57.346 30.4528C57.4486 33.1154 56.4453 35.2106 54.036 36.4182C52.8621 37.0713 51.5221 37.3702 50.1799 37.2785C48.8376 37.1867 47.5514 36.7083 46.4786 35.9017C45.7139 35.3507 45.0659 34.6553 44.5717 33.8554C44.0775 33.0555 43.7469 32.1666 43.5986 31.2397C43.4504 30.3128 43.4874 29.3659 43.7077 28.4532C43.9279 27.5405 44.327 26.6799 44.8822 25.9205C45.9957 24.4151 47.6642 23.4092 49.5224 23.1229C51.3807 22.8366 53.2774 23.2932 54.7976 24.3928C55.6983 25.0766 55.6105 25.7241 54.5852 26.2624C54.2118 26.4589 54.0507 26.197 53.8529 26.0296C53.0338 25.377 52.0326 24.9901 50.9848 24.9211C49.937 24.8521 48.8932 25.1045 47.9945 25.6441C47.0661 26.2125 46.3379 27.053 45.9103 28.0497C45.4828 29.0465 45.3769 30.1504 45.6072 31.2094C45.7974 32.2475 46.3076 33.2014 47.0671 33.939C47.8267 34.6766 48.7982 35.1616 49.8472 35.327C52.1394 35.6907 54.4681 34.4613 55.1491 32.5189C55.4933 31.5222 55.4201 31.4131 54.4168 31.4131C53.4136 31.4131 52.3664 31.4131 51.3485 31.4131C50.5429 31.4131 50.5722 30.9475 50.5429 30.3873C50.5136 29.8271 50.6967 29.5434 51.3338 29.5725C52.1906 29.6089 53.0694 29.5725 53.9481 29.5725Z" fill="#030303"/>
<path d="M85.4003 36.0982C82.8226 38.0552 80.4646 37.1313 79.1537 35.6326C78.3889 34.6523 77.9782 33.4449 77.9875 32.2046C77.9968 30.9643 78.4256 29.7632 79.205 28.7942C80.8014 26.9537 82.9544 26.8009 85.4369 28.3868C85.6053 28.0012 85.62 27.5138 86.2791 27.5138C87.3629 27.5138 87.48 27.5647 87.48 28.6633C87.48 31.275 87.48 33.8867 87.48 36.4984C87.48 38.5135 86.6379 40.1358 84.6241 40.8633C83.7642 41.2508 82.8081 41.3767 81.8763 41.2253C80.9446 41.0738 80.0788 40.6517 79.3881 40.0121C79.2237 39.892 79.0845 39.7413 78.978 39.5684C78.8169 39.1682 78.1212 38.8409 78.6851 38.3244C78.8013 38.1929 78.9458 38.0891 79.108 38.0208C79.2701 37.9525 79.4457 37.9214 79.6216 37.9298C79.7975 37.9382 79.9693 37.9859 80.1241 38.0693C80.2789 38.1527 80.4128 38.2697 80.5158 38.4117C80.9394 38.9157 81.52 39.2652 82.1659 39.4048C82.8117 39.5445 83.486 39.4664 84.0822 39.1828C84.6311 38.9038 85.0639 38.4421 85.3049 37.8782C85.5458 37.3144 85.5796 36.6843 85.4003 36.0982ZM85.5394 32.2571C85.5394 30.4456 84.6094 29.2598 83.0057 29.0488C82.314 29.0099 81.6316 29.2213 81.0849 29.6441C80.5382 30.0668 80.1643 30.672 80.0325 31.3477C79.8325 32.0643 79.8763 32.8264 80.157 33.5157C80.4377 34.205 80.9397 34.783 81.585 35.1598C83.5183 36.0837 85.5248 34.6141 85.5394 32.2571Z" fill="#030303"/>
<path d="M12.646 13.044C13.0195 12.8694 13.3124 13.1022 13.6053 13.2622C19.0683 16.2886 24.5288 19.3223 29.987 22.3632C30.9023 22.8724 30.9097 22.9452 30.192 23.6581C29.1668 24.6912 28.1196 25.7024 27.1017 26.7427C26.6769 27.1719 26.3694 27.1719 25.9373 26.7427C21.6167 22.3777 17.2912 18.0128 12.9609 13.6478C12.8071 13.4805 12.5801 13.3423 12.646 13.044Z" fill="#030303"/>
<path d="M105.685 30.1255C105.685 28.1831 105.685 26.2407 105.685 24.3056C105.685 23.5781 105.912 23.3234 106.645 23.3453C107.956 23.3889 109.274 23.3453 110.592 23.3453C111.64 23.3338 112.652 23.722 113.42 24.4298C114.189 25.1376 114.655 26.1112 114.722 27.1501C114.761 27.6802 114.693 28.2127 114.523 28.7165C114.352 29.2204 114.083 29.6856 113.73 30.085C113.377 30.4844 112.947 30.8101 112.466 31.0431C111.986 31.2762 111.463 31.4118 110.929 31.4423C110.199 31.5201 109.465 31.5468 108.732 31.5223C108 31.4859 107.619 31.7114 107.663 32.5481C107.729 33.7339 107.663 34.927 107.663 36.1128C107.663 36.8839 107.238 36.9421 106.652 36.9494C106.066 36.9567 105.634 36.8912 105.649 36.1273C105.707 34.1267 105.685 32.1261 105.685 30.1255ZM109.523 29.6235H110.306C110.899 29.639 111.473 29.42 111.903 29.0148C112.333 28.6096 112.583 28.0514 112.598 27.4629C112.614 26.8744 112.393 26.3039 111.986 25.8769C111.578 25.4498 111.016 25.2013 110.423 25.1858C109.75 25.1422 109.083 25.1858 108.41 25.1858C107.736 25.1858 107.677 25.4332 107.677 25.9715C107.677 26.5099 107.677 27.1864 107.677 27.7903C107.714 29.9 107.384 29.5944 109.523 29.6235Z" fill="#030303"/>
<path d="M13.8323 40.9214L18.6508 36.04C21.0308 33.6465 23.4328 31.2749 25.7908 28.8596C26.3547 28.2849 26.7355 28.2703 27.2554 28.8596C28.0829 29.769 28.969 30.6056 29.8405 31.464C30.2359 31.8642 30.2652 32.1915 29.716 32.4825L14.3376 40.8269C14.172 40.8719 14.003 40.9035 13.8323 40.9214Z" fill="#030303"/>
<path d="M124.791 35.9526C124.435 36.3731 123.984 36.7051 123.476 36.9223C122.967 37.1396 122.415 37.236 121.862 37.2039C119.914 37.1602 118.559 36.0472 118.391 34.2939C118.341 33.4548 118.616 32.6285 119.161 31.9855C119.706 31.3425 120.479 30.9319 121.32 30.8383C122.245 30.6799 123.192 30.6996 124.11 30.8965C124.323 30.9402 124.593 31.1366 124.762 30.8965C124.93 30.6565 124.762 30.3436 124.652 30.089C124.453 29.7839 124.187 29.5274 123.875 29.3388C123.562 29.1503 123.21 29.0345 122.846 29.0002C122.482 28.9659 122.114 29.014 121.771 29.1408C121.429 29.2676 121.119 29.4699 120.866 29.7325C120.596 29.9679 120.244 30.0903 119.885 30.074C119.526 30.0577 119.188 29.9041 118.94 29.6452C118.706 29.3542 118.94 29.1505 119.057 28.9177C119.936 27.4628 121.986 26.8298 123.898 27.3318C124.712 27.5035 125.444 27.9431 125.976 28.5794C126.507 29.2158 126.807 30.0116 126.827 30.8383C126.878 32.5479 126.827 34.2648 126.827 35.9817C126.827 36.5055 126.754 36.8983 126.095 36.8838C125.436 36.8692 124.85 36.9784 124.945 36.0472C124.93 36.0835 124.872 36.0399 124.791 35.9526ZM122.17 35.407C122.73 35.4028 123.276 35.236 123.742 34.9271C124.208 34.6181 124.573 34.1806 124.791 33.6683C124.974 33.1372 124.864 32.7662 124.286 32.5989C123.472 32.3544 122.606 32.3343 121.781 32.5407C121.39 32.6117 121.039 32.8257 120.797 33.1407C120.556 33.4557 120.442 33.8488 120.478 34.243C120.566 34.9196 121.24 35.3924 122.184 35.407H122.17Z" fill="#030303"/>
<path d="M97.1979 32.6717C96.2312 32.6717 95.2719 32.6717 94.3053 32.6717C93.7634 32.6717 93.573 32.8463 93.7194 33.3992C93.8387 33.8669 94.0847 34.2931 94.4307 34.6317C94.7767 34.9703 95.2095 35.2083 95.682 35.3197C96.1688 35.4773 96.6925 35.4837 97.1831 35.3381C97.6737 35.1926 98.108 34.9019 98.4281 34.505C98.5436 34.3759 98.6846 34.2718 98.8424 34.1992C99.0001 34.1266 99.1712 34.087 99.3449 34.0829C99.5187 34.0788 99.6915 34.1103 99.8525 34.1754C100.014 34.2405 100.159 34.3378 100.281 34.4613C100.603 34.796 100.281 35.0579 100.156 35.3125C99.0652 37.073 96.3557 37.7496 94.2979 36.7675C93.3185 36.2616 92.5314 35.4528 92.0558 34.4631C91.5801 33.4735 91.4418 32.3569 91.6616 31.2822C91.7936 30.2212 92.2907 29.2381 93.0688 28.4996C93.8469 27.7611 94.8581 27.3126 95.931 27.23C96.574 27.1785 97.2207 27.2639 97.8279 27.4806C98.435 27.6972 98.9887 28.0401 99.4517 28.4864C99.9148 28.9326 100.277 29.4719 100.513 30.0682C100.749 30.6645 100.855 31.3041 100.823 31.9442C100.823 32.4825 100.566 32.6717 100.09 32.6717C99.1238 32.6717 98.1645 32.6717 97.1613 32.6717H97.1979ZM96.2312 31.013C96.839 31.013 97.4542 31.013 98.062 31.013C98.6698 31.013 98.8602 30.8093 98.5233 30.2855C98.3038 29.8792 97.9705 29.5448 97.5637 29.3228C97.157 29.1007 96.6941 29.0005 96.2312 29.0342C95.7811 29.0396 95.3405 29.1637 94.9545 29.3938C94.5685 29.6239 94.2509 29.9517 94.0343 30.3437C93.7927 30.7438 93.8439 31.0057 94.3858 31.013H96.2312Z" fill="#030303"/>
<path d="M37.5517 27.3391C37.5435 27.6043 37.4646 27.8625 37.3231 28.0875C37.1816 28.3124 36.9825 28.496 36.7461 28.6195C35.0106 29.5725 33.253 30.5547 31.5395 31.4858C31.3665 31.5992 31.156 31.6413 30.9524 31.6033C30.7488 31.5653 30.568 31.4501 30.4483 31.2821C29.4597 30.2637 28.4638 29.2379 27.4532 28.234C27.3686 28.1774 27.2993 28.101 27.2514 28.0116C27.2035 27.9221 27.1785 27.8224 27.1785 27.7211C27.1785 27.6198 27.2035 27.52 27.2514 27.4306C27.2993 27.3412 27.3686 27.2648 27.4532 27.2082C28.6615 26.0297 29.8552 24.8438 31.0488 23.6508C31.1815 23.4952 31.3684 23.3953 31.5722 23.371C31.7759 23.3467 31.9813 23.3999 32.1473 23.5198C33.6705 24.3855 35.1937 25.2294 36.7242 26.0806C36.9644 26.1956 37.1684 26.3737 37.3142 26.5955C37.46 26.8173 37.5421 27.0744 37.5517 27.3391Z" fill="#030303"/>
<path d="M72.7243 37.204C69.8756 37.204 67.9057 35.0943 67.935 32.1116C67.9192 31.4705 68.0338 30.8329 68.2719 30.2369C68.51 29.6409 68.8667 29.0988 69.3207 28.643C69.7748 28.1872 70.3167 27.8271 70.9141 27.5844C71.5115 27.3416 72.1521 27.2211 72.7975 27.2301C73.4583 27.2312 74.1119 27.3657 74.7187 27.6254C75.3256 27.8851 75.873 28.2645 76.3277 28.7408C76.7824 29.217 77.135 29.78 77.364 30.3958C77.5931 31.0115 77.6938 31.667 77.66 32.3225C77.6784 32.9704 77.5631 33.6151 77.3212 34.217C77.0794 34.819 76.7161 35.3654 76.2538 35.8226C75.7914 36.2799 75.2398 36.6383 74.6328 36.8759C74.0258 37.1134 73.3764 37.2251 72.7243 37.204ZM69.9049 32.2207C69.9049 34.0685 71.0839 35.3925 72.7682 35.4071C74.4525 35.4216 75.6975 34.0758 75.6975 32.2425C75.7745 31.823 75.7579 31.3919 75.6486 30.9795C75.5394 30.5672 75.3403 30.1837 75.0654 29.8562C74.7905 29.5288 74.4465 29.2653 74.0578 29.0846C73.669 28.9038 73.2451 28.8101 72.8158 28.8101C72.3866 28.8101 71.9627 28.9038 71.5739 29.0846C71.1852 29.2653 70.8412 29.5288 70.5663 29.8562C70.2914 30.1837 70.0923 30.5672 69.9831 30.9795C69.8738 31.3919 69.8572 31.823 69.9342 32.2425L69.9049 32.2207Z" fill="#030303"/>
<path d="M57.9025 32.1697C57.9025 29.2597 59.953 27.2009 62.7504 27.2373C63.403 27.2355 64.0492 27.3657 64.6496 27.6199C65.25 27.8741 65.7921 28.247 66.2428 28.7158C66.6936 29.1847 67.0436 29.7398 67.2716 30.3474C67.4996 30.9549 67.6007 31.6021 67.5689 32.2497C67.5991 32.8972 67.4952 33.5439 67.2636 34.1499C67.032 34.7558 66.6777 35.3081 66.2226 35.7726C65.7674 36.237 65.2212 36.6036 64.6176 36.8499C64.0141 37.0961 63.3661 37.2166 62.7138 37.2039C59.8285 37.1894 57.8806 35.1451 57.9025 32.1697ZM62.6625 35.407C63.0639 35.3978 63.4593 35.3088 63.8254 35.1451C64.1915 34.9814 64.5209 34.7465 64.794 34.4541C65.0671 34.1618 65.2784 33.818 65.4154 33.4431C65.5524 33.0682 65.6124 32.6698 65.5917 32.2715C65.598 31.8894 65.5284 31.5098 65.387 31.1543C65.2455 30.7989 65.035 30.4746 64.7674 30.2C64.4998 29.9254 64.1804 29.7059 63.8274 29.5539C63.4744 29.4019 63.0948 29.3205 62.7101 29.3143C62.3254 29.3081 61.9433 29.3772 61.5855 29.5177C61.2277 29.6582 60.9013 29.8673 60.6249 30.1332C60.3485 30.399 60.1275 30.7163 59.9745 31.067C59.8215 31.4176 59.7395 31.7948 59.7333 32.177C59.7055 32.5816 59.7599 32.9876 59.8932 33.3709C60.0266 33.7542 60.236 34.107 60.5093 34.4083C60.7825 34.7096 61.1139 34.9533 61.4838 35.1248C61.8537 35.2964 62.2545 35.3924 62.6625 35.407Z" fill="#030303"/>
<path d="M131.741 33.7483C132.473 31.9078 133.205 30.1691 133.937 28.4303C134.01 28.2386 134.121 28.0634 134.263 27.9152C134.406 27.7671 134.577 27.649 134.766 27.5682C134.956 27.4873 135.159 27.4453 135.366 27.4447C135.572 27.4441 135.776 27.4849 135.966 27.5646C136.479 27.7756 136.171 28.0957 136.061 28.3576C135.387 29.929 134.706 31.5004 134.018 33.0717C133 35.3852 131.946 37.6768 130.986 40.012C130.885 40.3579 130.654 40.6517 130.34 40.832C130.026 41.0122 129.654 41.0651 129.302 40.9796C128.68 40.9287 128.628 40.674 128.863 40.1866C129.361 39.139 129.822 38.0696 130.327 37.0366C130.463 36.7834 130.533 36.5011 130.533 36.2145C130.533 35.9279 130.463 35.6456 130.327 35.3924C129.312 33.176 128.321 30.945 127.354 28.6995C127.208 28.3649 126.702 27.972 127.252 27.5865C127.581 27.4517 127.945 27.4256 128.291 27.5121C128.636 27.5985 128.944 27.7929 129.17 28.0666C129.851 29.638 130.496 31.2239 131.162 32.8026C131.27 33.162 131.469 33.4877 131.741 33.7483Z" fill="#030303"/>
<path d="M90.8196 30.0819C90.8196 32.0606 90.8196 34.0321 90.8196 36.0036C90.8196 36.7311 90.534 36.9639 89.831 36.9639C89.128 36.9639 88.8204 36.7748 88.8278 36.0255C88.8278 32.1019 88.8278 28.1831 88.8278 24.2692C88.8278 23.5417 89.1134 23.3162 89.8164 23.3307C90.5194 23.3453 90.8343 23.4835 90.8196 24.2474C90.7903 26.1898 90.8196 28.1395 90.8196 30.0819Z" fill="#030303"/>
<path d="M115.659 30.1763C115.659 28.2048 115.659 26.226 115.659 24.2545C115.659 23.4907 115.974 23.3379 116.655 23.3234C117.336 23.3088 117.651 23.5562 117.644 24.2764C117.644 28.2 117.644 32.1187 117.644 36.0326C117.644 36.7601 117.329 36.9711 116.641 36.9638C115.952 36.9566 115.645 36.7529 115.659 36.0108C115.689 34.0611 115.659 32.1187 115.659 30.1763Z" fill="#030303"/>
<path d="M84.5142 17.5763C84.5142 16.3977 84.5142 15.2483 84.5142 14.0988C84.5142 13.7424 84.4557 13.284 85.0269 13.2622C85.5981 13.2404 85.5541 13.6914 85.5614 14.0625C85.5614 15.6338 85.5614 17.2004 85.5614 18.7621C85.5614 19.0676 85.642 19.4386 85.2099 19.555C85.0279 19.6099 84.8324 19.6008 84.6563 19.5292C84.4803 19.4577 84.3344 19.3281 84.2433 19.1622C83.4011 17.9036 82.5517 16.6669 81.6583 15.3501C81.358 15.743 81.4898 16.1285 81.4825 16.4705C81.4825 17.3144 81.4825 18.151 81.4825 18.9949C81.4825 19.3077 81.3946 19.5696 80.9919 19.5696C80.5891 19.5696 80.5012 19.3222 80.4792 19.0094C80.4573 18.6966 80.4792 18.4856 80.4792 18.2237C80.4792 16.8342 80.4792 15.4374 80.4792 14.0479C80.4792 13.7351 80.4792 13.3786 80.8674 13.2695C81.0376 13.2211 81.2193 13.2315 81.3829 13.2989C81.5465 13.3662 81.6823 13.4867 81.7681 13.6405C82.4906 14.7318 83.223 15.8157 83.965 16.8924C84.0749 17.1179 84.1627 17.4089 84.5142 17.5763Z" fill="#030303"/>
<path d="M48.2726 16.2595C48.5801 16.3759 49.2905 15.8885 49.4809 16.7469C49.7372 17.9182 49.4809 18.7912 48.7486 19.1913C48.0748 19.5799 47.2967 19.7521 46.5206 19.6844C45.7446 19.6167 45.0085 19.3123 44.4133 18.813C43.917 18.2276 43.613 17.5052 43.5423 16.7431C43.4716 15.9809 43.6376 15.2155 44.0179 14.5499C44.2655 14.194 44.5815 13.8901 44.9476 13.6557C45.3137 13.4213 45.7228 13.2609 46.1513 13.1839C46.5799 13.1069 47.0196 13.1146 47.4452 13.2067C47.8708 13.2988 48.2739 13.4734 48.6314 13.7206C48.9226 13.9639 49.1384 14.2843 49.2538 14.6445C49.3344 14.8918 49.3564 15.1101 49.0634 15.2265C48.951 15.2935 48.8173 15.3165 48.6887 15.291C48.5601 15.2654 48.4456 15.1931 48.3678 15.0882C47.4084 13.9679 46.4198 13.7642 45.4385 14.4408C45.0089 14.8556 44.7207 15.3937 44.6143 15.9794C44.5079 16.5652 44.5887 17.1694 44.8454 17.7072C45.1499 18.1743 45.6141 18.5162 46.1524 18.67C46.6908 18.8237 47.2669 18.7789 47.7746 18.5438C48.2359 18.3547 48.5069 18.0782 48.4044 17.5544C48.3019 17.0306 47.8771 17.2198 47.5549 17.1761C47.411 17.1689 47.2668 17.1689 47.1228 17.1761C46.8519 17.1761 46.6688 17.0743 46.6615 16.776C46.649 16.7115 46.6516 16.6449 46.6691 16.5815C46.6866 16.5182 46.7185 16.4596 46.7623 16.4104C46.8062 16.3612 46.8609 16.3226 46.9221 16.2977C46.9833 16.2728 47.0495 16.2623 47.1155 16.2668C47.467 16.245 47.7892 16.2595 48.2726 16.2595Z" fill="#030303"/>
<path d="M79.5932 16.5432C79.6187 16.958 79.5572 17.3736 79.4123 17.7635C79.2675 18.1534 79.0427 18.5092 78.7521 18.8082C78.4615 19.1071 78.1114 19.3428 77.7242 19.5002C77.337 19.6575 76.9211 19.7332 76.5029 19.7223C76.0775 19.717 75.6579 19.6244 75.2702 19.4505C74.8826 19.2765 74.5352 19.025 74.2499 18.7115C73.9646 18.398 73.7476 18.0295 73.6123 17.6288C73.477 17.2282 73.4265 16.8041 73.4638 16.3831C73.5151 14.3898 74.76 13.0803 76.5615 13.124C78.3629 13.1676 79.6298 14.5499 79.5932 16.5432ZM78.5021 16.405C78.5021 14.95 77.7258 14.0333 76.5102 14.0624C75.2946 14.0915 74.5183 15.0227 74.5257 16.4413C74.533 17.86 75.3751 18.8057 76.5541 18.7911C77.7332 18.7766 78.5094 17.8745 78.5021 16.405Z" fill="#030303"/>
<path d="M50.5281 16.3176C50.5281 15.532 50.5281 14.7535 50.5281 13.9678C50.5281 13.4513 50.7258 13.2404 51.2604 13.2404C52.3369 13.2404 53.4573 13.2404 54.4972 13.2404C54.834 13.2404 55.1855 13.2404 55.1709 13.7205C55.1562 14.2006 54.7828 14.157 54.4386 14.1643C53.7063 14.1643 52.974 14.2006 52.2417 14.1643C51.5094 14.1279 51.5094 14.5062 51.5094 15.0373C51.5094 15.5683 51.5972 15.8739 52.2417 15.8448C52.8861 15.8157 53.5818 15.8448 54.2482 15.8448C54.5777 15.8448 54.9366 15.8448 54.9805 16.2958C55.0244 16.7469 54.6436 16.776 54.3068 16.7832C53.6697 16.7832 53.0179 16.8196 52.3808 16.7832C51.7437 16.7469 51.5313 17.0451 51.5533 17.6635C51.5753 18.2819 51.5533 18.7184 52.3442 18.6747C53.1351 18.6311 53.8601 18.6747 54.6143 18.6747C54.9366 18.6747 55.3466 18.6747 55.3466 19.1185C55.3466 19.5623 54.9366 19.5986 54.6143 19.5986C53.5305 19.5986 52.4174 19.5986 51.3776 19.5986C50.821 19.5986 50.572 19.4022 50.5867 18.8348C50.55 17.9982 50.5281 17.1543 50.5281 16.3176Z" fill="#030303"/>
<path d="M67.7591 16.8414V15.7939C67.7591 14.3389 67.7591 14.3389 66.2945 14.1643C65.9649 14.1643 65.7159 14.0406 65.7306 13.6623C65.7452 13.284 65.9942 13.2404 66.2798 13.2404H70.2123C70.5272 13.2404 70.8128 13.3131 70.7981 13.7132C70.7835 14.1133 70.4833 14.1424 70.183 14.157C70.0368 14.1679 69.8899 14.1679 69.7436 14.157C69.0113 14.0551 68.7916 14.4262 68.8063 15.1173C68.8429 16.3322 68.8063 17.5471 68.8063 18.7547C68.8063 19.1258 68.8063 19.5623 68.2571 19.5477C67.7078 19.5332 67.7518 19.0967 67.7444 18.7256C67.7518 18.1146 67.7591 17.4598 67.7591 16.8414Z" fill="#030303"/>
<path d="M57.7925 16.8924C57.7925 16.2522 57.7925 15.612 57.7925 14.9791C57.7925 14.3462 57.6021 14.1061 56.987 14.1716C56.7821 14.1825 56.5767 14.1825 56.3718 14.1716C56.0862 14.1716 55.8446 14.0915 55.8299 13.7496C55.8153 13.4077 56.0862 13.2622 56.4084 13.2622H60.3482C60.6338 13.2622 60.8901 13.3277 60.9048 13.6769C60.9194 14.0261 60.6851 14.1425 60.3556 14.1861C58.8909 14.3753 58.8909 14.3825 58.8909 15.8885C58.8909 16.8706 58.8909 17.86 58.8909 18.8421C58.8909 19.184 58.8909 19.5696 58.393 19.5696C57.895 19.5696 57.8291 19.184 57.8218 18.7984C57.8218 18.1655 57.8218 17.5253 57.8218 16.8924H57.7925Z" fill="#030303"/>
<path d="M64.9766 16.4413C64.9766 17.227 64.9766 18.0127 64.9766 18.7911C64.9766 19.1767 64.9766 19.5913 64.4128 19.5768C63.8489 19.5622 63.9001 19.1912 63.9001 18.8493C63.9001 17.2488 63.9001 15.6556 63.9001 14.0551C63.9001 13.6696 63.9001 13.2549 64.464 13.2767C65.0279 13.2985 64.9693 13.735 64.9766 14.106C64.984 14.8699 64.9766 15.6556 64.9766 16.4413Z" fill="#030303"/>
</g>
<defs>
<clipPath id="clip0_464_1678">
<rect width="146.578" height="53.3834" fill="white" transform="translate(0.299316)"/>
</clipPath>
</defs>
</svg>
