<svg width="141" height="38" viewBox="0 0 141 38" fill="none" xmlns="http://www.w3.org/2000/svg">
<g clip-path="url(#clip0_1400_3132)">
<path d="M37.3878 12.1467C37.3906 13.6869 37.0764 15.2109 36.4649 16.6223C35.8111 18.1362 34.8357 19.487 33.6077 20.5791C31.7955 22.1882 29.5099 23.153 27.1016 23.3256H22.0928L15.0896 30.3891L13.1324 32.3661H17.3669C17.6624 32.4002 17.9391 32.5293 18.1563 32.7343C18.3734 32.9393 18.5194 33.2093 18.5726 33.5044C18.6031 33.6731 18.6031 33.8459 18.5726 34.0145C18.5218 34.2884 18.3915 34.541 18.1982 34.74C18.0049 34.9391 17.7573 35.0758 17.4869 35.1327H9.82364C9.51715 35.1037 9.22918 34.9718 9.00588 34.7581C8.78258 34.5444 8.63689 34.2612 8.59215 33.954V26.1729C8.6441 25.9 8.77581 25.6491 8.97032 25.4524C9.16484 25.2557 9.41327 25.1222 9.68363 25.0691L9.79507 25.0518C9.8957 25.0403 9.99731 25.0403 10.0979 25.0518C10.1379 25.0518 10.1751 25.0518 10.2122 25.0691C10.5032 25.1272 10.7678 25.2782 10.967 25.4998C11.1662 25.7215 11.2893 26.002 11.318 26.2997V30.3171L12.3666 29.2594L15.0896 26.5129L18.2326 23.3429L18.5641 23.0086L18.9298 22.6397L20.0727 21.4869L20.947 20.6051H26.273C27.882 20.6077 29.4575 20.1418 30.8104 19.2634C32.1633 18.3849 33.2361 17.1313 33.8998 15.653C34.5636 14.1746 34.7902 12.5345 34.5523 10.9294C34.3145 9.32442 33.6223 7.82276 32.559 6.60478C32.3078 6.31966 32.0386 6.05109 31.7533 5.80073C31.0426 5.17941 30.2331 4.68349 29.3589 4.33384C29.2074 4.27332 29.056 4.21857 28.9046 4.16669C28.0581 3.88568 27.1727 3.74267 26.2816 3.74306H26.1787V3.68542H3.42904V6.56732H13.961C14.2482 6.62227 14.5117 6.76474 14.7161 6.97551C14.9205 7.18628 15.0558 7.45521 15.1039 7.74601V18.6886L24.3729 9.32818H19.8984C19.6039 9.22642 19.3509 9.02952 19.1787 8.76798C19.0064 8.50645 18.9245 8.19491 18.9457 7.88166C18.9669 7.56841 19.0899 7.27095 19.2957 7.0354C19.5016 6.79985 19.7787 6.63937 20.0841 6.57885H27.6645C27.9698 6.60741 28.2568 6.73809 28.4799 6.9501C28.703 7.16211 28.8495 7.44328 28.896 7.7489V15.5646C28.8134 15.8652 28.6353 16.1301 28.3892 16.3189C28.143 16.5077 27.8423 16.61 27.5331 16.61C27.2238 16.61 26.9231 16.5077 26.677 16.3189C26.4308 16.1301 26.2528 15.8652 26.1702 15.5646V11.3974L20.9928 16.6223L18.9412 18.6944L18.5755 19.0632L18.004 19.6396L17.0697 20.5849L15.0896 22.5792L14.7467 22.9279C14.5282 23.1464 14.2456 23.2879 13.941 23.3313H13.5638C13.2769 23.2911 13.0092 23.1627 12.797 22.9637C12.5849 22.7647 12.4386 22.5047 12.3781 22.2189V9.32818H1.81182C1.50087 9.26792 1.22043 9.10034 1.01865 8.85423C0.816866 8.60811 0.706342 8.29881 0.706055 7.97945L0.706055 2.31075C0.706055 1.94693 0.849347 1.59801 1.10441 1.34075C1.35947 1.08349 1.70541 0.938967 2.06612 0.938967H26.273C27.1566 0.938419 28.0371 1.04387 28.896 1.25309C30.622 1.67751 32.2227 2.5114 33.5648 3.68542L33.7019 3.80646C34.5833 4.60579 35.3327 5.54165 35.9221 6.57885C36.4135 7.44066 36.7874 8.36546 37.0335 9.32818C37.2694 10.2488 37.3884 11.1958 37.3878 12.1467Z" fill="#315B12"/>
<path d="M48.0764 29.5669V14.0391H42.7704V11.3601H56.7376V14.0391H51.4056V29.5669H48.0764ZM60.9205 14.6633C60.3136 14.6633 59.8107 14.4813 59.4119 14.1171C59.0304 13.753 58.8397 13.2935 58.8397 12.7386C58.8397 12.1837 59.0304 11.7329 59.4119 11.3861C59.8107 11.022 60.3136 10.8399 60.9205 10.8399C61.5274 10.8399 62.0216 11.022 62.403 11.3861C62.8019 11.7329 63.0013 12.1837 63.0013 12.7386C63.0013 13.2935 62.8019 13.753 62.403 14.1171C62.0216 14.4813 61.5274 14.6633 60.9205 14.6633ZM59.2559 29.5669V16.6661H62.5851V29.5669H59.2559ZM66.06 29.5669V16.6661H68.9991L69.2592 18.8509C69.6581 18.0879 70.2303 17.481 70.9759 17.0302C71.7388 16.5794 72.6318 16.354 73.6549 16.354C75.2501 16.354 76.4899 16.8568 77.3743 17.8625C78.2586 18.8682 78.7008 20.3421 78.7008 22.2842V29.5669H75.3715V22.5963C75.3715 21.4865 75.1461 20.6369 74.6953 20.0473C74.2444 19.4578 73.5422 19.163 72.5885 19.163C71.6521 19.163 70.8805 19.4925 70.2736 20.1514C69.6841 20.8103 69.3893 21.7293 69.3893 22.9084V29.5669H66.06ZM86.332 29.879C85.2222 29.879 84.3119 29.7056 83.6009 29.3588C82.89 28.9947 82.3612 28.5178 82.0144 27.9283C81.6676 27.3387 81.4942 26.6885 81.4942 25.9776C81.4942 24.7811 81.9623 23.8101 82.8987 23.0645C83.835 22.3189 85.2396 21.946 87.1123 21.946H90.3895V21.6339C90.3895 20.7496 90.1381 20.0994 89.6352 19.6832C89.1323 19.267 88.5081 19.059 87.7625 19.059C87.0862 19.059 86.4967 19.2237 85.9938 19.5532C85.491 19.8653 85.1789 20.3334 85.0575 20.9577H81.8063C81.893 20.0213 82.2051 19.2064 82.7426 18.5128C83.2975 17.8192 84.0084 17.2903 84.8754 16.9262C85.7424 16.5447 86.7134 16.354 87.7885 16.354C89.6265 16.354 91.0744 16.8135 92.1321 17.7325C93.1899 18.6515 93.7187 19.952 93.7187 21.6339V29.5669H90.8837L90.5716 27.4861C90.1901 28.1797 89.6525 28.7519 88.9589 29.2028C88.2827 29.6536 87.407 29.879 86.332 29.879ZM87.0862 27.278C88.0399 27.278 88.7769 26.9659 89.2971 26.3417C89.8346 25.7175 90.1727 24.9458 90.3115 24.0268H87.4764C86.5921 24.0268 85.9592 24.1916 85.5777 24.521C85.1962 24.8331 85.0055 25.2233 85.0055 25.6914C85.0055 26.1943 85.1962 26.5844 85.5777 26.8619C85.9592 27.1393 86.462 27.278 87.0862 27.278ZM96.9738 29.5669V11.3601H103.71C105.167 11.3601 106.372 11.6029 107.326 12.0884C108.279 12.5739 108.99 13.2415 109.458 14.0911C109.927 14.9408 110.161 15.8945 110.161 16.9522C110.161 17.9579 109.935 18.8856 109.484 19.7352C109.034 20.5675 108.331 21.2438 107.378 21.764C106.424 22.2668 105.202 22.5183 103.71 22.5183H100.303V29.5669H96.9738ZM100.303 19.8133H103.502C104.664 19.8133 105.496 19.5618 105.999 19.059C106.519 18.5388 106.779 17.8365 106.779 16.9522C106.779 16.0505 106.519 15.3483 105.999 14.8454C105.496 14.3252 104.664 14.0651 103.502 14.0651H100.303V19.8133ZM116.329 29.879C115.22 29.879 114.309 29.7056 113.598 29.3588C112.888 28.9947 112.359 28.5178 112.012 27.9283C111.665 27.3387 111.492 26.6885 111.492 25.9776C111.492 24.7811 111.96 23.8101 112.896 23.0645C113.833 22.3189 115.237 21.946 117.11 21.946H120.387V21.6339C120.387 20.7496 120.136 20.0994 119.633 19.6832C119.13 19.267 118.506 19.059 117.76 19.059C117.084 19.059 116.494 19.2237 115.991 19.5532C115.489 19.8653 115.176 20.3334 115.055 20.9577H111.804C111.891 20.0213 112.203 19.2064 112.74 18.5128C113.295 17.8192 114.006 17.2903 114.873 16.9262C115.74 16.5447 116.711 16.354 117.786 16.354C119.624 16.354 121.072 16.8135 122.13 17.7325C123.187 18.6515 123.716 19.952 123.716 21.6339V29.5669H120.881L120.569 27.4861C120.188 28.1797 119.65 28.7519 118.956 29.2028C118.28 29.6536 117.405 29.879 116.329 29.879ZM117.084 27.278C118.037 27.278 118.774 26.9659 119.295 26.3417C119.832 25.7175 120.17 24.9458 120.309 24.0268H117.474C116.59 24.0268 115.957 24.1916 115.575 24.521C115.194 24.8331 115.003 25.2233 115.003 25.6914C115.003 26.1943 115.194 26.5844 115.575 26.8619C115.957 27.1393 116.46 27.278 117.084 27.278ZM128.074 35.289L131.065 28.7086H130.285L125.265 16.6661H128.88L132.496 25.7435L136.267 16.6661H139.804L131.611 35.289H128.074Z" fill="#315B12"/>
</g>
<defs>
<clipPath id="clip0_1400_3132">
<rect width="139.775" height="36.1217" fill="white" transform="translate(0.706055 0.938965)"/>
</clipPath>
</defs>
</svg>
