<svg width="41" height="46" viewBox="0 0 41 46" fill="none" xmlns="http://www.w3.org/2000/svg">
<path d="M21.0619 45.7058H20.1778C19.5844 45.4933 18.9836 45.2906 18.3951 45.066C14.2121 43.4835 10.4451 40.9677 7.38082 37.7101C4.89957 35.0848 3.0655 32.0931 2.12281 28.5837C1.19147 24.9746 0.69544 21.2671 0.645299 17.5402C0.580799 14.1612 0.743981 10.7817 1.13373 7.42465C1.2241 6.60408 1.62217 6.16692 2.44518 5.93492C8.28037 4.3068 14.1172 2.68764 19.9556 1.07743C20.3742 0.964733 20.8146 0.960526 21.2353 1.06521C27.0965 2.67379 32.9578 4.30191 38.819 5.94957C39.62 6.17181 40.0254 6.6456 40.0889 7.47349C40.2526 9.57621 40.4553 11.6814 40.5407 13.7865C40.7288 18.4877 40.4553 23.1547 39.3196 27.7411C38.67 30.3445 37.7005 32.7989 36.0984 34.9846C32.997 39.2484 28.7876 42.582 23.9266 44.6239C22.9961 45.0122 22.0217 45.337 21.0619 45.7058ZM19.0154 23.7579L18.8127 23.7872C18.7481 23.6404 18.6661 23.5018 18.5684 23.3745C17.0494 21.8457 15.5255 20.3202 13.9967 18.7979C13.2469 18.053 12.4557 18.0652 11.701 18.7979C11.2737 19.213 10.8536 19.638 10.436 20.0654C9.70333 20.82 9.69112 21.6186 10.436 22.361C12.8782 24.8162 15.3309 27.2674 17.7943 29.7144C18.5269 30.4471 19.3377 30.4471 20.0582 29.7291C24.0894 25.7044 28.1174 21.6764 32.1421 17.6452C32.8454 16.9418 32.8381 16.1286 32.1421 15.4081C31.7782 15.032 31.4094 14.6755 31.0309 14.2945C30.054 13.3176 29.3556 13.3176 28.3885 14.2798C25.3602 17.3081 22.3318 20.3373 19.3035 23.3672C19.1961 23.4861 19.0997 23.6144 19.0154 23.7506V23.7579Z" fill="#40642E"/>
</svg>
