<svg width="92" height="93" viewBox="0 0 92 93" fill="none" xmlns="http://www.w3.org/2000/svg">
<path d="M0 49.8473V43.3811C0.149837 42.2273 0.274701 41.069 0.454052 39.9198C2.11891 29.0437 7.01588 19.8975 15.1449 12.4813C21.5101 6.63355 29.4298 2.7521 37.9497 1.30465C39.5388 1.02757 41.1416 0.850412 42.7376 0.623291H49.2011C51.0332 0.886752 52.8857 1.05709 54.6951 1.4273C67.5675 4.05963 77.6497 10.8733 84.7556 21.9204C90.9489 31.5481 93.1238 42.1342 91.4665 53.4358C89.8501 64.4557 84.8101 73.7359 76.4328 81.0696C65.8035 90.3816 53.3602 94.0382 39.3935 92.135C28.4622 90.6428 19.2813 85.6234 11.8576 77.4561C6.00879 71.0863 2.12653 63.16 0.678805 54.6327C0.404104 53.0497 0.222485 51.4439 0 49.8473ZM24.8503 36.9173C24.1649 36.9018 23.4837 37.0295 22.8504 37.2923C22.2172 37.5551 21.6457 37.9472 21.1724 38.4435C19.8557 39.7517 18.5367 41.0577 17.2358 42.3795C14.9065 44.7484 14.8997 47.9213 17.2358 50.2924C23.1385 56.2718 29.0548 62.2451 34.9847 68.2123C37.5319 70.7765 40.7375 70.7719 43.2984 68.2123C45.4075 66.091 47.4598 63.9129 49.5779 61.8007C57.7342 53.6667 65.9003 45.5418 74.0763 37.426C74.3714 37.1308 74.6779 36.84 74.9526 36.5175C76.9686 34.2236 76.905 31.1756 74.7778 28.9907C73.5269 27.7052 72.251 26.4402 70.9729 25.1796C68.5596 22.7971 65.4107 22.7835 63.002 25.1592C59.5724 28.5388 56.1488 31.9274 52.7313 35.3251C48.5117 39.5223 44.2958 43.7271 40.0837 47.9394C39.1302 48.8911 39.1257 48.8911 38.1994 47.9599C35.0937 44.8438 31.991 41.7269 28.8913 38.6093C28.3755 38.0577 27.7486 37.6217 27.0521 37.33C26.3555 37.0384 25.6051 36.8977 24.8503 36.9173Z" fill="#3F622E"/>
</svg>
