<svg width="55" height="46" viewBox="0 0 55 46" fill="none" xmlns="http://www.w3.org/2000/svg">
<path d="M27.3609 36.8177C25.4649 36.7558 23.5924 36.3783 21.8203 35.701C21.5532 35.6167 21.264 35.6372 21.0115 35.7584C19.9187 36.3264 18.8514 36.9422 17.7746 37.542C17.2768 37.8196 16.7631 38.0924 16.2223 37.684C15.6815 37.2756 15.6544 36.7268 15.7916 36.1206C16.05 34.9783 16.2702 33.8281 16.5509 32.6922C16.6008 32.5457 16.6081 32.388 16.5719 32.2375C16.5358 32.087 16.4577 31.9498 16.3467 31.8419C14.2201 29.4664 13.0619 26.6618 12.7269 23.5095C12.3574 20.1555 13.1621 16.7771 15.0041 13.9499C16.846 11.1227 19.6112 9.02151 22.8286 8.00438C29.529 5.85866 36.8245 8.64252 40.2066 14.6904C44.833 22.9543 40.8639 34.1344 30.5484 36.4125C29.5067 36.6359 28.425 36.679 27.3609 36.8177ZM34.859 24.7777C35.2221 24.7813 35.5824 24.7133 35.9192 24.5775C36.256 24.4418 36.5628 24.2409 36.8219 23.9865C37.0811 23.7321 37.2875 23.4291 37.4295 23.0949C37.5714 22.7606 37.6461 22.4017 37.6492 22.0386C37.6468 21.3036 37.3549 20.5992 36.8369 20.0779C36.3188 19.5565 35.6163 19.2602 34.8813 19.2531C34.1498 19.2495 33.4468 19.5367 32.9269 20.0514C32.4071 20.5662 32.113 21.2663 32.1094 21.9979C32.1059 22.7294 32.393 23.4325 32.9078 23.9523C33.4225 24.4721 34.1227 24.7662 34.8542 24.7698L34.859 24.7777ZM27.3801 24.7777C27.9259 24.7803 28.4602 24.6208 28.9153 24.3195C29.3705 24.0183 29.726 23.5887 29.9369 23.0853C30.1478 22.5819 30.2046 22.0272 30.1002 21.4915C29.9957 20.9558 29.7346 20.4631 29.35 20.0758C28.9654 19.6885 28.4746 19.424 27.9396 19.3158C27.4046 19.2076 26.8495 19.2606 26.3447 19.468C25.8398 19.6754 25.4078 20.028 25.1034 20.481C24.7989 20.934 24.6358 21.4672 24.6345 22.013C24.6311 22.3753 24.6998 22.7347 24.8367 23.0701C24.9735 23.4056 25.1757 23.7105 25.4315 23.9671C25.6874 24.2236 25.9917 24.4267 26.3267 24.5645C26.6618 24.7024 27.021 24.7721 27.3833 24.7698L27.3801 24.7777ZM19.9362 24.7777C20.2992 24.7791 20.6588 24.7078 20.9938 24.5682C21.3288 24.4285 21.6325 24.2232 21.887 23.9644C22.1415 23.7056 22.3416 23.3985 22.4756 23.0612C22.6097 22.7239 22.6749 22.3632 22.6675 22.0003C22.6671 21.6367 22.5946 21.2767 22.4542 20.9413C22.3138 20.6059 22.1083 20.3016 21.8495 20.0462C21.5908 19.7907 21.2839 19.5891 20.9468 19.4529C20.6096 19.3168 20.2488 19.2489 19.8852 19.2531C19.1524 19.264 18.4533 19.5628 17.9389 20.0849C17.4246 20.607 17.1363 21.3105 17.1364 22.0433C17.1408 22.4059 17.2166 22.7641 17.3594 23.0974C17.5023 23.4307 17.7094 23.7325 17.969 23.9857C18.2285 24.2389 18.5355 24.4385 18.8722 24.573C19.2089 24.7076 19.5689 24.7744 19.9314 24.7698L19.9362 24.7777Z" fill="#40642E"/>
<path d="M6.73295 16.0194C7.64389 14.1688 8.36019 12.3166 9.40354 10.6734C12.9548 5.07057 18.0933 1.80013 24.6502 0.901958C34.8029 -0.48758 44.4738 5.69594 47.6485 15.5104C47.7682 15.8774 47.8942 16.0497 48.3186 16.0768C51.1264 16.2619 52.7568 17.9912 53.6326 20.4544C54.9887 24.2832 54.676 28.0131 52.5063 31.4941C51.5874 32.9714 50.3351 34.1599 48.518 34.3226C47.6421 34.3992 46.72 34.1376 45.841 33.935C45.3225 33.8153 45.0434 33.8871 44.7243 34.3418C41.7841 38.453 37.8643 41.1858 32.9954 42.5546C32.8247 42.6024 32.6556 42.6599 32.4737 42.7141C32.4535 42.7906 32.4391 42.8684 32.4306 42.947C32.3604 44.7258 31.6457 45.4214 29.8877 45.423C28.1296 45.4246 26.3444 45.423 24.5736 45.423C23.2606 45.423 22.4007 44.5807 22.3609 43.2805C22.3481 42.8832 22.3481 42.4828 22.3609 42.0872C22.4119 40.913 23.2415 40.0659 24.4125 40.034C25.4478 40.0052 26.4864 40.034 27.517 40.0212C34.286 39.9366 39.3368 36.8576 42.9471 31.2165C44.1547 29.3308 44.5791 27.2394 44.8391 25.0761C44.962 24.0519 45.1263 23.0309 45.3034 22.013C45.5969 20.314 45.2491 18.6724 44.753 17.0835C42.5626 10.0735 37.8404 5.73104 30.6614 4.25535C21.1612 2.30266 11.5445 8.89937 9.66518 18.3805C9.24401 20.5054 9.56787 22.5283 9.87736 24.5799C10.2108 26.799 10.5697 29.015 10.8792 31.2389C11.1042 32.8454 10.6495 33.5345 9.0765 33.935C8.2565 34.144 7.39661 34.3657 6.56544 34.3274C4.36866 34.2237 2.96956 32.8167 1.98204 31.0347C0.0405201 27.5249 -0.211545 23.8413 1.28169 20.121C2.10648 18.063 3.65714 16.6703 5.86509 16.1215C6.15145 16.066 6.44154 16.0319 6.73295 16.0194Z" fill="#40642E"/>
</svg>
