<svg width="166" height="50" viewBox="0 0 166 50" fill="none" xmlns="http://www.w3.org/2000/svg">
<path fill-rule="evenodd" clip-rule="evenodd" d="M102.978 39.0828C93.3677 46.1888 79.3887 49.9747 67.3319 49.9747C50.4407 49.9747 35.2968 43.7424 23.7642 33.3747C22.8905 32.5593 23.6477 31.4526 24.7544 32.0933C37.1607 39.3158 52.4793 43.626 68.3221 43.626C78.981 43.626 90.7466 41.4126 101.58 36.8112C103.211 36.1705 104.551 37.9179 102.978 39.0828Z" fill="#FF9900"/>
<path fill-rule="evenodd" clip-rule="evenodd" d="M106.997 34.4814C105.774 32.9088 98.8428 33.7243 95.7558 34.132C94.8239 34.2485 94.6491 33.433 95.5228 32.8506C101.056 28.9481 110.084 30.113 111.133 31.3944C112.181 32.6758 110.841 41.7622 105.658 46.0723C104.842 46.713 104.085 46.3636 104.434 45.4899C105.599 42.5776 108.22 36.1123 106.997 34.4814Z" fill="#FF9900"/>
<path fill-rule="evenodd" clip-rule="evenodd" d="M95.9305 5.47508V1.68912C95.9305 1.10666 96.3382 0.757186 96.8624 0.757186H113.754C114.278 0.757186 114.744 1.16491 114.744 1.68912V4.89263C114.744 5.41684 114.278 6.11579 113.462 7.2807L104.726 19.7453C107.987 19.687 111.424 20.153 114.336 21.7839C114.977 22.1333 115.152 22.7158 115.21 23.24V27.2589C115.21 27.8414 114.627 28.4821 113.987 28.1326C108.803 25.3951 101.872 25.1039 96.1635 28.1909C95.5811 28.4821 94.9403 27.8996 94.9403 27.3172V23.473C94.9403 22.8905 94.9404 21.8421 95.5811 20.9102L105.716 6.40702H96.9207C96.3965 6.40702 95.9305 5.9993 95.9305 5.47508ZM34.3649 28.9481H29.2393C28.7733 28.8898 28.3656 28.5403 28.3074 28.0744V1.74737C28.3074 1.22316 28.7733 0.815435 29.2975 0.815435H34.0737C34.5979 0.815435 34.9474 1.22315 35.0056 1.68912V5.12561H35.1221C36.3453 1.80561 38.7333 0.232979 41.8786 0.232979C45.0821 0.232979 47.1207 1.80561 48.5186 5.12561C49.7418 1.80561 52.5958 0.232979 55.6246 0.232979C57.7796 0.232979 60.1095 1.10666 61.5656 3.14526C63.1965 5.35859 62.847 8.56211 62.847 11.4161V28.0744C62.847 28.5986 62.3811 29.0063 61.8568 29.0063H56.7895C56.2653 28.9481 55.8575 28.5403 55.8575 28.0744V14.0954C55.8575 12.9888 55.974 10.193 55.7411 9.14455C55.3333 7.39718 54.2267 6.87298 52.7123 6.87298C51.4891 6.87298 50.1495 7.68842 49.6253 9.02807C49.101 10.3677 49.1593 12.581 49.1593 14.0954V28.0744C49.1593 28.5986 48.6933 29.0063 48.1691 29.0063H43.0435C42.5193 28.9481 42.1116 28.5403 42.1116 28.0744V14.0954C42.1116 11.1831 42.5775 6.81473 38.9663 6.81473C35.2968 6.81473 35.4133 11.0084 35.4133 14.0954V28.0744C35.3551 28.5403 34.9474 28.9481 34.3649 28.9481ZM129.305 0.232979C136.935 0.232979 141.071 6.75649 141.071 15.0856C141.071 23.1235 136.528 29.5305 129.305 29.5305C121.85 29.5305 117.773 23.007 117.773 14.8526C117.714 6.64 121.85 0.232979 129.305 0.232979ZM129.305 5.64981C125.519 5.64981 125.286 10.8337 125.286 14.0372C125.286 17.2407 125.228 24.1137 129.247 24.1137C133.208 24.1137 133.441 18.5804 133.441 15.2021C133.441 12.9888 133.324 10.3095 132.684 8.21264C132.101 6.34878 130.936 5.64981 129.305 5.64981ZM150.914 28.9481H145.789C145.265 28.8898 144.857 28.4821 144.857 28.0161V1.63087C144.915 1.16491 145.323 0.757186 145.847 0.757186H150.623C151.089 0.757186 151.439 1.10667 151.555 1.51439V5.53333H151.672C153.128 1.92211 155.108 0.232979 158.661 0.232979C160.933 0.232979 163.204 1.04841 164.66 3.31999C166 5.41683 166 8.96982 166 11.5326V28.1326C165.942 28.5986 165.534 28.9481 165.01 28.9481H159.884C159.418 28.8898 159.011 28.5403 158.952 28.1326V13.8042C158.952 10.8919 159.302 6.69825 155.749 6.69825C154.526 6.69825 153.361 7.51369 152.778 8.79509C152.079 10.426 151.963 11.9986 151.963 13.8042V28.0161C151.905 28.5404 151.439 28.9481 150.914 28.9481ZM82.4758 16.367C82.4758 18.3474 82.534 20.0365 81.5439 21.8421C80.7284 23.2982 79.447 24.1719 77.9909 24.1719C76.0105 24.1719 74.8456 22.6575 74.8456 20.4442C74.8456 16.0758 78.7481 15.2603 82.4758 15.2603V16.367ZM87.6596 28.8898C87.3102 29.1811 86.8442 29.2393 86.4365 29.0063C84.7474 27.6084 84.3979 26.9095 83.466 25.5698C80.6702 28.4239 78.6316 29.2975 75.0203 29.2975C70.7102 29.2975 67.3319 26.6182 67.3319 21.3179C67.3319 17.1242 69.6035 14.3284 72.807 12.9305C75.6028 11.7074 79.5053 11.4744 82.4758 11.1249V10.4842C82.4758 9.26105 82.5923 7.80492 81.8351 6.75649C81.1944 5.82457 80.0295 5.41684 78.981 5.41684C77.0007 5.41684 75.2533 6.40702 74.8456 8.50386C74.7291 8.96983 74.4379 9.43578 73.9719 9.43578L69.021 8.91157C68.6133 8.79508 68.1474 8.50386 68.2639 7.86316C69.4288 1.80561 74.8456 0 79.7382 0C82.2428 0 85.5046 0.640698 87.4849 2.5628C89.9895 4.89263 89.7565 8.0379 89.7565 11.4161V19.3958C89.7565 21.7839 90.7467 22.8323 91.6786 24.1719C92.0281 24.6379 92.0863 25.2203 91.6786 25.5116C90.5719 26.3853 88.7081 28.0161 87.6596 28.8898ZM15.2021 16.367C15.2021 18.3474 15.2604 20.0365 14.2702 21.8421C13.4547 23.2982 12.1733 24.1719 10.7172 24.1719C8.73684 24.1719 7.57193 22.6575 7.57193 20.4442C7.57193 16.0758 11.4744 15.2603 15.2021 15.2603V16.367ZM20.3277 28.8898C19.9782 29.1811 19.5123 29.2393 19.1046 29.0063C17.4154 27.6084 17.066 26.9095 16.134 25.5698C13.3382 28.4239 11.2996 29.2975 7.68842 29.2975C3.37824 29.2975 0 26.6182 0 21.3179C0 17.1242 2.27158 14.3284 5.47508 12.9305C8.27087 11.7074 12.1733 11.4744 15.1439 11.1249V10.4842C15.1439 9.26105 15.2603 7.80492 14.5032 6.75649C13.8625 5.82457 12.6975 5.41684 11.6491 5.41684C9.66877 5.41684 7.9214 6.40702 7.51368 8.50386C7.39719 8.96983 7.10596 9.43578 6.64 9.43578L1.68912 8.91157C1.2814 8.79508 0.815442 8.50386 0.931933 7.86316C2.09685 1.80561 7.51369 0 12.4063 0C14.9109 0 18.1726 0.640698 20.153 2.5628C22.6575 4.89263 22.4246 8.0379 22.4246 11.4161V19.3958C22.4246 21.7839 23.4147 22.8323 24.3467 24.1719C24.6961 24.6379 24.7544 25.2203 24.3467 25.5116C23.24 26.3853 21.3761 28.0161 20.3277 28.8898Z" fill="white"/>
</svg>
