<svg width="132" height="131" viewBox="0 0 132 131" fill="none" xmlns="http://www.w3.org/2000/svg">
<path d="M0 0H131V70.7177L124.516 80.8492L131 89.8662V131H0V64.3349L4.05259 59.6744L0 55.2165V0Z" fill="#016FD0"/>
<path d="M25.4299 91.2846V70.7177H47.2065L49.5428 73.7634L51.9565 70.7177H131V89.8662C131 89.8662 128.933 91.264 126.542 91.2846H82.7741L80.1399 88.0425V91.2846H71.5079V85.7502C71.5079 85.7502 70.3287 86.5228 67.7795 86.5228H64.8414V91.2846H51.7718L49.4387 88.1735L47.0699 91.2846H25.4299Z" fill="white"/>
<path d="M0 55.2166L4.91069 43.7681H13.4032L16.1901 50.1811V43.7681H26.7471L28.4061 48.4032L30.0145 43.7681H77.4045V46.0983C77.4045 46.0983 79.8957 43.7681 83.9899 43.7681L99.3663 43.8218L102.105 50.1509V43.7681H110.94L113.371 47.4036V43.7681H122.287V64.3349H113.371L111.041 60.6876V64.3349H98.0609L96.7556 61.0929H93.2661L91.9821 64.3349H83.1794C79.6565 64.3349 77.4045 62.0523 77.4045 62.0523V64.3349H64.1323L61.4981 61.0929V64.3349H12.1451L10.8407 61.0929H7.36233L6.06712 64.3349H0V55.2166Z" fill="white"/>
<path d="M6.64872 46.3035L0.0252686 61.7033H4.33748L5.55959 58.6196H12.6643L13.8801 61.7033H18.2873L11.6701 46.3035H6.64872ZM9.09927 49.8875L11.2649 55.2762H6.92734L9.09927 49.8875Z" fill="#016FD0"/>
<path d="M18.7432 61.7007V46.3009L24.8711 46.3237L28.4352 56.2525L31.9141 46.3009H37.993V61.7007H34.143V50.3535L30.062 61.7007H26.6855L22.5931 50.3535V61.7007H18.7432Z" fill="#016FD0"/>
<path d="M40.6272 61.7007V46.3009H53.1902V49.7456H44.5177V52.3798H52.9876V55.6219H44.5177V58.3574H53.1902V61.7007H40.6272Z" fill="#016FD0"/>
<path d="M55.4191 46.3035V61.7033H59.269V56.2323H60.8901L65.5062 61.7033H70.211L65.1453 56.0297C67.2243 55.8543 69.3688 54.0699 69.3688 51.2996C69.3688 48.0589 66.8253 46.3035 63.9865 46.3035H55.4191ZM59.269 49.7482H63.6699C64.7256 49.7482 65.4936 50.574 65.4936 51.3692C65.4936 52.3923 64.4985 52.9902 63.7269 52.9902H59.269V49.7482Z" fill="#016FD0"/>
<path d="M74.8716 61.7007H70.9406V46.3009H74.8716V61.7007Z" fill="#016FD0"/>
<path d="M84.1925 61.7007H83.344C79.2385 61.7007 76.7458 58.4663 76.7458 54.0641C76.7458 49.5533 79.2106 46.3009 84.3951 46.3009H88.6503V49.9482H84.2395C82.1349 49.9482 80.6465 51.5907 80.6465 54.1021C80.6465 57.0845 82.3484 58.3371 84.8004 58.3371H85.8135L84.1925 61.7007Z" fill="#016FD0"/>
<path d="M92.57 46.3035L85.9465 61.7033H90.2587L91.4808 58.6196H98.5855L99.8013 61.7033H104.209L97.5914 46.3035H92.57ZM95.0205 49.8875L97.1861 55.2762H92.8486L95.0205 49.8875Z" fill="#016FD0"/>
<path d="M104.658 61.7007V46.3009H109.553L115.803 55.9765V46.3009H119.653V61.7007H114.916L108.508 51.7719V61.7007H104.658Z" fill="#016FD0"/>
<path d="M28.0642 88.6503V73.2505H40.6272V76.6952H31.9547V79.3294H40.4246V82.5715H31.9547V85.307H40.6272V88.6503H28.0642Z" fill="#016FD0"/>
<path d="M89.6229 88.6503V73.2505H102.186V76.6952H93.5134V79.3294H101.943V82.5715H93.5134V85.307H102.186V88.6503H89.6229Z" fill="#016FD0"/>
<path d="M41.1148 88.6503L47.2316 81.0454L40.9691 73.2505H45.8196L49.5492 78.0693L53.2915 73.2505H57.952L51.7718 80.9504L57.8999 88.6503H53.0503L49.4289 83.9075L45.8955 88.6503H41.1148Z" fill="#016FD0"/>
<path d="M58.3573 73.2532V88.653H62.3086V83.7899H66.3612C69.7902 83.7899 72.3894 81.9707 72.3894 78.4329C72.3894 75.5022 70.3509 73.2532 66.8614 73.2532H58.3573ZM62.3086 76.7359H66.5765C67.6843 76.7359 68.4761 77.4148 68.4761 78.5089C68.4761 79.5367 67.6883 80.2819 66.5638 80.2819H62.3086V76.7359Z" fill="#016FD0"/>
<path d="M74.061 73.2505V88.6503H77.911V83.1793H79.532L84.1482 88.6503H88.853L83.7873 82.9767C85.8663 82.8013 88.0108 81.0169 88.0108 78.2466C88.0108 75.0059 85.4673 73.2505 82.6285 73.2505H74.061ZM77.911 76.6952H82.3119C83.3676 76.6952 84.1355 77.521 84.1355 78.3162C84.1355 79.3393 83.1405 79.9373 82.3688 79.9373H77.911V76.6952Z" fill="#016FD0"/>
<path d="M103.969 88.6503V85.307H111.674C112.814 85.307 113.308 84.6909 113.308 84.0152C113.308 83.3678 112.816 82.7133 111.674 82.7133H108.192C105.166 82.7133 103.48 80.8694 103.48 78.1009C103.48 75.6317 105.024 73.2505 109.521 73.2505H117.019L115.398 76.7154H108.913C107.674 76.7154 107.292 77.3659 107.292 77.987C107.292 78.6254 107.764 79.3294 108.711 79.3294H112.358C115.732 79.3294 117.196 81.2431 117.196 83.7492C117.196 86.4436 115.564 88.6503 112.174 88.6503H103.969Z" fill="#016FD0"/>
<path d="M118.099 88.6503V85.307H125.804C126.944 85.307 127.438 84.6909 127.438 84.0152C127.438 83.3678 126.946 82.7133 125.804 82.7133H122.323C119.296 82.7133 117.611 80.8694 117.611 78.1009C117.611 75.6317 119.154 73.2505 123.651 73.2505H131.149L129.528 76.7154H123.044C121.804 76.7154 121.423 77.3659 121.423 77.987C121.423 78.6254 121.894 79.3294 122.841 79.3294H126.488C129.862 79.3294 131.326 81.2431 131.326 83.7492C131.326 86.4436 129.695 88.6503 126.305 88.6503H118.099Z" fill="#016FD0"/>
</svg>
