<svg width="157" height="157" viewBox="0 0 157 157" fill="none" xmlns="http://www.w3.org/2000/svg">
<path d="M30.0508 63.7812C20.8516 63.7812 13.1855 67.4609 13.1855 79.4199C13.1855 88.9258 18.3984 94.4453 30.3574 94.4453C44.4629 94.4453 45.3828 85.2461 45.3828 85.2461H38.3301C38.3301 85.2461 37.1035 90.459 29.7441 90.459C23.918 90.459 19.9316 86.4727 19.9316 80.9531H45.9961V77.2734C45.9961 72.0605 42.623 63.7812 30.0508 63.7812ZM29.7441 68.0742C35.2637 68.0742 38.9434 71.4473 38.9434 76.6602H19.9316C19.9316 71.1406 24.8379 68.0742 29.7441 68.0742Z" fill="#E53238"/>
<path d="M45.9961 52.4355V88.9258L45.6895 93.832H52.4355L52.7422 89.5391C52.7422 89.5391 55.8086 94.752 64.7012 94.752C73.9004 94.752 80.0332 88.3125 80.0332 79.1133C80.0332 70.5273 74.5137 63.7812 64.7012 63.7812C55.1953 63.7812 52.7422 68.6875 52.7422 68.6875V52.4355H45.9961ZM62.8613 68.3809C69.3008 68.3809 72.9805 72.9805 72.9805 79.1133C72.9805 85.8594 68.3809 90.1523 62.8613 90.1523C56.1152 90.1523 52.7422 84.9395 52.7422 79.4199C52.7422 73.9004 55.8086 68.3809 62.8613 68.3809Z" fill="#0064D2"/>
<path d="M96.2852 63.7812C82.1797 63.7812 81.5664 71.4473 81.5664 72.3672H88.3125C88.3125 72.3672 88.9258 68.0742 95.6719 68.0742C105.178 68.0742 103.951 75.4336 103.951 75.4336H95.6719C84.9395 75.4336 79.4199 78.8066 79.4199 84.9395C79.4199 91.0723 84.6328 94.752 91.6855 94.752C101.498 94.752 104.258 89.5391 104.258 89.5391L104.564 93.832H110.697V74.8203C110.697 65.6211 103.031 63.7812 96.2852 63.7812ZM103.951 79.7266C103.951 79.7266 105.178 90.459 93.2188 90.459C88.3125 90.459 86.166 88.0059 86.166 84.9395C86.166 79.7266 93.5254 79.7266 103.951 79.7266Z" fill="#F5AF03"/>
<path d="M106.711 65.0078H114.377L125.723 87.0859L136.762 65.0078H143.814L123.883 104.564H116.523L122.043 93.5254L106.711 65.0078Z" fill="#86B817"/>
</svg>
