<svg width="238" height="55" viewBox="0 0 238 55" fill="none" xmlns="http://www.w3.org/2000/svg">
<path d="M37.7835 35.7946C44.2789 32.2281 49.2032 29.5104 49.6276 29.2992C50.9854 28.577 52.3875 26.666 49.6276 25.1815C48.7365 24.7149 43.9389 22.0817 37.7835 18.6862L29.2504 27.3037L37.7835 35.7946Z" fill="#FFD900"/>
<path d="M29.2503 27.3038L2.07996 54.6875C2.71767 54.7719 3.43774 54.603 4.28661 54.1363C6.06883 53.1608 24.9616 42.8433 37.7834 35.7968L29.2503 27.3038Z" fill="#F43249"/>
<path d="M29.2503 27.3038L37.7834 18.7284C37.7834 18.7284 6.19764 1.49117 4.28661 0.473359C3.56654 0.0468097 2.7599 -0.0798882 2.03772 0.0468097L29.2503 27.3038Z" fill="#00EE76"/>
<path d="M29.2503 27.3037L2.03773 0.0467529C0.933342 0.30226 0 1.27783 0 3.27333C0 6.45767 0 48.8276 0 51.4608C0 53.2873 0.722178 54.6029 2.07996 54.7296L29.2503 27.3037Z" fill="#00D3FF"/>
<path d="M117.854 21.8684C112.972 21.8684 108.939 25.6461 108.939 30.826C108.939 35.9636 112.93 39.7835 117.854 39.7835C122.779 39.7835 126.77 36.0058 126.77 30.826C126.77 25.6461 122.779 21.8684 117.854 21.8684ZM117.854 36.2191C115.179 36.2191 112.846 33.9681 112.846 30.7858C112.846 27.5593 115.181 25.3526 117.854 25.3526C120.528 25.3526 122.863 27.5593 122.863 30.7858C122.863 33.9681 120.528 36.2191 117.854 36.2191ZM98.4528 21.8684C93.5285 21.8684 89.5375 25.6461 89.5375 30.826C89.5375 35.9636 93.5285 39.7835 98.4528 39.7835C103.377 39.7835 107.368 36.0058 107.368 30.826C107.368 25.6461 103.377 21.8684 98.4528 21.8684ZM98.4528 36.2191C95.7773 36.2191 93.444 33.9681 93.444 30.7858C93.444 27.5593 95.7795 25.3526 98.4528 25.3526C101.128 25.3526 103.462 27.5593 103.462 30.7858C103.462 33.9681 101.168 36.2191 98.4528 36.2191ZM75.4001 24.6283V28.406H84.3999C84.1444 30.5282 83.4243 32.0993 82.3621 33.1614C81.0466 34.477 79.0089 35.9213 75.4001 35.9213C69.8381 35.9213 65.5514 31.4214 65.5514 25.8594C65.5514 20.2974 69.8402 15.713 75.4001 15.713C78.4134 15.713 80.5799 16.9019 82.1932 18.4307L84.8665 15.7552C82.6155 13.5908 79.6022 11.9353 75.4001 11.9353C67.8003 11.9353 61.4316 18.1752 61.4316 25.7749C61.4316 33.3747 67.8003 39.6146 75.4001 39.6146C79.5178 39.6146 82.5754 38.2568 85.0376 35.7081C87.542 33.2037 88.3064 29.6794 88.3064 26.835C88.3064 25.9439 88.2219 25.1372 88.0931 24.4573L75.4001 24.6283ZM169.733 27.5572C169.011 25.5617 166.72 21.8684 162.133 21.8684C157.547 21.8684 153.769 25.4772 153.769 30.826C153.769 35.8348 157.547 39.7835 162.558 39.7835C166.633 39.7835 168.969 37.2791 169.944 35.8348L166.931 33.797C165.911 35.2836 164.553 36.2592 162.558 36.2592C160.562 36.2592 159.162 35.3681 158.269 33.5415L170.113 28.575L169.733 27.5572ZM157.676 30.5726C157.591 27.1327 160.351 25.3505 162.302 25.3505C163.873 25.3505 165.147 26.1149 165.613 27.2615L157.676 30.5726ZM148.038 39.1901H151.945V12.9531H148.038V39.1901ZM141.672 23.8639H141.545C140.654 22.8018 138.998 21.8684 136.874 21.8684C132.416 21.8684 128.383 25.8172 128.383 30.826C128.383 35.8348 132.459 39.7413 136.874 39.7413C138.996 39.7413 140.652 38.8079 141.545 37.7036H141.672V38.9769C141.672 42.4167 139.845 44.2412 136.916 44.2412C134.538 44.2412 133.052 42.5012 132.459 41.0568L129.063 42.5012C130.039 44.8789 132.63 47.8077 136.916 47.8077C141.501 47.8077 145.365 45.09 145.365 38.5102V22.4196H141.672V23.8639ZM137.214 36.2191C134.538 36.2191 132.29 33.9681 132.29 30.8281C132.29 27.6881 134.541 25.3948 137.214 25.3948C139.847 25.3948 141.969 27.6881 141.969 30.8281C141.967 33.9258 139.845 36.2191 137.214 36.2191ZM187.946 12.9531H178.606V39.1901H182.513V29.2549H187.946C192.277 29.2549 196.521 26.1128 196.521 21.104C196.521 16.0952 192.277 12.9531 187.946 12.9531ZM188.073 25.606H182.553V16.6041H188.073C190.959 16.6041 192.657 19.0241 192.657 21.104C192.617 23.1417 190.961 25.606 188.073 25.606ZM212.103 21.8262C209.301 21.8262 206.372 23.0573 205.183 25.8594L208.623 27.3038C209.387 25.8594 210.745 25.3927 212.19 25.3927C214.227 25.3927 216.265 26.6238 216.307 28.7882V29.0437C215.585 28.6193 214.101 28.0238 212.232 28.0238C208.496 28.0238 204.716 30.1038 204.716 33.9258C204.716 37.4502 207.774 39.699 211.17 39.699C213.803 39.699 215.245 38.5102 216.136 37.1102H216.263V39.1479H220.041V29.086C219.998 24.4594 216.561 21.8262 212.103 21.8262ZM211.636 36.1768C210.363 36.1768 208.579 35.5391 208.579 33.9702C208.579 31.9325 210.785 31.1681 212.696 31.1681C214.394 31.1681 215.201 31.5503 216.263 32.0592C215.965 34.4791 213.885 36.1768 211.636 36.1768ZM233.669 22.4217L229.211 33.7569H229.085L224.458 22.4217H220.256L227.218 38.299L223.269 47.1721H227.345L238 22.4217H233.669ZM198.688 39.1901H202.594V12.9531H198.688V39.1901Z" fill="#808285"/>
</svg>
