<svg width="161" height="48" viewBox="0 0 161 48" fill="none" xmlns="http://www.w3.org/2000/svg">
<path d="M40.0172 34.6486C38.9241 37.0729 38.3997 38.1546 36.9919 40.2961C35.028 43.2884 32.2586 47.0098 28.8271 47.0435C25.7767 47.0712 24.9928 45.0605 20.8545 45.0816C16.717 45.1034 15.8533 47.0782 12.8046 47.0505C9.37311 47.0193 6.74881 43.6569 4.78314 40.6671C-0.709975 32.3046 -1.28473 22.4911 2.10219 17.2749C4.50963 13.569 8.30892 11.3998 11.8818 11.3998C15.5195 11.3998 17.8056 13.3933 20.8113 13.3933C23.7287 13.3933 25.5052 11.3965 29.7108 11.3965C32.8882 11.3965 36.2557 13.129 38.6564 16.1162C30.7954 20.4237 32.0737 31.6463 40.0172 34.6486Z" fill="white"/>
<path d="M26.5224 8.05241C28.0497 6.09178 29.21 3.32425 28.7892 0.494385C26.2926 0.666886 23.3727 2.25497 21.6696 4.32414C20.123 6.2023 18.8464 8.98817 19.342 11.6969C22.0675 11.7802 24.8866 10.1527 26.5224 8.05241Z" fill="white"/>
<path d="M53.9626 21.3579C53.9626 23.0568 52.671 24.4267 50.6489 24.4267C48.7093 24.4267 47.4177 23.0543 47.4581 21.3579C47.4177 19.5824 48.7096 18.2496 50.6896 18.2496C52.6696 18.2496 53.9231 19.5824 53.9626 21.3579ZM47.6216 46.6053V26.8513H53.7617V46.6053H47.6216ZM64.1412 24.5496H56.8305V19.3795H77.7534V24.5496H70.3216V46.6053H64.1395L64.1412 24.5496ZM97.2621 40.2642C97.2621 42.8484 97.3437 44.9488 97.422 46.6065H92.0905L91.8078 43.8195H91.6849C90.9175 45.0304 89.0585 47.0523 85.5033 47.0523C81.5038 47.0523 78.5555 44.5455 78.5555 38.4465V26.8554H84.7362V37.4789C84.7362 40.3467 85.6652 42.0824 87.8059 42.0824C89.504 42.0824 90.4725 40.9119 90.8755 39.9425C91.0354 39.579 91.0748 39.0943 91.0748 38.6097V26.8554H97.2572V40.2651L97.2621 40.2642ZM102.188 33.152C102.188 30.6865 102.107 28.5864 102.027 26.8521H107.359L107.642 29.5589H107.764C108.571 28.3077 110.589 26.4084 113.863 26.4084C117.903 26.4084 120.93 29.0742 120.93 34.8904V46.6053H114.792V35.6579C114.792 33.115 113.902 31.3766 111.683 31.3766C109.984 31.3766 108.975 32.5496 108.573 33.6763C108.412 34.0802 108.332 34.6459 108.332 35.2113V46.602H102.191V33.1528L102.188 33.152ZM130.584 38.6881C130.786 41.2327 133.291 42.4452 136.158 42.4452C138.259 42.4452 139.956 42.1624 141.61 41.6382L142.419 45.7967C140.4 46.6053 137.935 47.0482 135.268 47.0482C128.561 47.0482 124.726 43.1312 124.726 36.9489C124.726 31.9396 127.836 26.4084 134.703 26.4084C141.086 26.4084 143.508 31.3742 143.508 36.2648C143.508 37.315 143.387 38.2447 143.308 38.6873L130.584 38.6881ZM137.814 34.4849C137.814 32.9921 137.166 30.4863 134.34 30.4863C131.755 30.4863 130.705 32.828 130.542 34.4849H137.814ZM147.143 41.2327C148.276 41.9168 150.617 42.7254 152.435 42.7254C154.293 42.7254 155.061 42.0777 155.061 41.0687C155.061 40.0598 154.454 39.5751 152.152 38.8069C148.072 37.4344 146.497 35.2127 146.538 32.9096C146.538 29.1937 149.688 26.4051 154.577 26.4051C156.879 26.4051 158.942 26.9311 160.152 27.5378L159.06 31.7797C158.17 31.295 156.476 30.6469 154.779 30.6469C153.286 30.6469 152.437 31.2536 152.437 32.2625C152.437 33.1923 153.204 33.6778 155.628 34.5252C159.385 35.8168 160.96 37.7169 161 40.6242C161 44.3006 158.092 47.0474 152.437 47.0474C149.853 47.0474 147.547 46.4397 146.054 45.6311L147.143 41.2327Z" fill="white"/>
</svg>
