<svg width="133" height="127" viewBox="0 0 133 127" fill="none" xmlns="http://www.w3.org/2000/svg">
<path d="M45.9461 112.352C45.7123 113.17 45.0498 113.832 44.3094 114.066C43.9586 114.183 43.6079 114.3 43.2182 114.378H39.3212V107.324H42.7116C43.1792 107.402 43.6469 107.558 44.1145 107.753C44.5822 107.909 45.0498 108.221 45.4395 108.61C45.7123 109 45.9461 109.39 46.063 109.857C46.141 110.208 46.18 110.559 46.18 110.949C46.18 111.416 46.141 111.884 45.9461 112.352ZM49.1027 111.066C49.1027 110.715 49.0248 110.325 48.9858 110.052C48.791 109.039 48.3233 108.143 47.6219 107.441C46.9204 106.857 46.141 106.428 45.3226 106.155C44.777 105.96 44.2314 105.844 43.6469 105.805C43.0623 105.727 42.3998 105.688 41.8153 105.688H36.6322V124.9H39.3212V116.21H43.491H43.53C43.9976 116.21 44.4653 116.132 44.9329 116.015C45.6733 115.898 46.3748 115.664 46.9594 115.235C47.5439 114.846 48.0895 114.3 48.4402 113.599C48.8689 112.819 49.1027 111.923 49.1027 111.066Z" fill="white"/>
<path d="M7.94996 104.791C7.52129 104.713 7.17055 104.674 6.74188 104.674C6.39115 104.674 6.04041 104.713 5.68968 104.791C4.98821 104.908 4.40366 105.064 3.78013 105.415C2.96175 105.843 2.33822 106.506 1.83161 107.285C1.4419 107.87 1.20808 108.493 1.01323 109.234C0.896319 109.701 0.857349 110.208 0.857349 110.715C0.857349 111.416 0.97426 112.118 1.20808 112.819C1.48088 113.482 1.83161 114.144 2.45514 114.612C2.92278 115.079 3.50734 115.43 4.09189 115.781C4.63748 116.015 5.14409 116.326 5.76762 116.56C6.50806 116.833 7.20952 117.262 7.87202 117.807C8.3007 118.158 8.57349 118.626 8.80731 119.093C8.92422 119.561 9.04113 120.107 9.04113 120.613C9.04113 121.159 8.92422 121.743 8.6904 122.289C8.45658 122.835 8.10584 123.302 7.6382 123.653C7.28747 123.926 6.93673 124.121 6.50806 124.16C6.15732 124.276 5.80659 124.354 5.45586 124.354C5.14409 124.354 4.91027 124.276 4.63748 124.237C4.2088 124.16 3.85807 124.004 3.50734 123.77C3.1566 123.458 2.80587 123.185 2.57205 122.835C2.18234 122.328 1.94852 121.821 1.7147 121.276L0 122.328C0.311763 122.99 0.662497 123.575 1.09117 124.121C1.48088 124.588 2.02646 125.017 2.61102 125.368C3.19557 125.64 3.85807 125.874 4.55954 125.991C4.91027 126.069 5.33895 126.147 5.76762 126.147C6.23526 126.147 6.74188 126.069 7.28747 125.952C8.10584 125.757 8.92422 125.368 9.58672 124.822C10.3661 124.276 10.9117 123.575 11.3014 122.757C11.6522 122.094 11.847 121.471 11.9639 120.691C11.9639 120.457 12.0029 120.146 12.0029 119.873C12.0029 119.21 11.886 118.548 11.7301 117.924C11.5352 117.418 11.3014 116.95 11.0286 116.56C10.8338 116.249 10.5999 116.015 10.3661 115.781C9.82054 115.313 9.23599 114.963 8.65143 114.612C8.10584 114.378 7.59923 114.066 6.9757 113.832C6.50806 113.599 6.11835 113.365 5.61174 113.131C5.02718 112.819 4.55954 112.351 4.2088 111.806C3.85807 111.221 3.66322 110.559 3.66322 109.857C3.66322 109.507 3.74116 109.156 3.85807 108.805C3.97498 108.377 4.2088 107.909 4.52057 107.558C4.8713 107.129 5.261 106.779 5.80659 106.545C6.23526 106.389 6.62497 106.311 7.09261 106.311C7.28747 106.311 7.52129 106.311 7.75511 106.389C8.18378 106.428 8.57349 106.623 9.00216 106.857C9.31393 107.09 9.58672 107.402 9.82054 107.675C10.1323 108.104 10.3661 108.571 10.5999 109.039L12.1198 108.104C11.6522 106.974 10.8338 105.96 9.70363 105.376C9.19701 105.064 8.57349 104.83 7.94996 104.791Z" fill="white"/>
<path d="M28.8771 114.3H20.8102V107.402H29.3447V105.727H17.9264V124.9H29.6175V123.224H20.8102V115.976H28.8771V114.3Z" fill="white"/>
<path d="M58.5334 114.3V105.727H55.7665V124.9H58.5334V115.976H67.7304V124.9H70.4973V105.727H67.7304V114.3H58.5334Z" fill="white"/>
<path d="M91.4246 119.132V119.21C90.996 120.224 90.3724 121.159 89.593 121.938C89.0474 122.406 88.4239 122.757 87.7614 123.068C87.2158 123.224 86.6313 123.341 86.0467 123.341C85.5011 123.341 84.9166 123.224 84.332 123.068C83.6306 122.757 82.9291 122.289 82.3835 121.704C81.6041 120.925 81.0195 119.99 80.6688 118.976C80.2012 117.612 79.9673 116.21 79.9673 114.768C79.9673 113.754 80.0842 112.819 80.2401 111.923C80.4739 110.871 80.9026 109.857 81.4872 109C81.8379 108.377 82.3056 107.909 82.7732 107.441C83.3967 106.974 83.9813 106.662 84.6828 106.428C85.1114 106.311 85.5791 106.194 86.0467 106.194C86.5144 106.194 86.943 106.272 87.3327 106.389C87.9173 106.545 88.4629 106.857 88.9305 107.129C89.4761 107.558 89.9438 107.987 90.2945 108.493C90.996 109.39 91.5026 110.403 91.7754 111.533C92.0871 112.585 92.204 113.638 92.204 114.768C92.204 116.249 91.9702 117.807 91.4246 119.132ZM94.932 111.884C94.5033 110.286 93.7239 108.844 92.5937 107.636C91.8533 106.74 90.879 106.038 89.8268 105.571C89.1644 105.181 88.5408 105.025 87.8004 104.83C87.2158 104.713 86.7092 104.674 86.0857 104.674C85.2673 104.674 84.4879 104.791 83.7475 105.025C82.9291 105.259 82.1497 105.61 81.3703 106.038C80.435 106.662 79.5387 107.519 78.8762 108.454C78.1357 109.468 77.5901 110.637 77.2784 111.884C77.0446 112.819 76.8887 113.832 76.8887 114.768C76.8887 116.365 77.2394 117.963 77.9019 119.405C78.2916 120.34 78.8372 121.159 79.5387 121.938C80.2401 122.757 81.1364 123.458 82.1497 124.004C82.7342 124.237 83.3188 124.471 83.9813 124.666C84.6438 124.822 85.3453 124.9 86.0857 124.9C86.8651 124.9 87.6445 124.822 88.4239 124.588C89.0085 124.432 89.5151 124.237 90.0607 123.926C90.7621 123.575 91.3467 123.107 91.9702 122.64C92.8276 121.743 93.607 120.73 94.1526 119.639C94.932 118.158 95.2827 116.443 95.2827 114.768C95.2827 113.754 95.1658 112.819 94.932 111.884Z" fill="white"/>
<path d="M121.938 117.847L124.783 110.17L127.55 117.847H121.938ZM132.889 124.9V124.822L125.056 105.259H124.472L116.561 124.9H119.172L121.354 119.445H128.213L130.395 124.9H132.889Z" fill="white"/>
<path d="M106.779 107.442C107.286 107.519 107.753 107.675 108.143 107.87C108.572 108.026 108.922 108.221 109.234 108.494C109.741 109.039 110.091 109.702 110.208 110.403C110.286 110.715 110.364 111.066 110.364 111.339C110.364 111.65 110.286 111.923 110.286 112.157C110.169 112.547 110.052 112.897 109.819 113.17C109.585 113.482 109.351 113.716 109.039 113.95C108.65 114.183 108.221 114.378 107.792 114.417C107.402 114.534 106.935 114.651 106.506 114.651C105.961 114.729 105.493 114.768 104.947 114.768H103.077L110.286 125.251H113.599L107.402 116.366C108.65 116.21 109.819 115.859 110.949 115.236C111.572 114.885 112.196 114.417 112.586 113.833C112.897 113.365 113.131 112.78 113.17 112.235C113.248 111.923 113.248 111.65 113.248 111.417C113.248 110.715 113.131 110.053 112.897 109.39C112.469 108.377 111.767 107.558 110.871 107.013C110.052 106.506 109.156 106.156 108.143 106.039C107.441 105.922 106.662 105.844 105.922 105.844H100.115V125.251H102.882V107.442H106.779Z" fill="white"/>
<path d="M60.1314 36.0866C62.1968 44.816 65.0027 53.1167 65.2365 59.8975C66.0159 78.2526 60.1314 88.4239 60.1314 88.4239C60.1314 88.4239 72.5629 75.096 70.4975 61.1056C69.1336 51.9865 65.1586 41.5814 65.2365 31.9947C65.3534 14.7308 70.4975 0 70.4975 0C70.4975 0 57.5593 27.7859 60.1314 36.0866Z" fill="white"/>
</svg>
