<svg width="180" height="39" viewBox="0 0 180 39" fill="none" xmlns="http://www.w3.org/2000/svg">
<path d="M0 19.5852C0 8.97722 8.62835 0.348877 19.2364 0.348877C29.8817 0.348877 38.4354 8.97722 38.4354 19.5852C38.4354 30.2306 29.8817 38.7842 19.2364 38.7842C8.62835 38.7842 0 30.2306 0 19.5852ZM19.2364 32.3223C26.2959 32.3223 32.0481 26.6448 32.0481 19.5852C32.0481 12.563 26.2959 6.8108 19.2364 6.8108C12.1768 6.8108 6.46192 12.563 6.46192 19.5852C6.46192 26.6448 12.1768 32.3223 19.2364 32.3223ZM19.2364 26.0845C22.8969 26.0845 25.8477 23.1337 25.8477 19.4732C25.8477 15.85 22.8969 12.8245 19.2364 12.8245C15.6132 12.8245 12.5877 15.85 12.5877 19.4732C12.5877 23.1337 15.6132 26.0845 19.2364 26.0845Z" fill="white"/>
<path d="M44.6731 5.80212H66.5988V11.3676H59.0537V33.4427H52.3676V11.3676H44.6731V5.80212Z" fill="white"/>
<path d="M87.0679 5.80212C87.0679 5.80212 92.0357 5.80212 100.029 5.80212C107.387 5.80212 108.433 10.8447 108.433 13.7955C108.433 18.091 104.735 20.2574 104.399 20.2948C104.399 20.2948 107.649 21.49 107.649 25.1879V30.3425C107.649 32.3969 108.919 32.9571 109.143 33.4427H103.876C101.336 33.1812 101.411 31.2016 101.411 30.0063V25.5988C101.336 24.5156 101 23.3203 98.7217 23.2456H93.4177V33.4427H86.9932L87.0679 5.80212ZM99.5435 11.3676H93.4177V16.8957C93.4177 16.8957 98.2362 16.8957 98.9085 16.8957C100.813 16.8584 102.308 15.9993 102.308 14.1317C102.308 12.0399 101.075 11.3676 99.5435 11.3676Z" fill="white"/>
<path d="M136.634 5.80212V33.4427H156.58V27.8025H143.171V21.6021H154.601V16.3354H143.171V11.3676H156.58V5.80212H136.634Z" fill="white"/>
<path d="M157.514 11.3676H165.433V33.4427H171.969V11.3676H180V5.80212H157.514V11.3676Z" fill="white"/>
<path d="M69.7738 5.80212H76.9081L86.545 33.4427H79.7095L77.6925 27.7278H69.475L67.6074 33.4427H60.8093L69.7738 5.80212ZM73.5091 15.551L71.1185 22.6853H76.0117L73.5091 15.551Z" fill="white"/>
<path d="M134.393 18.0537H122.478V23.3577H128.155C128.155 24.5156 128.305 25.6362 126.96 27.1676C126.512 27.6906 124.98 28.8858 122.814 28.8858C121.021 28.8858 119.714 28.3629 118.556 27.3917C116.016 25.2253 115.455 21.266 115.455 19.1743C115.455 16.5596 116.464 10.0977 122.889 9.83624C122.889 9.83624 127.184 9.53742 128.305 14.7667H134.318C134.206 12.0774 131.143 4.68164 122.889 4.68164C120.05 4.68164 116.427 5.50339 113.476 8.52891C111.272 10.658 109.33 14.3558 109.33 19.4731C109.33 25.0012 111.384 28.6244 113.252 30.6414C116.539 34.1525 119.863 34.4139 121.581 34.4139C122.926 34.4139 125.578 34.1898 129.014 31.9114L129.836 33.4428H134.393V18.0537Z" fill="white"/>
<path d="M175.294 30.0437C176.265 30.0437 177.124 30.7534 177.124 31.7993C177.124 32.8825 176.265 33.5548 175.294 33.5548C174.397 33.5548 173.538 32.8825 173.538 31.7993C173.538 30.7534 174.397 30.0437 175.294 30.0437ZM175.294 33.1813C176.041 33.1813 176.601 32.621 176.601 31.7993C176.601 31.0149 176.041 30.4546 175.294 30.4546C174.547 30.4546 173.986 31.0149 173.986 31.7993C173.986 32.621 174.547 33.1813 175.294 33.1813ZM174.621 30.8654H175.368C175.854 30.8654 176.153 30.9775 176.153 31.4257C176.153 31.7619 175.929 31.9113 175.592 31.9113L176.153 32.7704H175.742L175.256 31.9113H175.032V32.7704H174.621V30.8654ZM175.032 31.6498H175.368C175.592 31.6498 175.742 31.5751 175.742 31.351C175.742 31.1269 175.518 31.1269 175.368 31.1269H175.032V31.6498Z" fill="white"/>
</svg>
