<svg width="138" height="75" viewBox="0 0 138 75" fill="none" xmlns="http://www.w3.org/2000/svg">
<path fill-rule="evenodd" clip-rule="evenodd" d="M33.57 29.3303L30.1546 29.4523C29.3008 30.9973 21.7788 59.8652 20.3558 64.8663C19.6646 67.2245 19.8679 67.9157 18.3228 69.3794C16.1679 67.3871 16.2899 65.1102 15.2327 61.2476C14.013 56.7345 7.30422 31.3226 6.73499 30.2654C6.36906 29.3303 5.88115 29.4116 4.82402 29.3303C-0.136388 29.2083 1.04272 28.9237 3.52293 38.2346L11.0042 64.8663C11.858 67.6718 12.4679 71.5344 14.2976 72.8355C17.1437 74.7464 20.803 74.2992 22.7547 72.2256C24.4217 70.3553 25.1942 66.7366 25.9261 63.8092C28.4876 53.6444 31.781 43.0324 34.6271 32.8676C35.115 30.9973 36.2128 29.3303 33.57 29.3303Z" fill="#3C3C3C"/>
<path fill-rule="evenodd" clip-rule="evenodd" d="M14.501 24.7358C14.9482 23.3534 14.9482 21.1578 14.501 19.7754C12.59 19.1656 7.10105 19.9787 5.79996 19.2875C4.62085 18.1897 6.61315 11.8876 9.86587 9.16343C12.5087 6.96784 16.6153 4.97554 21.2911 6.07334C26.9833 7.33377 31.2119 12.3755 31.5778 18.0678C31.7811 20.6293 30.6833 22.9875 30.8459 24.7765H35.9283C37.514 22.4183 37.0668 16.6853 36.3349 14.0425C35.2371 10.4239 33.6108 8.10629 31.6591 5.95136C22.6328 -3.72549 4.21426 -0.269476 0.554948 14.8557C0.148357 16.6853 -0.054938 18.6776 0.148357 20.6293C0.310993 22.2556 0.432971 24.7765 2.09999 24.9798C3.72635 25.1018 13.4032 24.9798 14.501 24.7358Z" fill="#3C3C3C"/>
<path fill-rule="evenodd" clip-rule="evenodd" d="M118.588 42.4632C124.443 42.0566 123.305 41.9753 123.305 47.4236C123.386 49.4565 123.508 50.2697 121.8 50.9203C119.727 51.6928 115.051 52.5466 113.587 50.6763C112.693 49.7005 112.408 48.2774 112.571 46.6917C113.099 42.8698 114.888 42.7478 118.588 42.4632ZM110.375 32.5017C113.14 32.9083 116.921 31.9325 119.849 32.3797C122.817 32.7457 123.996 35.7544 123.183 39.2105C119.605 40.8775 108.505 36.8522 108.708 47.8302C108.749 54.3763 113.384 55.7994 118.71 54.8642C120.418 54.5796 121.597 53.7257 123.183 53.4005C123.752 54.3356 123.386 54.8642 124.85 54.9455C128.184 55.1488 127.33 54.0104 127.33 47.4236C127.289 43.6423 127.574 38.1127 127.005 34.5753C126.395 30.8754 123.711 29.3303 119.727 28.9237C117.572 28.7204 115.417 28.8424 113.343 29.1677C110.782 29.4523 109.44 29.2897 110.375 32.5017Z" fill="#3C3C3C"/>
<path fill-rule="evenodd" clip-rule="evenodd" d="M53.0457 42.7479C53.249 43.9677 53.127 46.4885 53.127 47.8303C53.127 49.8226 53.127 50.5138 51.3787 51.0424C49.1017 51.8149 44.4666 52.6687 43.1249 50.6358C42.149 49.2127 41.5392 44.6995 44.3446 43.2358C46.0117 42.3007 51.6226 41.9347 53.0457 42.7479ZM53.005 39.2919C48.6952 40.3897 37.8392 37.5435 38.3678 48.0336C38.5711 51.4489 40.1568 54.4577 43.2468 54.8236C48.7358 55.5149 48.6952 54.4577 53.127 53.3599C53.4116 54.8236 54.2248 55.3116 55.7698 54.8643C57.3962 54.4577 57.0709 53.1566 57.0709 51.5709C57.0709 48.4808 57.0709 45.3907 57.0709 42.3007C57.0709 35.8765 57.7621 30.8348 51.7039 29.3304C48.1259 28.4766 44.7919 28.8425 41.2952 29.4117C40.2787 29.5744 40.0348 29.5337 39.9128 30.3876C39.3436 34.7787 46.1336 30.9974 50.6468 32.6238C52.883 33.3963 53.4116 36.6084 53.005 39.2919Z" fill="#3C3C3C"/>
<path fill-rule="evenodd" clip-rule="evenodd" d="M64.7962 30.4687C64.105 28.4764 62.6006 28.9644 60.8116 29.4523C60.6489 30.7127 60.7709 34.0874 60.7709 35.7138L60.6896 51.9774C60.6896 54.4982 60.6489 55.5147 64.4709 54.7015C65.0401 52.0587 64.6742 43.8862 64.6742 40.6335C64.6742 39.0885 64.3896 34.9412 65.1621 33.9654C65.772 33.1116 69.1467 32.4204 70.5697 32.2984C76.1807 31.8918 76.262 36.2423 76.1807 41.0808C76.1807 43.4796 76.1807 45.8785 76.1807 48.2774C76.1807 53.2785 74.9609 55.7587 80.084 54.7015C80.6532 51.2862 80.4905 37.1775 79.5961 34.1687C77.0752 25.6303 68.7401 29.8182 64.7962 30.4687Z" fill="#3C3C3C"/>
<path fill-rule="evenodd" clip-rule="evenodd" d="M93.2981 55.7016C94.2739 55.9455 95.697 56.0675 96.6728 55.6202C97.1607 54.7664 97.242 23.2556 96.7948 20.9787C91.9157 19.4337 92.9728 22.7677 92.9728 26.4677C92.9728 31.4688 92.6476 53.9126 93.2981 55.7016Z" fill="#3C3C3C"/>
<path fill-rule="evenodd" clip-rule="evenodd" d="M101.715 54.7423C102.65 54.8643 104.276 55.1489 105.13 54.7016L105.293 54.4577C105.537 53.8478 105.293 54.7016 105.496 53.9698C105.496 53.7665 105.496 53.0346 105.496 52.7907V22.5403C105.496 20.3854 105.862 19.7349 103.707 19.6535C101.471 19.6129 101.471 20.1008 101.552 22.1337C101.593 27.6227 101.308 52.1808 101.715 54.7423Z" fill="#3C3C3C"/>
<path fill-rule="evenodd" clip-rule="evenodd" d="M84.5158 29.5337C84.0686 31.3227 84.3532 47.3424 84.3532 51.7335C84.3532 52.2214 84.2719 52.9127 84.3532 53.4006C84.5158 55.8808 87.8498 54.9456 88.1751 54.3357C88.5817 53.5225 88.3378 35.7139 88.3378 33.4776C88.3378 32.4205 88.5411 30.2656 87.9718 29.5744C87.2806 28.8018 85.2477 29.1678 84.5158 29.5337Z" fill="#3C3C3C"/>
<path fill-rule="evenodd" clip-rule="evenodd" d="M84.963 19.6535C83.8245 20.2227 84.0278 21.4425 84.3938 23.5567C84.7597 25.7523 87.1586 25.1425 87.6465 24.8578C88.4597 24.2073 88.541 21.9304 88.3377 20.7513C88.175 19.1656 86.1828 18.9623 84.963 19.6535Z" fill="#3C3C3C"/>
<path fill-rule="evenodd" clip-rule="evenodd" d="M130.908 30.7533C130.461 26.5248 136.519 25.8742 136.966 29.9808C137.373 34.3313 131.396 34.9005 130.908 30.7533ZM132.9 26.8094C128.306 28.4358 130.42 35.6324 135.218 33.9247C139.406 32.4203 137.454 25.2644 132.9 26.8094Z" fill="#3C3C3C"/>
<path d="M132.534 32.3798V28.8018H134.12C134.445 28.8018 134.689 28.8018 134.852 28.8424C134.974 28.9237 135.177 29.0457 135.218 29.2083C135.34 29.4116 135.421 29.5743 135.421 29.7776C135.421 30.0215 135.299 30.2248 135.177 30.3875C134.974 30.5908 134.73 30.7127 134.364 30.7534C134.486 30.8347 134.608 30.8754 134.689 30.9567C134.811 31.0787 134.933 31.2006 135.055 31.3633L135.665 32.3798H135.096L134.608 31.6072C134.486 31.4446 134.364 31.2413 134.242 31.1193C134.161 30.9973 134.12 30.9567 134.039 30.8754C133.917 30.8347 133.876 30.8347 133.795 30.8347C133.754 30.7534 133.673 30.7534 133.551 30.7534H133.022V32.3798H132.534ZM133.022 30.3875H133.998C134.242 30.3875 134.445 30.3468 134.567 30.2655C134.689 30.2655 134.73 30.2248 134.811 30.1028C134.852 29.9809 134.933 29.8996 134.933 29.7776C134.933 29.5743 134.852 29.4523 134.73 29.3303C134.608 29.2083 134.445 29.1677 134.12 29.1677H133.022V30.3875Z" fill="#3C3C3C"/>
</svg>
