<svg width="37" height="33" viewBox="0 0 37 33" fill="none" xmlns="http://www.w3.org/2000/svg">
<path d="M9.13376 18.3574C8.69594 18.3832 8.28295 18.57 7.97447 18.8817C7.666 19.1935 7.48349 19.6083 7.46232 20.0463L7.00008 28.1885C6.97303 28.4838 7.00804 28.7816 7.10251 29.0627C7.19698 29.3438 7.34878 29.6021 7.54869 29.8212C7.7486 30.0402 7.99221 30.2152 8.26353 30.3349C8.53485 30.4546 8.82809 30.5164 9.12464 30.5164C9.4212 30.5164 9.71444 30.4546 9.98576 30.3349C10.2571 30.2152 10.5007 30.0402 10.7006 29.8212C10.9005 29.6021 11.0523 29.3438 11.1468 29.0627C11.2413 28.7816 11.2763 28.4838 11.2492 28.1885L10.787 20.0463C10.7662 19.6111 10.5861 19.1987 10.2813 18.8874C9.97654 18.576 9.56842 18.3874 9.13376 18.3574Z" fill="#B1BCA0" fill-opacity="0.94"/>
<path d="M11.3918 1.93051L10.6275 1.21941C10.1945 0.902631 9.67094 0.734232 9.13444 0.739372C8.56203 0.733944 8.0043 0.921894 7.55198 1.27274C7.55198 1.36163 7.12548 1.66382 6.84104 1.96604C4.52387 4.44505 2.62611 7.28529 1.22298 10.375C0.992697 10.9451 0.83731 11.5426 0.760742 12.1527C0.763675 12.6024 0.86722 13.0458 1.06326 13.4505C1.35541 13.9561 1.79603 14.3596 2.32541 14.6061C2.81033 14.7517 3.30307 14.8704 3.80111 14.9616C5.5655 15.2319 7.34978 15.3509 9.13444 15.3172C10.8521 15.3411 12.569 15.2401 14.272 15.0149C14.8781 14.9017 15.473 14.7351 16.0498 14.5171C16.4677 14.2972 16.8176 13.9674 17.062 13.5633C17.3063 13.1592 17.4359 12.6961 17.4365 12.2239C17.3453 11.553 17.1534 10.8998 16.8675 10.2861C15.4657 7.27049 13.6004 4.4931 11.3389 2.05496" fill="#315B12"/>
<path d="M27.9427 15.1925C28.3805 15.1667 28.7935 14.98 29.102 14.6683C29.4104 14.3565 29.5925 13.9417 29.6137 13.5037L30.0581 5.36141C30.0629 5.08144 30.0119 4.80335 29.9075 4.54353C29.8031 4.28372 29.6477 4.04748 29.4505 3.84866C29.2533 3.64984 29.0184 3.49251 28.7595 3.38593C28.5006 3.27935 28.2227 3.22569 27.9427 3.22811C27.6634 3.2281 27.3867 3.28338 27.1289 3.39081C26.871 3.49824 26.6372 3.65564 26.4405 3.85397C26.2438 4.05231 26.0883 4.28763 25.983 4.54636C25.8778 4.80508 25.8249 5.0821 25.8272 5.36141L26.2895 13.5037C26.2871 13.7231 26.3279 13.9409 26.4097 14.1445C26.4915 14.3481 26.6129 14.5337 26.7665 14.6905C26.92 14.8473 27.1028 14.9724 27.3047 15.0586C27.5065 15.1447 27.7232 15.1902 27.9427 15.1925Z" fill="#B1BCA0" fill-opacity="0.94"/>
<path d="M36.0139 20.1356C35.7326 19.6214 35.2887 19.215 34.7517 18.9801C34.2695 18.8203 33.7762 18.6955 33.276 18.6068C31.5117 18.3364 29.7274 18.2175 27.9427 18.2512C26.2253 18.2361 24.509 18.3371 22.8051 18.5534C22.2014 18.6766 21.6073 18.843 21.0273 19.0512C20.6107 19.2727 20.2615 19.6028 20.0174 20.0066C19.7732 20.4103 19.6432 20.8727 19.6406 21.3446V21.4868C19.7346 22.1513 19.9264 22.7983 20.2096 23.4067C21.5985 26.4296 23.4652 29.2089 25.7383 31.6379C25.98 31.883 26.2351 32.1145 26.5026 32.3312C26.9261 32.6681 27.4552 32.8445 27.9961 32.829C28.5699 32.8432 29.1305 32.6543 29.5786 32.2956L30.2895 31.6201C32.6033 29.1318 34.5002 26.2863 35.9071 23.1934C36.1374 22.6233 36.2928 22.0257 36.3694 21.4156C36.3708 20.9654 36.2675 20.5211 36.0673 20.1179" fill="#315B12"/>
</svg>
