<svg width="33" height="33" viewBox="0 0 33 33" fill="none" xmlns="http://www.w3.org/2000/svg">
<path d="M24.1549 0.774902H9.21074C3.77074 0.774902 0.682617 3.86288 0.682617 9.30288V24.2149C0.682617 29.6389 3.75474 32.7429 9.21074 32.7429H24.1549C29.5949 32.7429 32.6826 29.6389 32.6826 24.2149V9.2709C32.6826 3.8629 29.5949 0.774902 24.1549 0.774902Z" fill="#315B12"/>
<path d="M21.9947 17.9111H17.8826V21.9911C17.8826 22.3094 17.7564 22.6146 17.5314 22.8396C17.3063 23.0647 17.0008 23.1911 16.6826 23.1911C16.3643 23.1911 16.0592 23.0647 15.8341 22.8396C15.6091 22.6146 15.4826 22.3094 15.4826 21.9911V17.9111H11.3708C11.0551 17.8827 10.7634 17.7304 10.5595 17.4875C10.3557 17.2447 10.2559 16.9311 10.2826 16.6151C10.3046 16.3339 10.4265 16.0698 10.6259 15.8703C10.8254 15.6708 11.0896 15.5492 11.3708 15.5271H15.4665V11.4151C15.5007 11.1187 15.643 10.8452 15.8658 10.6466C16.0885 10.4481 16.3764 10.3384 16.6747 10.3384C16.9731 10.3384 17.261 10.4481 17.4837 10.6466C17.7065 10.8452 17.8484 11.1187 17.8826 11.4151V15.4792H21.9947C22.287 15.5131 22.5567 15.6532 22.7525 15.873C22.9482 16.0928 23.0564 16.3768 23.0564 16.6711C23.0564 16.9654 22.9482 17.2495 22.7525 17.4692C22.5567 17.689 22.287 17.8292 21.9947 17.8631V17.9111Z" fill="#B1BCA0" fill-opacity="0.94"/>
</svg>
