<svg width="33" height="33" viewBox="0 0 33 33" fill="none" xmlns="http://www.w3.org/2000/svg">
<path d="M31.2991 1.70806C30.8967 1.31372 30.3976 1.03183 29.8521 0.890535C29.3067 0.749238 28.7338 0.753471 28.1906 0.902822L2.27839 8.39149C1.71251 8.54176 1.20128 8.85044 0.804746 9.28121C0.408211 9.71198 0.14262 10.247 0.0396159 10.8233C-0.0224583 11.4777 0.0948483 12.1366 0.378538 12.7295C0.662227 13.3224 1.10161 13.827 1.65008 14.1892L9.70243 19.1333C10.1054 19.3836 10.5816 19.4896 11.0526 19.434C11.5237 19.3784 11.9618 19.1645 12.2955 18.8273L21.5718 9.55103C21.7916 9.34958 22.0789 9.23786 22.377 9.23786C22.6751 9.23786 22.9624 9.34958 23.1822 9.55103C23.4084 9.7775 23.5353 10.0845 23.5353 10.4046C23.5353 10.7247 23.4084 11.0316 23.1822 11.2581L13.8898 20.5344C13.5551 20.8691 13.3419 21.3059 13.2835 21.7756C13.2252 22.2452 13.3252 22.7209 13.5678 23.1273L18.5278 31.1796C18.848 31.693 19.3068 32.1058 19.8508 32.3707C20.3948 32.6356 21.0024 32.7419 21.604 32.6774C22.2069 32.5929 22.7735 32.3392 23.2381 31.9459C23.7027 31.5525 24.0461 31.0356 24.2289 30.4549L31.9108 4.68743C32.0643 4.14693 32.0736 3.57567 31.938 3.03042C31.8024 2.48517 31.5266 1.9849 31.1378 1.57924" fill="#315B12"/>
<path d="M8.10852 32.2909C7.99457 32.1799 7.90417 32.0472 7.84233 31.9006C7.7805 31.754 7.74876 31.5965 7.74876 31.4374C7.74876 31.2783 7.7805 31.1208 7.84233 30.9742C7.90417 30.8276 7.99457 30.6948 8.10852 30.5838L10.2989 28.3775C10.5279 28.1641 10.8306 28.048 11.1435 28.0535C11.4564 28.059 11.7549 28.1858 11.9762 28.4071C12.1975 28.6284 12.3246 28.9269 12.3301 29.2399C12.3356 29.5528 12.2195 29.8556 12.0061 30.0846L9.81571 32.2909C9.58924 32.5171 9.2822 32.6442 8.96211 32.6442C8.64203 32.6442 8.33499 32.5171 8.10852 32.2909ZM6.83619 26.1873C6.60999 25.9608 6.48311 25.6538 6.48311 25.3337C6.48311 25.0136 6.60999 24.7066 6.83619 24.4802L9.04272 22.2899C9.15375 22.176 9.28655 22.0854 9.43314 22.0236C9.57974 21.9617 9.73721 21.9298 9.89631 21.9298C10.0554 21.9298 10.2129 21.9617 10.3595 22.0236C10.5061 22.0854 10.6389 22.176 10.7499 22.2899C10.9761 22.5164 11.103 22.8234 11.103 23.1435C11.103 23.4635 10.9761 23.7705 10.7499 23.997L8.54338 26.1873C8.3169 26.4134 8.00986 26.5405 7.68978 26.5405C7.3697 26.5405 7.06266 26.4134 6.83619 26.1873ZM0.780811 24.2708C0.55462 24.0443 0.427734 23.7373 0.427734 23.4173C0.427734 23.0972 0.55462 22.7902 0.780811 22.5637L2.98734 20.3574C3.21631 20.144 3.51898 20.0279 3.83189 20.0334C4.14481 20.0389 4.44335 20.1657 4.66465 20.387C4.88595 20.6083 5.01299 20.9068 5.01851 21.2197C5.02403 21.5326 4.90789 21.8355 4.69453 22.0645L2.488 24.2708C2.26153 24.497 1.95449 24.624 1.63441 24.624C1.31432 24.624 1.00728 24.497 0.780811 24.2708Z" fill="#B1BCA0" fill-opacity="0.94"/>
</svg>
