<svg width="55" height="55" viewBox="0 0 55 55" fill="none" xmlns="http://www.w3.org/2000/svg">
<circle cx="27.3632" cy="27.7152" r="27.1786" fill="#F4F4F4"/>
<g clip-path="url(#clip0_2471_2542)">
<path fill-rule="evenodd" clip-rule="evenodd" d="M27.3627 50.3641C14.8535 50.3641 4.71387 40.2245 4.71387 27.7152C4.71387 15.206 14.8535 5.06641 27.3627 5.06641C39.8719 5.06641 50.0115 15.206 50.0115 27.7152C50.0115 40.2245 39.8719 50.3641 27.3627 50.3641ZM30.0834 24.5911V21.2419H37.7472V16.1346H16.8805V21.2419H24.5443V24.5897C18.3159 24.8756 13.6318 26.11 13.6318 27.5878C13.6318 29.0657 18.3159 30.2986 24.5443 30.586V41.3187H30.0834V30.5831C36.3019 30.2972 40.9746 29.0643 40.9746 27.5878C40.9746 26.1114 36.3019 24.8785 30.0834 24.5911ZM30.0834 29.6729V29.6701C29.9277 29.6814 29.1251 29.7296 27.3344 29.7296C25.9047 29.7296 24.8982 29.6871 24.5443 29.6701V29.6744C19.0407 29.4323 14.9327 28.474 14.9327 27.3274C14.9327 26.1822 19.0407 25.2239 24.5443 24.9776V28.7203C24.9039 28.7458 25.9344 28.8066 27.3584 28.8066C29.067 28.8066 29.9234 28.7358 30.0834 28.7217V24.9804C35.5757 25.2253 39.6737 26.1836 39.6737 27.3274C39.6737 28.474 35.5757 29.4295 30.0834 29.6729Z" fill="#B1BCA0"/>
</g>
<defs>
<clipPath id="clip0_2471_2542">
<rect width="45.2976" height="45.2976" fill="white" transform="translate(4.71387 5.06641)"/>
</clipPath>
</defs>
</svg>
